2000 0 1 0           
32 SPATIAL - INTEROP Version - 32.0 12 ACIS 32.0 NT 24 Wed Mar 11 20:14:21 2026 
1 9.9999999999999995e-07 1e-10 
body $1 -1 -1 $-1 $2 $-1 $-1 T -4.5000000000000009 -9.5000000000000018 -10.000000000000002 1.5804614774937974e-15 9.5000000000000018 10.000000000000002 #
string_attrib-name_attrib-gen-attrib $-1 -1 $3 $-1 $0 2 1 1 1 1 1 1 1 1 1 1 1 1 1 0 1 1 1 @17 ATTRIB_XACIS_NAME @4 Box3 #
lump $-1 -1 -1 $-1 $-1 $4 $0 T -4.5000000000000009 -9.5000000000000018 -10.000000000000002 1.5804614774937974e-15 9.5000000000000018 10.000000000000002 #
rgb_color-st-attrib $-1 -1 $-1 $1 $0 2 1 2 1 1 1 1 1 1 1 1 1 1 1 0 1 1 1 0.56078433990478516 0.68627452850341797 0.56078433990478516 #
shell $-1 -1 -1 $-1 $-1 $-1 $5 $-1 $2 T -4.5000000000000009 -9.5000000000000018 -10.000000000000002 1.5804614774937974e-15 9.5000000000000018 10.000000000000002 #
face $-1 -1 -1 $-1 $6 $7 $4 $-1 $8 reversed single T -3.2374368670764722 -4.2374368670764699 4.9181134871073002 -0.76256313292353206 -4.2374368670764699 5.1850282024860954 F #
face $-1 -1 -1 $-1 $9 $10 $4 $-1 $11 reversed single T -0.76256313292353206 -4.2374368670764717 4.9181134871073002 -0.76256313292353206 -4.2265708447967016 5.1850282024860954 F #
loop $-1 -1 -1 $-1 $-1 $12 $5 T -3.2374368670764722 -4.2374368670764699 4.9181134871073002 -0.76256313292353206 -4.2374368670764699 5.1850282024860954 unknown #
plane-surface $-1 -1 -1 $-1 -2.0000000000000022 -4.2374368670764699 9.5000000000000018 0 -1 -0 0 0 -1 forward_v I I I I #
face $-1 -1 -1 $-1 $13 $14 $4 $-1 $15 reversed single T -3.2374368670764722 -4.2374368670764717 4.9181134871073002 -3.2374368670764722 -4.2265708447967016 5.1850282024860954 F #
loop $-1 -1 -1 $-1 $-1 $16 $6 T -0.76256313292353206 -4.2374368670764717 4.9181134871073002 -0.76256313292353206 -4.2265708447967016 5.1850282024860954 unknown #
plane-surface $-1 -1 -1 $-1 -0.76256313292353206 -3.0000000000000004 9.5000000000000018 1 0 -0 -0 0 -1 forward_v I I I I #
coedge $-1 -1 -1 $-1 $17 $18 $19 $20 forward $7 $-1 #
face $-1 -1 -1 $-1 $21 $22 $4 $-1 $23 forward single T -4 -1.0000000000000002 10.000000000000002 0 0.99999999999999956 10.000000000000002 F #
loop $-1 -1 -1 $-1 $-1 $24 $9 T -3.2374368670764722 -4.2374368670764717 4.9181134871073002 -3.2374368670764722 -4.2265708447967016 5.1850282024860954 unknown #
plane-surface $-1 -1 -1 $-1 -3.2374368670764722 -3.0000000000000004 9.5000000000000018 -1 0 0 0 0 1 forward_v I I I I #
coedge $-1 -1 -1 $-1 $25 $25 $26 $27 forward $10 $-1 #
coedge $-1 -1 -1 $-1 $28 $12 $25 $29 forward $7 $-1 #
coedge $-1 -1 -1 $-1 $12 $28 $30 $31 reversed $7 $-1 #
coedge $-1 -1 -1 $-1 $32 $26 $12 $20 reversed $33 $-1 #
edge $-1 -1 -1 $-1 $34 -0.0027374368670764729 $35 -0.00026256313292353291 $12 $36 reversed @7 unknown T -3.2374368670764722 -4.2374368670764699 5.1850282024860954 -0.76256313292353206 -4.2374368670764699 5.1850282024860954 #
face $-1 -1 -1 $-1 $37 $38 $4 $-1 $39 forward single T -4 -1.0000000000000004 7.6712857384758264 0 -0.99999999999999922 10.000000000000002 F #
loop $-1 -1 -1 $-1 $-1 $40 $13 T -4 -1.0000000000000002 10.000000000000002 0 0.99999999999999956 10.000000000000002 unknown #
plane-surface $-1 -1 -1 $-1 -2.25 -0.5500000000000026 10.000000000000002 0 0 1 1 0 0 forward_v I I I I #
coedge $-1 -1 -1 $-1 $30 $30 $32 $41 forward $14 $-1 #
coedge $-1 -1 -1 $-1 $16 $16 $17 $29 reversed $10 $-1 #
coedge $-1 -1 -1 $-1 $19 $42 $16 $27 reversed $33 $-1 #
edge $-1 -1 -1 $-1 $35 -1.7332767892222221 $43 -1.4083158643675722 $16 $44 reversed @7 unknown T -0.76256313292353206 -4.2374368670764717 4.9181134871073002 -0.76256313292353206 -4.2265708447967016 5.1850282024860954 #
coedge $-1 -1 -1 $-1 $18 $17 $42 $45 forward $7 $-1 #
edge $-1 -1 -1 $-1 $35 0.0043149717975139064 $43 0.0045818865128927017 $17 $46 forward @7 unknown T -0.76256313292353206 -4.2374368670764699 4.9181134871073002 -0.76256313292353206 -4.2374368670764699 5.1850282024860954 #
coedge $-1 -1 -1 $-1 $24 $24 $18 $31 forward $14 $-1 #
edge $-1 -1 -1 $-1 $34 0.0043149717975139064 $47 0.0045818865128927017 $30 $48 forward @7 unknown T -3.2374368670764722 -4.2374368670764699 4.9181134871073002 -3.2374368670764722 -4.2374368670764699 5.1850282024860954 #
coedge $-1 -1 -1 $-1 $42 $19 $24 $41 reversed $33 $-1 #
loop $-1 -1 -1 $-1 $49 $26 $50 T -3.2374368670764722 -4.2374368670764717 4.9181134871073002 -0.76256313292353206 -4.2265708447967016 5.1850282024860954 unknown #
vertex $-1 -1 -1 $-1 $41 $51 #
vertex $-1 -1 -1 $-1 $20 $52 #
straight-curve $-1 -1 -1 $-1 -0.49999999999999917 -4.2374368670764699 5.1850282024860954 -1000 -0 0 F 0.00026256313292353291 F 0.0027374368670764729 #
face $-1 -1 -1 $-1 $53 $54 $4 $-1 $55 forward single T -4 0.99999999999999889 7.6712857384758353 0 0.99999999999999933 10.000000000000002 F #
loop $-1 -1 -1 $-1 $-1 $56 $21 T -4 -1.0000000000000004 7.6712857384758264 0 -0.99999999999999922 10.000000000000002 unknown #
plane-surface $-1 -1 -1 $-1 0 -1.0000000000000007 7.1500000000000021 -2.1684043449710086e-16 -1 1.2246467991473532e-16 -1 2.1684043449710086e-16 -2.6555294403259592e-32 forward_v I I I I #
coedge $-1 -1 -1 $-1 $57 $58 $59 $60 forward $22 $-1 #
edge $-1 -1 -1 $-1 $47 -1.7332767892222212 $34 -1.4083158643675711 $24 $61 reversed @7 unknown T -3.2374368670764722 -4.2374368670764717 4.9181134871073002 -3.2374368670764722 -4.2265708447967016 5.1850282024860954 #
coedge $-1 -1 -1 $-1 $26 $32 $28 $45 reversed $33 $-1 #
vertex $-1 -1 -1 $-1 $27 $62 #
ellipse-curve $-1 -1 -1 $-1 -0.76256313292353206 -5.0515708447967 5.0515708447966974 1 0 -0 -0 0 -0.82499999999999862 1 F 1.4083158643675722 F 1.7332767892222221 #
edge $-1 -1 -1 $-1 $43 0.00026256313292353291 $47 0.0027374368670764729 $28 $63 forward @7 unknown T -3.2374368670764722 -4.2374368670764699 4.9181134871073002 -0.76256313292353206 -4.2374368670764699 4.9181134871073002 #
straight-curve $-1 -1 -1 $-1 -0.76256313292353206 -4.2374368670764699 9.5000000000000018 0 0 -1000 F 0.0043149717975139064 F 0.0045818865128927017 #
vertex $-1 -1 -1 $-1 $31 $64 #
straight-curve $-1 -1 -1 $-1 -3.2374368670764722 -4.2374368670764699 9.5000000000000018 0 0 -1000 F 0.0043149717975139064 F 0.0045818865128927017 #
loop $-1 -1 -1 $-1 $-1 $65 $50 T -4 -5.0515708447967 4.2265708447966981 -0.70000000000000218 -4.2265708447967008 5.8765708447966967 unknown #
face $-1 -1 -1 $-1 $66 $33 $4 $-1 $67 forward single T -4 -5.0515708447967 4.2265708447966981 -0.70000000000000218 -4.2265708447967008 5.8765708447966967 F #
point $-1 -1 -1 $-1 -3.2374368670764722 -4.2374368670764699 5.1850282024860954 #
point $-1 -1 -1 $-1 -0.76256313292353206 -4.2374368670764699 5.1850282024860954 #
face $-1 -1 -1 $-1 $68 $69 $4 $-1 $70 forward single T -4 -1.1304999999999998 -10.000000000000002 -4 1.1304999999999998 -6.0134999999999748 F #
loop $-1 -1 -1 $-1 $-1 $71 $37 T -4 0.99999999999999889 7.6712857384758353 0 0.99999999999999933 10.000000000000002 unknown #
plane-surface $-1 -1 -1 $-1 0 0.99999999999999889 7.1500000000000021 0 1 -1.2246467991473532e-16 0 1.2246467991473532e-16 1 forward_v I I I I #
coedge $-1 -1 -1 $-1 $72 $73 $57 $74 reversed $38 $-1 #
coedge $-1 -1 -1 $-1 $75 $40 $56 $74 forward $22 $-1 #
coedge $-1 -1 -1 $-1 $40 $75 $76 $77 forward $22 $-1 #
coedge $-1 -1 -1 $-1 $78 $79 $40 $60 reversed $80 $-1 #
edge $-1 -1 -1 $-1 $81 -0.0027454915028125261 $82 -0.00074549150281252733 $40 $83 forward @7 unknown T -4 -0.99999999999999933 10.000000000000002 -4 0.99999999999999956 10.000000000000002 #
ellipse-curve $-1 -1 -1 $-1 -3.2374368670764722 -5.0515708447967 5.0515708447966974 -1 0 0 0 0 0.82499999999999862 1 F 1.4083158643675711 F 1.7332767892222212 #
point $-1 -1 -1 $-1 -0.76256313292353206 -4.2374368670764699 4.9181134871073002 #
straight-curve $-1 -1 -1 $-1 -0.49999999999999917 -4.2374368670764699 4.9181134871073002 -1000 -0 0 F 0.00026256313292353291 F 0.0027374368670764729 #
point $-1 -1 -1 $-1 -3.2374368670764722 -4.2374368670764699 4.9181134871073002 #
coedge $-1 -1 -1 $-1 $84 $85 $86 $87 forward $49 $-1 #
face $-1 -1 -1 $-1 $88 $89 $4 $-1 $90 forward single T -1.1999999999999986 -7.1440000000000028 -1.599999999999999 -0.49999999999999917 -5.5440000000000005 1.6000000000000039 F #
cone-surface $-1 -1 -1 $-1 -0.49999999999999917 -5.0515708447967 5.0515708447966974 1 -0 -0 0 1.0103336092965647e-16 0.82499999999999862 1 I I -0 1 0.82499999999999862 forward I I I I #
face $-1 -1 -1 $-1 $91 $92 $4 $-1 $93 forward single T -4 4.2715708447966962 4.2715708447966971 -0.69999999999999929 5.0515708447966965 5.8315708447966976 F #
loop $-1 -1 -1 $-1 $-1 $94 $53 T -4 -1.1304999999999998 -10.000000000000002 -4 1.1304999999999998 -6.0134999999999748 unknown #
plane-surface $-1 -1 -1 $-1 -4 -2.9409830056250508 -6.700000000000002 -1 0 0 0 0 1 forward_v I I I I #
coedge $-1 -1 -1 $-1 $76 $95 $78 $96 forward $54 $-1 #
coedge $-1 -1 -1 $-1 $97 $56 $79 $98 reversed $38 $-1 #
coedge $-1 -1 -1 $-1 $56 $99 $100 $101 reversed $38 $-1 #
edge $-1 -1 -1 $-1 $82 -0.002875 $102 0.0011249999999999999 $57 $103 forward @7 unknown T -4 -1.0000000000000002 10.000000000000002 0 -0.99999999999999933 10.000000000000002 #
coedge $-1 -1 -1 $-1 $58 $57 $104 $105 forward $22 $-1 #
coedge $-1 -1 -1 $-1 $106 $71 $58 $77 reversed $54 $-1 #
edge $-1 -1 -1 $-1 $107 -0.0011249999999999999 $81 0.002875 $58 $108 forward @7 unknown T -4 0.99999999999999933 10.000000000000002 0 0.99999999999999933 10.000000000000002 #
coedge $-1 -1 -1 $-1 $109 $59 $71 $96 reversed $80 $-1 #
coedge $-1 -1 -1 $-1 $59 $109 $72 $98 forward $80 $-1 #
loop $-1 -1 -1 $-1 $-1 $79 $110 T -4 -1.1304999999999981 6.0135000000000032 -4 1.1305000000000007 10.000000000000002 unknown #
vertex $-1 -1 -1 $-1 $96 $111 #
vertex $-1 -1 -1 $-1 $98 $112 #
straight-curve $-1 -1 -1 $-1 -4 -1.7454915028125266 10.000000000000002 0 -1000 0 F -0.0027454915028125261 F -0.00074549150281252733 #
coedge $-1 -1 -1 $-1 $113 $65 $114 $115 forward $49 $-1 #
coedge $-1 -1 -1 $-1 $65 $113 $116 $117 reversed $49 $-1 #
coedge $-1 -1 -1 $-1 $118 $118 $65 $87 reversed $119 $-1 #
edge $-1 -1 -1 $-1 $120 3.1415926535897931 $121 6.2831853071795862 $65 $122 forward @7 unknown T -4 -5.0515708447967 4.226570844796699 -4 -4.2265708447967016 5.8765708447966967 #
face $-1 -1 -1 $-1 $123 $124 $4 $-1 $125 forward single T -4 -5.8765708447966993 4.2265708447966981 -0.70000000000000218 -5.0515708447967 5.8765708447966967 F #
loop $-1 -1 -1 $-1 $-1 $126 $66 T -1.1999999999999986 -7.1440000000000028 -1.599999999999999 -0.49999999999999917 -5.5440000000000005 1.6000000000000039 unknown #
cone-surface $-1 -1 -1 $-1 -0.49999999999999917 -7.1440000000000019 2.7755575615628917e-15 1 -0 -0 0 1.9594348786357662e-16 1.600000000000001 1 I I -0 1 1.600000000000001 forward I I I I #
face $-1 -1 -1 $-1 $127 $128 $4 $-1 $129 forward single T -4.5000000000000009 6.0135000000000005 -1.1305000000000012 -1.1999999999999986 7.1440000000000019 1.1304999999999998 F #
loop $-1 -1 -1 $-1 $-1 $130 $68 T -4 4.2715708447966962 4.2715708447966971 -0.69999999999999929 5.0515708447966965 5.8315708447966976 unknown #
cone-surface $-1 -1 -1 $-1 -0.49999999999999917 5.0515708447966965 5.0515708447966974 1 -0 -0 0 9.5522450333493597e-17 0.78000000000000058 1 I I -0 1 0.78000000000000058 forward I I I I #
coedge $-1 -1 -1 $-1 $131 $132 $133 $134 forward $69 $-1 #
coedge $-1 -1 -1 $-1 $71 $135 $136 $137 forward $54 $-1 #
edge $-1 -1 -1 $-1 $138 0.00052128573847583324 $81 0.0028500000000000001 $71 $139 forward @7 unknown T -4 0.99999999999999889 7.6712857384758353 -4 0.99999999999999933 10.000000000000002 #
coedge $-1 -1 -1 $-1 $140 $72 $141 $142 forward $38 $-1 #
edge $-1 -1 -1 $-1 $143 0.0005212857384758263 $82 0.0028500000000000001 $79 $144 forward @7 unknown T -4 -0.99999999999999956 7.6712857384758282 -4 -0.99999999999999922 10.000000000000002 #
coedge $-1 -1 -1 $-1 $73 $145 $146 $147 reversed $38 $-1 #
coedge $-1 -1 -1 $-1 $148 $104 $73 $101 forward $149 $-1 #
edge $-1 -1 -1 $-1 $102 -0.0039250000000000005 $150 -0.0033722218138455698 $100 $151 forward @7 unknown T 0 -1.0000000000000004 9.4472218138455712 0 -1.0000000000000002 10.000000000000002 #
vertex $-1 -1 -1 $-1 $74 $152 #
straight-curve $-1 -1 -1 $-1 -1.125 -1 10.000000000000002 1000 -2.1684043449710084e-13 0 F -0.002875 F 0.0011249999999999999 #
coedge $-1 -1 -1 $-1 $100 $153 $75 $105 reversed $149 $-1 #
edge $-1 -1 -1 $-1 $102 -0.0004499999999999976 $107 0.0015500000000000019 $75 $154 forward @7 unknown T 0 -1.0000000000000002 10.000000000000002 0 0.99999999999999933 10.000000000000002 #
coedge $-1 -1 -1 $-1 $155 $76 $153 $156 reversed $54 $-1 #
vertex $-1 -1 -1 $-1 $156 $157 #
straight-curve $-1 -1 -1 $-1 -1.125 0.99999999999999933 10.000000000000002 -1000 0 0 F -0.0011249999999999999 F 0.002875 #
coedge $-1 -1 -1 $-1 $79 $78 $158 $159 reversed $80 $-1 #
face $-1 -1 -1 $-1 $160 $80 $4 $-1 $161 forward single T -4 -1.1304999999999981 6.0135000000000032 -4 1.1305000000000007 10.000000000000002 F #
point $-1 -1 -1 $-1 -4 0.99999999999999933 10.000000000000002 #
point $-1 -1 -1 $-1 -4 -0.99999999999999933 10.000000000000002 #
coedge $-1 -1 -1 $-1 $85 $84 $162 $163 reversed $49 $-1 #
coedge $-1 -1 -1 $-1 $164 $165 $84 $115 reversed $124 $-1 #
edge $-1 -1 -1 $-1 $121 -0.0035000000000000009 $166 -0.00020000000000000302 $84 $167 forward @7 unknown T -4 -5.0515708447967 5.8765708447966967 -0.70000000000000218 -5.0515708447967 5.8765708447966967 #
coedge $-1 -1 -1 $-1 $165 $164 $85 $117 forward $124 $-1 #
edge $-1 -1 -1 $-1 $120 -0.0035000000000000009 $168 -0.00020000000000000302 $116 $169 forward @7 unknown T -4 -5.0515708447967 4.2265708447966981 -0.70000000000000218 -5.0515708447967 4.226570844796699 #
coedge $-1 -1 -1 $-1 $86 $86 $164 $170 reversed $119 $-1 #
loop $-1 -1 -1 $-1 $-1 $86 $171 T -4 -5.8765708447966984 4.226570844796699 -4 -4.2265708447967016 5.8765708447966967 unknown #
vertex $-1 -1 -1 $-1 $117 $172 #
vertex $-1 -1 -1 $-1 $115 $173 #
ellipse-curve $-1 -1 -1 $-1 -4 -5.0515708447967 5.0515708447966974 1 0 -0 0 1.0103336092965647e-16 0.82499999999999862 1 F 3.1415926535897931 F 6.2831853071795862 #
face $-1 -1 -1 $-1 $174 $175 $4 $-1 $176 forward single T -4 4.2265708447966812 -5.8765708447966869 -4 5.8765708447966585 -4.226570844796707 F #
loop $-1 -1 -1 $-1 $-1 $116 $88 T -4 -5.8765708447966993 4.2265708447966981 -0.70000000000000218 -5.0515708447967 5.8765708447966967 unknown #
cone-surface $-1 -1 -1 $-1 -0.49999999999999917 -5.0515708447967 5.0515708447966974 1 -0 -0 0 1.0103336092965647e-16 0.82499999999999862 1 I I -0 1 0.82499999999999862 forward I I I I #
coedge $-1 -1 -1 $-1 $177 $178 $179 $180 reversed $89 $-1 #
face $-1 -1 -1 $-1 $181 $182 $4 $-1 $183 forward single T -4 -5.8315708447967056 -5.8315708447966648 -0.70000000000000362 -5.0515708447967045 -4.2715708447966607 F #
loop $-1 -1 -1 $-1 $-1 $184 $91 T -4.5000000000000009 6.0135000000000005 -1.1305000000000012 -1.1999999999999986 7.1440000000000019 1.1304999999999998 unknown #
cone-surface $-1 -1 -1 $-1 -0.49999999999999917 7.1440000000000019 0 1 -0 -0 0 1.3844632064360825e-16 1.1304999999999998 1 I I -0 1 1.1304999999999998 forward I I I I #
coedge $-1 -1 -1 $-1 $185 $186 $187 $188 forward $92 $-1 #
coedge $-1 -1 -1 $-1 $189 $94 $190 $191 reversed $69 $-1 #
coedge $-1 -1 -1 $-1 $94 $189 $192 $193 reversed $69 $-1 #
coedge $-1 -1 -1 $-1 $194 $195 $94 $134 reversed $196 $-1 #
edge $-1 -1 -1 $-1 $197 0.00052128573847580462 $198 0.0028500000000000027 $94 $199 forward @7 unknown T -4 1.0000000000000002 -10.000000000000002 -4 1.0000000000000002 -7.6712857384758042 #
coedge $-1 -1 -1 $-1 $95 $200 $201 $202 forward $54 $-1 #
coedge $-1 -1 -1 $-1 $203 $158 $95 $137 reversed $204 $-1 #
edge $-1 -1 -1 $-1 $205 0.00069999999999999945 $138 0.0035000000000000009 $95 $206 forward @7 unknown T -4 0.99999999999999889 7.6712857384758353 -1.1999999999999986 0.99999999999999911 7.6712857384758353 #
vertex $-1 -1 -1 $-1 $137 $207 #
straight-curve $-1 -1 -1 $-1 -4 0.99999999999999889 7.1500000000000021 0 1.2246467991473532e-13 1000 F 0.00052128573847583324 F 0.0028500000000000001 #
coedge $-1 -1 -1 $-1 $208 $97 $209 $210 forward $38 $-1 #
coedge $-1 -1 -1 $-1 $158 $203 $97 $142 reversed $204 $-1 #
edge $-1 -1 -1 $-1 $143 -0.0035000000000000009 $211 -0.00069999999999999945 $97 $212 forward @7 unknown T -4 -1.0000000000000002 7.6712857384758264 -1.1999999999999986 -0.99999999999999956 7.6712857384758282 #
vertex $-1 -1 -1 $-1 $142 $213 #
straight-curve $-1 -1 -1 $-1 -4 -0.99999999999999956 7.1500000000000021 0 1.2246467991473532e-13 1000 F 0.0005212857384758263 F 0.0028500000000000001 #
coedge $-1 -1 -1 $-1 $99 $208 $214 $215 reversed $38 $-1 #
coedge $-1 -1 -1 $-1 $216 $217 $99 $147 forward $218 $-1 #
edge $-1 -1 -1 $-1 $150 -0.00049999999999999914 $219 0 $146 $220 forward @7 unknown T -0.49999999999999917 -1.0000000000000002 9.4472218138455712 0 -1 9.4472218138455712 #
coedge $-1 -1 -1 $-1 $221 $100 $217 $222 forward $149 $-1 #
loop $-1 -1 -1 $-1 $-1 $148 $223 T -1.5804614774937974e-15 -9.5000000000000018 -10.000000000000002 1.5804614774937974e-15 9.5000000000000018 10.000000000000002 unknown #
vertex $-1 -1 -1 $-1 $101 $224 #
straight-curve $-1 -1 -1 $-1 0 -1.0000000000000009 6.0750000000000011 -0 -1.2246467991473532e-13 -1000 F -0.0039250000000000005 F -0.0033722218138455698 #
point $-1 -1 -1 $-1 0 -1.0000000000000002 10.000000000000002 #
coedge $-1 -1 -1 $-1 $104 $225 $106 $156 forward $149 $-1 #
straight-curve $-1 -1 -1 $-1 0 -0.5500000000000026 10.000000000000002 0 1000 0 F -0.0004499999999999976 F 0.0015500000000000019 #
coedge $-1 -1 -1 $-1 $226 $106 $227 $228 reversed $54 $-1 #
edge $-1 -1 -1 $-1 $229 0.0033722218138455698 $107 0.0039250000000000005 $153 $230 forward @7 unknown T 0 0.99999999999999911 9.4472218138455712 0 0.99999999999999933 10.000000000000002 #
point $-1 -1 -1 $-1 0 0.99999999999999933 10.000000000000002 #
coedge $-1 -1 -1 $-1 $136 $141 $109 $159 forward $204 $-1 #
edge $-1 -1 -1 $-1 $143 1.0855591535037918 $138 5.1976261536758015 $158 $231 forward @7 unknown T -4 -1.1304999999999981 6.0135000000000032 -4 1.1305000000000007 7.6712857384758353 #
face $-1 -1 -1 $-1 $232 $233 $4 $-1 $234 forward single T -0.50000000000000067 0.99999999999999722 -9.4472218138455961 1.5804614774937974e-15 9.5000000000000018 9.4472218138455943 F #
plane-surface $-1 -1 -1 $-1 -4 -2.9409830056250508 6.8500000000000023 -1 0 0 0 0 1 forward_v I I I I #
coedge $-1 -1 -1 $-1 $235 $236 $113 $163 forward $237 $-1 #
edge $-1 -1 -1 $-1 $168 3.1415926535897931 $166 6.2831853071795862 $162 $238 forward @7 unknown T -0.70000000000000218 -5.0515708447967 4.2265708447966981 -0.70000000000000218 -4.2265708447967008 5.8765708447966967 #
coedge $-1 -1 -1 $-1 $116 $114 $118 $170 forward $124 $-1 #
coedge $-1 -1 -1 $-1 $114 $116 $239 $240 reversed $124 $-1 #
vertex $-1 -1 -1 $-1 $240 $241 #
straight-curve $-1 -1 -1 $-1 -0.49999999999999917 -5.0515708447967 5.8765708447966967 1000 0 0 F -0.0035000000000000009 F -0.00020000000000000302 #
vertex $-1 -1 -1 $-1 $240 $242 #
straight-curve $-1 -1 -1 $-1 -0.49999999999999917 -5.0515708447967 4.226570844796699 1000 0 0 F -0.0035000000000000009 F -0.00020000000000000302 #
edge $-1 -1 -1 $-1 $121 1.2246467991473532e-16 $120 3.1415926535897931 $164 $243 forward @7 unknown T -4 -5.8765708447966984 4.226570844796699 -4 -5.0515708447967 5.8765708447966967 #
face $-1 -1 -1 $-1 $244 $119 $4 $-1 $245 forward single T -4 -5.8765708447966984 4.226570844796699 -4 -4.2265708447967016 5.8765708447966967 F #
point $-1 -1 -1 $-1 -4 -5.0515708447967 4.226570844796699 #
point $-1 -1 -1 $-1 -4 -5.0515708447967 5.8765708447966967 #
face $-1 -1 -1 $-1 $246 $247 $4 $-1 $248 forward single T -0.6999999999999994 4.0715708447966943 4.0715708447966952 -0.49999999999999634 5.0515708447966965 6.0315708447966996 F #
loop $-1 -1 -1 $-1 $-1 $249 $123 T -4 4.2265708447966812 -5.8765708447966869 -4 5.8765708447966585 -4.226570844796707 unknown #
plane-surface $-1 -1 -1 $-1 -4 -2.9409830056250508 -6.700000000000002 -1 0 0 0 0 1 forward_v I I I I #
coedge $-1 -1 -1 $-1 $250 $126 $251 $252 reversed $89 $-1 #
coedge $-1 -1 -1 $-1 $126 $250 $253 $254 forward $89 $-1 #
coedge $-1 -1 -1 $-1 $255 $255 $126 $180 forward $256 $-1 #
edge $-1 -1 -1 $-1 $257 3.1415926535897927 $258 6.2831853071795862 $179 $259 forward @7 unknown T -0.49999999999999917 -7.1440000000000028 -1.599999999999999 -0.49999999999999917 -5.5440000000000005 1.6000000000000039 #
face $-1 -1 -1 $-1 $260 $237 $4 $-1 $261 forward single T -0.70000000000000218 -5.0515708447967 4.026570844796697 -0.49999999999999917 -4.0265708447966997 6.0765708447966977 F #
loop $-1 -1 -1 $-1 $-1 $262 $127 T -4 -5.8315708447967056 -5.8315708447966648 -0.70000000000000362 -5.0515708447967045 -4.2715708447966607 unknown #
cone-surface $-1 -1 -1 $-1 -0.49999999999999917 -5.0515708447967045 -5.0515708447966619 1 0 0 0 0 -0.78000000000000058 1 I I -0 1 0.78000000000000058 forward I I I I #
coedge $-1 -1 -1 $-1 $263 $264 $265 $266 reversed $128 $-1 #
coedge $-1 -1 -1 $-1 $267 $130 $268 $269 reversed $92 $-1 #
coedge $-1 -1 -1 $-1 $130 $267 $270 $271 forward $92 $-1 #
coedge $-1 -1 -1 $-1 $272 $273 $130 $188 reversed $274 $-1 #
edge $-1 -1 -1 $-1 $275 -0.0035000000000000009 $276 -0.0002000000000000002 $130 $277 forward @7 unknown T -4 5.0515708447966965 4.2715708447966971 -0.69999999999999929 5.0515708447966965 4.2715708447966971 #
coedge $-1 -1 -1 $-1 $132 $131 $278 $279 reversed $69 $-1 #
coedge $-1 -1 -1 $-1 $280 $281 $131 $191 forward $282 $-1 #
edge $-1 -1 -1 $-1 $283 0.00074549150281252538 $198 0.0027454915028125261 $190 $284 forward @7 unknown T -4 -1.0000000000000002 -10.000000000000002 -4 1.0000000000000007 -10.000000000000002 #
coedge $-1 -1 -1 $-1 $285 $286 $132 $193 forward $287 $-1 #
edge $-1 -1 -1 $-1 $197 1.0855591535037881 $288 5.1976261536757979 $192 $289 forward @7 unknown T -4 -1.1304999999999998 -7.6712857384758042 -4 1.1304999999999998 -6.0134999999999748 #
coedge $-1 -1 -1 $-1 $290 $133 $286 $291 forward $196 $-1 #
coedge $-1 -1 -1 $-1 $133 $292 $280 $293 reversed $196 $-1 #
loop $-1 -1 -1 $-1 $-1 $294 $295 T -4 1 -10.000000000000002 0 1.0000000000000002 -7.6712857384758042 unknown #
vertex $-1 -1 -1 $-1 $193 $296 #
vertex $-1 -1 -1 $-1 $134 $297 #
straight-curve $-1 -1 -1 $-1 -4 1.0000000000000002 -7.1499999999999995 -0 -0 -1000 F 0.00052128573847580462 F 0.0028500000000000027 #
coedge $-1 -1 -1 $-1 $135 $226 $298 $299 forward $54 $-1 #
coedge $-1 -1 -1 $-1 $300 $301 $135 $202 reversed $302 $-1 #
edge $-1 -1 -1 $-1 $303 -0.0012489995996796815 $205 -0.0005272857384758323 $135 $304 forward @7 unknown T -1.1999999999999986 0.99999999999999911 7.6712857384758353 -1.1999999999999986 0.99999999999999922 8.3929995996796851 #
coedge $-1 -1 -1 $-1 $141 $136 $301 $305 reversed $204 $-1 #
loop $-1 -1 -1 $-1 $-1 $158 $306 T -4 -1.1304999999999983 6.0135000000000032 -1.1999999999999986 1.1305000000000009 7.6712857384758353 unknown #
vertex $-1 -1 -1 $-1 $202 $307 #
straight-curve $-1 -1 -1 $-1 -0.49999999999999917 0.99999999999999889 7.6712857384758353 -1000 0 0 F 0.00069999999999999945 F 0.0035000000000000009 #
point $-1 -1 -1 $-1 -4 0.99999999999999889 7.6712857384758353 #
coedge $-1 -1 -1 $-1 $145 $140 $308 $309 forward $38 $-1 #
coedge $-1 -1 -1 $-1 $301 $300 $140 $210 reversed $302 $-1 #
edge $-1 -1 -1 $-1 $211 0.00052728573847582536 $310 0.0012489995996796798 $140 $311 forward @7 unknown T -1.1999999999999986 -1.0000000000000004 7.6712857384758282 -1.1999999999999986 -1.0000000000000002 8.3929995996796833 #
vertex $-1 -1 -1 $-1 $210 $312 #
straight-curve $-1 -1 -1 $-1 -0.49999999999999917 -1.0000000000000002 7.6712857384758264 1000 0 0 F -0.0035000000000000009 F -0.00069999999999999945 #
point $-1 -1 -1 $-1 -4 -0.99999999999999956 7.6712857384758282 #
coedge $-1 -1 -1 $-1 $313 $314 $145 $215 forward $315 $-1 #
edge $-1 -1 -1 $-1 $219 -0.0094472218138455712 $316 -0.0083929995996796826 $214 $317 forward @7 unknown T -0.49999999999999917 -1.0000000000000002 8.3929995996796833 -0.49999999999999917 -1 9.4472218138455712 #
coedge $-1 -1 -1 $-1 $318 $146 $314 $319 reversed $218 $-1 #
coedge $-1 -1 -1 $-1 $146 $318 $148 $222 reversed $218 $-1 #
loop $-1 -1 -1 $-1 $-1 $318 $320 T -0.50000000000000078 -9.5000000000000018 -9.4472218138455961 1.4579967975790618e-15 -1 9.4472218138455943 unknown #
vertex $-1 -1 -1 $-1 $215 $321 #
straight-curve $-1 -1 -1 $-1 -0.49999999999999917 -1 9.4472218138455712 -1000 0 0 F -0.00049999999999999914 F 0 #
coedge $-1 -1 -1 $-1 $322 $148 $323 $324 forward $149 $-1 #
edge $-1 -1 -1 $-1 $150 1.6762548521942144 $325 4.6069304549853713 $148 $326 forward @7 unknown T -1.5804614774937974e-15 -9.5000000000000018 -9.4472218138455961 1.4579967975790618e-15 -1.0000000000000002 9.4472218138455943 #
face $-1 -1 -1 $-1 $110 $327 $4 $-1 $328 reversed single T -1.5804614774937974e-15 -9.5000000000000018 -10.000000000000002 1.5804614774937974e-15 9.5000000000000018 10.000000000000002 F #
point $-1 -1 -1 $-1 0 -1.0000000000000002 9.4472218138455712 #
coedge $-1 -1 -1 $-1 $153 $329 $330 $331 forward $149 $-1 #
coedge $-1 -1 -1 $-1 $200 $155 $332 $333 reversed $54 $-1 #
coedge $-1 -1 -1 $-1 $330 $334 $155 $228 forward $233 $-1 #
edge $-1 -1 -1 $-1 $335 0 $229 0.00049999999999999914 $227 $336 forward @7 unknown T -0.49999999999999917 0.99999999999999911 9.4472218138455712 0 0.99999999999999911 9.4472218138455712 #
vertex $-1 -1 -1 $-1 $156 $337 #
straight-curve $-1 -1 -1 $-1 0 0.99999999999999867 6.0750000000000011 0 1.2246467991473532e-13 1000 F 0.0033722218138455698 F 0.0039250000000000005 #
ellipse-curve $-1 -1 -1 $-1 -4 1.3849643501403233e-15 7.1440000000000028 1 0 -0 0 1.3844632064360818e-16 1.1304999999999994 1 F 1.0855591535037918 F 5.1976261536758015 #
face $-1 -1 -1 $-1 $338 $339 $4 $-1 $340 forward single T -1.1999999999999986 -8.7440000000000033 -1.5999999999999992 -0.49999999999999917 -7.1440000000000019 1.6000000000000039 F #
loop $-1 -1 -1 $-1 $-1 $341 $160 T -0.50000000000000067 0.99999999999999722 -9.4472218138455961 1.5804614774937974e-15 9.5000000000000018 9.4472218138455943 unknown #
cone-surface $-1 -1 -1 $-1 -0.24999999999999886 0 0 1 -6.1232339957367673e-17 -1.6081226496766366e-16 5.8170722959499324e-16 9.5000000000000018 2.1094237467877978e-15 1 I I -0 1 9.5000000000000018 forward I I I I #
coedge $-1 -1 -1 $-1 $342 $162 $343 $344 forward $237 $-1 #
coedge $-1 -1 -1 $-1 $162 $342 $345 $346 reversed $237 $-1 #
loop $-1 -1 -1 $-1 $-1 $162 $181 T -0.70000000000000218 -5.0515708447967 4.026570844796697 -0.49999999999999917 -4.0265708447966997 6.0765708447966977 periphery $261 F #
ellipse-curve $-1 -1 -1 $-1 -0.70000000000000218 -5.0515708447967 5.0515708447966974 1 0 -0 0 1.0103336092965656e-16 0.8249999999999994 1 F 3.1415926535897931 F 6.2831853071795862 #
coedge $-1 -1 -1 $-1 $345 $343 $165 $240 forward $347 $-1 #
edge $-1 -1 -1 $-1 $166 1.2246467991473532e-16 $168 3.1415926535897931 $239 $348 forward @7 unknown T -0.70000000000000218 -5.8765708447966993 4.2265708447966981 -0.70000000000000218 -5.0515708447967 5.8765708447966967 #
point $-1 -1 -1 $-1 -0.70000000000000218 -5.0515708447967 5.8765708447966967 #
point $-1 -1 -1 $-1 -0.70000000000000218 -5.0515708447967 4.2265708447966981 #
ellipse-curve $-1 -1 -1 $-1 -4 -5.0515708447967 5.0515708447966974 1 0 -0 0 1.0103336092965647e-16 0.82499999999999862 1 F 1.2246467991473532e-16 F 3.1415926535897931 #
face $-1 -1 -1 $-1 $349 $350 $4 $-1 $351 forward single T -4.5000000000000009 7.1440000000000001 -1.1305000000000012 -1.1999999999999986 8.2745000000000015 1.1304999999999998 F #
plane-surface $-1 -1 -1 $-1 -4 -2.9409830056250508 6.8500000000000023 -1 0 0 0 0 1 forward_v I I I I #
face $-1 -1 -1 $-1 $352 $274 $4 $-1 $353 forward single T -4 5.0515708447966965 4.2715708447966971 -0.69999999999999929 5.8315708447966967 5.8315708447966976 F #
loop $-1 -1 -1 $-1 $-1 $354 $174 T -0.6999999999999994 4.0715708447966943 4.0715708447966952 -0.49999999999999634 5.0515708447966965 6.0315708447966996 periphery $248 F #
cone-surface $-1 -1 -1 $-1 -0.49999999999999634 5.0515708447966965 5.0515708447966974 -1 0 0 0 1.2001538631644087e-16 0.98000000000000187 1 I I -0.70710678118654602 0.70710678118654902 0.98000000000000187 forward I I I I #
coedge $-1 -1 -1 $-1 $355 $355 $356 $357 reversed $175 $-1 #
coedge $-1 -1 -1 $-1 $178 $177 $358 $359 forward $89 $-1 #
coedge $-1 -1 -1 $-1 $360 $361 $177 $252 forward $339 $-1 #
edge $-1 -1 -1 $-1 $362 -0.00069999999999999945 $257 0 $251 $363 forward @7 unknown T -1.1999999999999986 -7.1440000000000028 -1.599999999999999 -0.49999999999999917 -7.1440000000000028 -1.599999999999999 #
coedge $-1 -1 -1 $-1 $361 $360 $178 $254 reversed $339 $-1 #
edge $-1 -1 -1 $-1 $364 -0.00069999999999999945 $258 0 $178 $365 forward @7 unknown T -1.1999999999999986 -7.1440000000000019 1.6000000000000019 -0.49999999999999917 -7.1440000000000019 1.6000000000000019 #
coedge $-1 -1 -1 $-1 $179 $179 $360 $366 reversed $256 $-1 #
loop $-1 -1 -1 $-1 $367 $179 $368 T -0.49999999999999917 -8.7440000000000015 -1.5999999999999992 -0.49999999999999917 -5.5440000000000005 1.6000000000000039 unknown #
vertex $-1 -1 -1 $-1 $252 $369 #
vertex $-1 -1 -1 $-1 $254 $370 #
ellipse-curve $-1 -1 -1 $-1 -0.49999999999999917 -7.1440000000000019 2.7755575615628917e-15 1 0 -0 0 1.9594348786357662e-16 1.600000000000001 1 F 3.1415926535897927 F 6.2831853071795862 #
face $-1 -1 -1 $-1 $371 $372 $4 $-1 $373 reversed single T -4.5000000000000009 6.0135000000000005 -1.1305000000000012 -4.5000000000000009 8.2745000000000015 1.1304999999999998 F #
cone-surface $-1 -1 -1 $-1 -0.49999999999999917 -5.0515708447967 5.0515708447966974 -1 0 0 0 1.2552629691260371e-16 1.0250000000000001 1 I I -0.70710678118654446 0.70710678118655057 1.0250000000000001 forward I I I I #
coedge $-1 -1 -1 $-1 $374 $375 $376 $377 forward $182 $-1 #
coedge $-1 -1 -1 $-1 $378 $184 $379 $380 forward $128 $-1 #
coedge $-1 -1 -1 $-1 $184 $378 $381 $382 reversed $128 $-1 #
coedge $-1 -1 -1 $-1 $383 $383 $184 $266 forward $372 $-1 #
edge $-1 -1 -1 $-1 $384 0 $385 3.1415926535897944 $265 $386 forward @7 unknown T -4.5000000000000009 6.0135000000000005 -1.1305000000000012 -4.5000000000000009 7.1440000000000019 1.1304999999999985 #
coedge $-1 -1 -1 $-1 $186 $185 $387 $388 reversed $92 $-1 #
coedge $-1 -1 -1 $-1 $354 $389 $185 $269 forward $247 $-1 #
edge $-1 -1 -1 $-1 $390 1.2246467991473532e-16 $276 3.1415926535897931 $268 $391 forward @7 unknown T -0.69999999999999929 4.2715708447966962 4.2715708447966971 -0.69999999999999929 5.0515708447966965 5.8315708447966976 #
coedge $-1 -1 -1 $-1 $392 $392 $186 $271 reversed $393 $-1 #
edge $-1 -1 -1 $-1 $394 1.2246467991473532e-16 $275 3.1415926535897931 $186 $395 forward @7 unknown T -4 4.2715708447966962 4.2715708447966971 -4 5.0515708447966965 5.8315708447966976 #
coedge $-1 -1 -1 $-1 $387 $187 $392 $396 forward $274 $-1 #
coedge $-1 -1 -1 $-1 $187 $387 $397 $398 reversed $274 $-1 #
loop $-1 -1 -1 $-1 $-1 $272 $246 T -4 5.0515708447966965 4.2715708447966971 -0.69999999999999929 5.8315708447966967 5.8315708447966976 unknown #
vertex $-1 -1 -1 $-1 $188 $399 #
vertex $-1 -1 -1 $-1 $269 $400 #
straight-curve $-1 -1 -1 $-1 -0.49999999999999917 5.0515708447966965 4.2715708447966971 1000 0 0 F -0.0035000000000000009 F -0.0002000000000000002 #
coedge $-1 -1 -1 $-1 $401 $402 $189 $279 forward $403 $-1 #
edge $-1 -1 -1 $-1 $288 0.00052128573847580462 $283 0.0028500000000000027 $278 $404 forward @7 unknown T -4 -1.0000000000000002 -10.000000000000002 -4 -1.0000000000000002 -7.6712857384758042 #
coedge $-1 -1 -1 $-1 $405 $190 $195 $293 forward $282 $-1 #
coedge $-1 -1 -1 $-1 $190 $405 $401 $406 forward $282 $-1 #
loop $-1 -1 -1 $-1 $-1 $280 $407 T -4 -1.0000000000000002 -10.000000000000002 0 1.0000000000000007 -10.000000000000002 unknown #
vertex $-1 -1 -1 $-1 $191 $408 #
straight-curve $-1 -1 -1 $-1 -4 -1.7454915028125255 -10.000000000000002 0 1000 0 F 0.00074549150281252538 F 0.0027454915028125261 #
coedge $-1 -1 -1 $-1 $409 $192 $402 $410 reversed $287 $-1 #
coedge $-1 -1 -1 $-1 $192 $409 $194 $291 reversed $287 $-1 #
loop $-1 -1 -1 $-1 $-1 $192 $352 T -4 -1.1304999999999998 -7.6712857384758042 -1.1999999999999986 1.1304999999999998 -6.0134999999999748 unknown #
vertex $-1 -1 -1 $-1 $193 $411 #
ellipse-curve $-1 -1 -1 $-1 -4 0 -7.1439999999999744 1 0 0 0 0 -1.1304999999999998 1 F 1.0855591535037881 F 5.1976261536757979 #
coedge $-1 -1 -1 $-1 $412 $194 $413 $414 forward $196 $-1 #
edge $-1 -1 -1 $-1 $197 -0.0035000000000000009 $415 -0.00069999999999999945 $194 $416 forward @7 unknown T -4 1.0000000000000002 -7.6712857384758042 -1.1999999999999986 1.0000000000000002 -7.6712857384758042 #
coedge $-1 -1 -1 $-1 $195 $417 $329 $418 forward $196 $-1 #
edge $-1 -1 -1 $-1 $198 -0.0037500000000000025 $419 0.00024999999999999751 $280 $420 forward @7 unknown T -4 1.0000000000000002 -10.000000000000002 0 1.0000000000000002 -10.000000000000002 #
coedge $-1 -1 -1 $-1 $417 $412 $421 $422 forward $196 $-1 #
face $-1 -1 -1 $-1 $423 $196 $4 $-1 $424 forward single T -4 1 -10.000000000000002 0 1.0000000000000002 -7.6712857384758042 F #
point $-1 -1 -1 $-1 -4 1.0000000000000002 -7.6712857384758042 #
point $-1 -1 -1 $-1 -4 1.0000000000000002 -10.000000000000002 #
coedge $-1 -1 -1 $-1 $425 $426 $200 $299 reversed $427 $-1 #
edge $-1 -1 -1 $-1 $428 0 $303 0.00069999999999999945 $200 $429 forward @7 unknown T -1.1999999999999986 0.99999999999999911 8.3929995996796851 -0.49999999999999917 0.99999999999999911 8.3929995996796851 #
coedge $-1 -1 -1 $-1 $209 $201 $426 $430 reversed $302 $-1 #
coedge $-1 -1 -1 $-1 $201 $209 $203 $305 forward $302 $-1 #
loop $-1 -1 -1 $-1 $-1 $301 $431 T -1.1999999999999986 -1.599999999999999 5.5440000000000023 -1.1999999999999986 1.6000000000000016 8.3929995996796851 unknown #
vertex $-1 -1 -1 $-1 $299 $432 #
straight-curve $-1 -1 -1 $-1 -1.1999999999999986 0.99999999999999911 7.1440000000000028 0 -1.2246467991473532e-13 -1000 F -0.0012489995996796815 F -0.0005272857384758323 #
edge $-1 -1 -1 $-1 $211 1.0855591535037921 $205 5.1976261536758015 $301 $433 forward @7 unknown T -1.1999999999999986 -1.1304999999999983 6.0135000000000032 -1.1999999999999986 1.1305000000000009 7.6712857384758353 #
face $-1 -1 -1 $-1 $434 $204 $4 $-1 $435 forward single T -4 -1.1304999999999983 6.0135000000000032 -1.1999999999999986 1.1305000000000009 7.6712857384758353 F #
point $-1 -1 -1 $-1 -1.1999999999999986 0.99999999999999911 7.6712857384758353 #
coedge $-1 -1 -1 $-1 $426 $425 $208 $309 reversed $427 $-1 #
edge $-1 -1 -1 $-1 $310 -0.00069999999999999945 $316 0 $208 $436 forward @7 unknown T -1.1999999999999986 -1.0000000000000002 8.3929995996796833 -0.49999999999999917 -1.0000000000000002 8.3929995996796833 #
vertex $-1 -1 -1 $-1 $309 $437 #
straight-curve $-1 -1 -1 $-1 -1.1999999999999986 -1.0000000000000004 7.1440000000000028 0 1.2246467991473532e-13 1000 F 0.00052728573847582536 F 0.0012489995996796798 #
point $-1 -1 -1 $-1 -1.1999999999999986 -1.0000000000000002 7.6712857384758282 #
coedge $-1 -1 -1 $-1 $332 $214 $425 $438 forward $315 $-1 #
coedge $-1 -1 -1 $-1 $214 $439 $216 $319 forward $315 $-1 #
loop $-1 -1 -1 $-1 $440 $214 $368 T -0.50000000000000078 -9.5000000000000018 -9.4472218138455961 -0.49999999999999634 9.5000000000000018 9.4472218138455943 unknown #
vertex $-1 -1 -1 $-1 $309 $441 #
straight-curve $-1 -1 -1 $-1 -0.49999999999999917 -1.0000000000000013 0 0 -1.2246467991473532e-13 -1000 F -0.0094472218138455712 F -0.0083929995996796826 #
coedge $-1 -1 -1 $-1 $217 $216 $442 $443 forward $218 $-1 #
edge $-1 -1 -1 $-1 $444 1.6762548521942147 $219 4.6069304549853722 $314 $445 forward @7 unknown T -0.50000000000000078 -9.5000000000000018 -9.4472218138455961 -0.49999999999999772 -1 9.4472218138455943 #
face $-1 -1 -1 $-1 $446 $218 $4 $-1 $447 forward single T -0.50000000000000078 -9.5000000000000018 -9.4472218138455961 1.4579967975790618e-15 -1 9.4472218138455943 F #
point $-1 -1 -1 $-1 -0.49999999999999917 -1 9.4472218138455712 #
coedge $-1 -1 -1 $-1 $329 $221 $405 $448 reversed $149 $-1 #
coedge $-1 -1 -1 $-1 $442 $401 $221 $324 reversed $403 $-1 #
edge $-1 -1 -1 $-1 $325 0.00094722181384559491 $449 0.0015000000000000013 $221 $450 forward @7 unknown T 0 -1.0000000000000002 -10.000000000000002 0 -1.0000000000000002 -9.4472218138455943 #
vertex $-1 -1 -1 $-1 $324 $451 #
ellipse-curve $-1 -1 -1 $-1 0 0 0 1 -6.1232339957367673e-17 -1.6081226496766366e-16 5.8170722959499324e-16 9.5000000000000018 2.1094237467877978e-15 1 F 1.6762548521942144 F 4.6069304549853713 #
loop $-1 -1 -1 $-1 $149 $452 $223 T 0 -4.6000000000000005 -4.6000000000000005 0 4.6000000000000005 4.6000000000000005 unknown #
plane-surface $-1 -1 -1 $-1 0 -0.5500000000000026 5.0000000000000027 -1 0 0 0 0 1 forward_v I I I I #
coedge $-1 -1 -1 $-1 $225 $322 $292 $418 reversed $149 $-1 #
coedge $-1 -1 -1 $-1 $341 $227 $225 $331 reversed $233 $-1 #
edge $-1 -1 -1 $-1 $453 4.8178475057840071 $229 7.7485231085751645 $225 $454 forward @7 unknown T -1.4579967975790622e-15 0.99999999999999722 -9.4472218138455961 1.5804614774937974e-15 9.5000000000000018 9.4472218138455908 #
coedge $-1 -1 -1 $-1 $455 $313 $226 $333 forward $315 $-1 #
edge $-1 -1 -1 $-1 $428 0.0083929995996796843 $335 0.0094472218138455712 $332 $456 forward @7 unknown T -0.49999999999999917 0.99999999999999911 8.3929995996796851 -0.49999999999999917 0.99999999999999922 9.4472218138455712 #
coedge $-1 -1 -1 $-1 $227 $341 $455 $457 reversed $233 $-1 #
vertex $-1 -1 -1 $-1 $333 $458 #
straight-curve $-1 -1 -1 $-1 -0.49999999999999917 0.99999999999999911 9.4472218138455712 1000 0 0 F 0 F 0.00049999999999999914 #
point $-1 -1 -1 $-1 0 0.99999999999999911 9.4472218138455712 #
face $-1 -1 -1 $-1 $459 $460 $4 $-1 $461 forward single T -0.70000000000000373 -6.0315708447967067 -6.0315708447966641 -0.49999999999999634 -5.0515708447967045 -4.0715708447966596 F #
loop $-1 -1 -1 $-1 $-1 $361 $232 T -1.1999999999999986 -8.7440000000000033 -1.5999999999999992 -0.49999999999999917 -7.1440000000000019 1.6000000000000039 unknown #
cone-surface $-1 -1 -1 $-1 -0.49999999999999917 -7.1440000000000019 2.7755575615628917e-15 1 -0 -0 0 1.9594348786357662e-16 1.600000000000001 1 I I -0 1 1.600000000000001 forward I I I I #
coedge $-1 -1 -1 $-1 $334 $330 $417 $462 forward $233 $-1 #
coedge $-1 -1 -1 $-1 $236 $235 $463 $464 reversed $237 $-1 #
coedge $-1 -1 -1 $-1 $239 $465 $235 $344 reversed $347 $-1 #
edge $-1 -1 -1 $-1 $166 -0.00028284271247462156 $466 0 $235 $467 forward @7 unknown T -0.70000000000000218 -5.0515708447967 5.8765708447966958 -0.49999999999999917 -5.0515708447967 6.0765708447966968 #
coedge $-1 -1 -1 $-1 $465 $239 $236 $346 forward $347 $-1 #
edge $-1 -1 -1 $-1 $168 -0.00028284271247462156 $468 0 $345 $469 forward @7 unknown T -0.70000000000000218 -5.0515708447967 4.026570844796697 -0.49999999999999917 -5.0515708447967 4.2265708447966981 #
loop $-1 -1 -1 $-1 $-1 $345 $446 T -0.70000000000000218 -6.0765708447967004 4.026570844796697 -0.49999999999999917 -5.0515708447967 6.0765708447966977 periphery $470 F #
ellipse-curve $-1 -1 -1 $-1 -0.70000000000000218 -5.0515708447967 5.0515708447966974 1 0 -0 0 1.0103336092965656e-16 0.8249999999999994 1 F 1.2246467991473532e-16 F 3.1415926535897931 #
face $-1 -1 -1 $-1 $471 $472 $4 $-1 $473 forward single T -4 -5.8315708447967047 -5.8315708447966621 -4 -4.2715708447967042 -4.2715708447966607 F #
loop $-1 -1 -1 $-1 $-1 $474 $244 T -4.5000000000000009 7.1440000000000001 -1.1305000000000012 -1.1999999999999986 8.2745000000000015 1.1304999999999998 unknown #
cone-surface $-1 -1 -1 $-1 -0.49999999999999917 7.1440000000000019 0 1 -0 -0 0 1.3844632064360825e-16 1.1304999999999998 1 I I -0 1 1.1304999999999998 forward I I I I #
face $-1 -1 -1 $-1 $475 $287 $4 $-1 $476 forward single T -4 -1.1304999999999998 -7.6712857384758042 -1.1999999999999986 1.1304999999999998 -6.0134999999999748 F #
cone-surface $-1 -1 -1 $-1 -0.49999999999999917 5.0515708447966965 5.0515708447966974 1 -0 -0 0 9.5522450333493597e-17 0.78000000000000058 1 I I -0 1 0.78000000000000058 forward I I I I #
coedge $-1 -1 -1 $-1 $477 $268 $478 $479 forward $247 $-1 #
coedge $-1 -1 -1 $-1 $249 $249 $480 $481 reversed $175 $-1 #
coedge $-1 -1 -1 $-1 $482 $483 $249 $357 forward $484 $-1 #
edge $-1 -1 -1 $-1 $485 3.1415926535897931 $486 6.2831853071795862 $356 $487 forward @7 unknown T -4 4.2265708447966812 -5.8765708447966869 -4 5.0515708447966698 -4.226570844796707 #
coedge $-1 -1 -1 $-1 $488 $488 $250 $359 reversed $489 $-1 #
edge $-1 -1 -1 $-1 $362 3.1415926535897927 $364 6.2831853071795862 $250 $490 forward @7 unknown T -1.1999999999999986 -7.1440000000000028 -1.599999999999999 -1.1999999999999986 -5.5440000000000005 1.6000000000000039 #
coedge $-1 -1 -1 $-1 $253 $251 $255 $366 forward $339 $-1 #
coedge $-1 -1 -1 $-1 $251 $253 $488 $491 forward $339 $-1 #
vertex $-1 -1 -1 $-1 $491 $492 #
straight-curve $-1 -1 -1 $-1 -0.49999999999999917 -7.1440000000000028 -1.599999999999999 1000 0 0 F -0.00069999999999999945 F 0 #
vertex $-1 -1 -1 $-1 $491 $493 #
straight-curve $-1 -1 -1 $-1 -0.49999999999999917 -7.1440000000000019 1.6000000000000019 1000 0 0 F -0.00069999999999999945 F 0 #
edge $-1 -1 -1 $-1 $257 0 $258 3.1415926535897936 $360 $494 forward @7 unknown T -0.49999999999999917 -8.7440000000000015 -1.5999999999999992 -0.49999999999999917 -7.1440000000000019 1.6000000000000019 #
loop $-1 -1 -1 $-1 $-1 $495 $368 T -0.49999999999999989 -4.6000000000000005 -4.6000000000000005 -0.49999999999999845 4.6000000000000005 4.6000000000000005 unknown #
face $-1 -1 -1 $-1 $295 $315 $4 $-1 $496 forward single T -0.50000000000000078 -9.5000000000000018 -9.4472218138455961 -0.49999999999999634 9.5000000000000018 9.4472218138455943 F #
point $-1 -1 -1 $-1 -0.49999999999999917 -7.1440000000000028 -1.599999999999999 #
point $-1 -1 -1 $-1 -0.49999999999999917 -7.1440000000000019 1.6000000000000019 #
face $-1 -1 -1 $-1 $171 $427 $4 $-1 $497 forward single T -1.1999999999999986 -1.599999999999999 5.5440000000000023 -0.49999999999999917 1.6000000000000016 8.3929995996796851 F #
loop $-1 -1 -1 $-1 $-1 $265 $260 T -4.5000000000000009 6.0135000000000005 -1.1305000000000012 -4.5000000000000009 8.2745000000000015 1.1304999999999998 unknown #
plane-surface $-1 -1 -1 $-1 -4.5000000000000009 -0.5500000000000026 5.0000000000000027 1 0 0 0 0 -1 forward_v I I I I #
coedge $-1 -1 -1 $-1 $498 $262 $499 $500 forward $182 $-1 #
coedge $-1 -1 -1 $-1 $262 $498 $501 $502 reversed $182 $-1 #
coedge $-1 -1 -1 $-1 $503 $503 $262 $377 reversed $472 $-1 #
edge $-1 -1 -1 $-1 $504 3.1415926535897931 $505 6.2831853071795862 $262 $506 forward @7 unknown T -4 -5.8315708447967047 -5.8315708447966621 -4 -5.0515708447967045 -4.2715708447966607 #
coedge $-1 -1 -1 $-1 $264 $263 $507 $508 reversed $128 $-1 #
coedge $-1 -1 -1 $-1 $509 $474 $263 $380 reversed $350 $-1 #
edge $-1 -1 -1 $-1 $384 -0.0040000000000000018 $510 -0.00069999999999999945 $263 $511 forward @7 unknown T -4.5000000000000009 7.1440000000000001 -1.1305000000000012 -1.1999999999999986 7.1440000000000001 -1.1305000000000012 #
coedge $-1 -1 -1 $-1 $474 $509 $264 $382 forward $350 $-1 #
edge $-1 -1 -1 $-1 $385 -0.0040000000000000018 $512 -0.00069999999999999945 $381 $513 forward @7 unknown T -4.5000000000000009 7.1440000000000019 1.1304999999999985 -1.1999999999999986 7.1440000000000019 1.1304999999999998 #
coedge $-1 -1 -1 $-1 $265 $265 $509 $514 forward $372 $-1 #
vertex $-1 -1 -1 $-1 $380 $515 #
vertex $-1 -1 -1 $-1 $382 $516 #
ellipse-curve $-1 -1 -1 $-1 -4.5000000000000009 7.1440000000000001 -1.3877787807814459e-15 -1 -0 -0 0 0 -1.1304999999999998 1 F 0 F 3.1415926535897944 #
coedge $-1 -1 -1 $-1 $273 $272 $267 $388 forward $274 $-1 #
edge $-1 -1 -1 $-1 $394 -0.0035000000000000009 $390 -0.0002000000000000002 $387 $517 forward @7 unknown T -4 5.0515708447966965 5.8315708447966976 -0.69999999999999929 5.0515708447966965 5.8315708447966976 #
coedge $-1 -1 -1 $-1 $268 $477 $518 $519 reversed $247 $-1 #
vertex $-1 -1 -1 $-1 $269 $520 #
ellipse-curve $-1 -1 -1 $-1 -0.69999999999999929 5.0515708447966965 5.0515708447966974 1 0 -0 0 9.5522450333493597e-17 0.78000000000000058 1 F 1.2246467991473532e-16 F 3.1415926535897931 #
coedge $-1 -1 -1 $-1 $270 $270 $272 $396 reversed $393 $-1 #
loop $-1 -1 -1 $-1 $-1 $392 $521 T -4 4.2715708447966962 4.2715708447966971 -4 5.8315708447966967 5.8315708447966976 unknown #
vertex $-1 -1 -1 $-1 $388 $522 #
ellipse-curve $-1 -1 -1 $-1 -4 5.0515708447966965 5.0515708447966974 1 0 -0 0 9.5522450333493597e-17 0.78000000000000058 1 F 1.2246467991473532e-16 F 3.1415926535897931 #
edge $-1 -1 -1 $-1 $275 3.1415926535897931 $394 6.2831853071795862 $272 $523 forward @7 unknown T -4 5.0515708447966965 4.2715708447966971 -4 5.8315708447966967 5.8315708447966976 #
coedge $-1 -1 -1 $-1 $518 $478 $273 $398 forward $524 $-1 #
edge $-1 -1 -1 $-1 $276 3.1415926535897931 $390 6.2831853071795862 $397 $525 forward @7 unknown T -0.69999999999999929 5.0515708447966965 4.2715708447966971 -0.69999999999999929 5.8315708447966967 5.8315708447966976 #
point $-1 -1 -1 $-1 -4 5.0515708447966965 4.2715708447966971 #
point $-1 -1 -1 $-1 -0.69999999999999929 5.0515708447966965 4.2715708447966971 #
coedge $-1 -1 -1 $-1 $323 $278 $281 $406 reversed $403 $-1 #
coedge $-1 -1 -1 $-1 $278 $526 $285 $410 forward $403 $-1 #
loop $-1 -1 -1 $-1 $-1 $401 $475 T -4 -1.0000000000000002 -10.000000000000002 0 -1 -7.6712857384758042 unknown #
straight-curve $-1 -1 -1 $-1 -4 -1.0000000000000002 -7.1499999999999995 -0 -0 -1000 F 0.00052128573847580462 F 0.0028500000000000027 #
coedge $-1 -1 -1 $-1 $281 $280 $322 $448 forward $282 $-1 #
edge $-1 -1 -1 $-1 $449 -0.0011249999999999999 $283 0.002875 $281 $527 forward @7 unknown T -4 -1.0000000000000002 -10.000000000000002 0 -1.0000000000000002 -10.000000000000002 #
face $-1 -1 -1 $-1 $528 $282 $4 $-1 $529 reversed single T -4 -1.0000000000000002 -10.000000000000002 0 1.0000000000000007 -10.000000000000002 F #
point $-1 -1 -1 $-1 -4 -1.0000000000000002 -10.000000000000002 #
coedge $-1 -1 -1 $-1 $286 $285 $530 $531 reversed $287 $-1 #
edge $-1 -1 -1 $-1 $532 0.00069999999999999945 $288 0.0035000000000000009 $402 $533 forward @7 unknown T -4 -1.0000000000000002 -7.6712857384758042 -1.1999999999999986 -1.0000000000000002 -7.6712857384758042 #
point $-1 -1 -1 $-1 -4 -1.0000000000000002 -7.6712857384758042 #
coedge $-1 -1 -1 $-1 $294 $290 $534 $535 forward $196 $-1 #
coedge $-1 -1 -1 $-1 $530 $536 $290 $414 reversed $537 $-1 #
edge $-1 -1 -1 $-1 $415 0.0005272857384758297 $538 0.0012489995996796703 $290 $539 forward @7 unknown T -1.1999999999999986 1.0000000000000002 -8.3929995996796443 -1.1999999999999986 1.0000000000000002 -7.6712857384758042 #
vertex $-1 -1 -1 $-1 $531 $540 #
straight-curve $-1 -1 -1 $-1 -0.49999999999999917 1.0000000000000002 -7.6712857384758042 1000 0 0 F -0.0035000000000000009 F -0.00069999999999999945 #
coedge $-1 -1 -1 $-1 $292 $294 $341 $462 reversed $196 $-1 #
edge $-1 -1 -1 $-1 $453 0.00094722181384559491 $419 0.0015000000000000013 $292 $541 forward @7 unknown T 0 1.0000000000000002 -10.000000000000002 0 1.0000000000000002 -9.4472218138455943 #
vertex $-1 -1 -1 $-1 $418 $542 #
straight-curve $-1 -1 -1 $-1 -0.2499999999999975 1.0000000000000002 -10.000000000000002 1000 0 0 F -0.0037500000000000025 F 0.00024999999999999751 #
coedge $-1 -1 -1 $-1 $543 $455 $294 $422 reversed $315 $-1 #
edge $-1 -1 -1 $-1 $544 0.001810504497996579 $545 0.0028647267121625301 $294 $546 forward @7 unknown T -0.50000000000000056 1 -9.4472218138455961 -0.49999999999999634 1.0000000000000002 -8.3929995996796443 #
face $-1 -1 -1 $-1 $521 $547 $4 $-1 $548 forward single T -4.5000000000000009 -8.2745000000000033 -1.1304999999999998 -1.1999999999999986 -7.1440000000000019 1.1305000000000025 F #
plane-surface $-1 -1 -1 $-1 -1.3877787807814459e-15 1.0000000000000002 -7.1499999999999995 0 1 0 0 0 1 forward_v I I I I #
coedge $-1 -1 -1 $-1 $308 $298 $313 $438 reversed $427 $-1 #
coedge $-1 -1 -1 $-1 $298 $308 $300 $430 forward $427 $-1 #
loop $-1 -1 -1 $-1 $-1 $426 $371 T -1.1999999999999986 -1.599999999999999 5.5440000000000023 -0.49999999999999917 1.6000000000000016 8.3929995996796851 unknown #
vertex $-1 -1 -1 $-1 $299 $549 #
straight-curve $-1 -1 -1 $-1 -0.49999999999999917 0.99999999999999911 8.3929995996796851 -1000 0 0 F 0 F 0.00069999999999999945 #
edge $-1 -1 -1 $-1 $310 0.67513153293703254 $303 5.6080537742425562 $426 $550 forward @7 unknown T -1.1999999999999986 -1.599999999999999 5.5440000000000023 -1.1999999999999986 1.6000000000000016 8.3929995996796851 #
face $-1 -1 -1 $-1 $320 $302 $4 $-1 $551 forward single T -1.1999999999999986 -1.599999999999999 5.5440000000000023 -1.1999999999999986 1.6000000000000016 8.3929995996796851 F #
point $-1 -1 -1 $-1 -1.1999999999999986 0.99999999999999911 8.3929995996796851 #
ellipse-curve $-1 -1 -1 $-1 -1.1999999999999986 1.3849643501403233e-15 7.1440000000000028 1 0 -0 0 1.3844632064360823e-16 1.1304999999999996 1 F 1.0855591535037921 F 5.1976261536758015 #
face $-1 -1 -1 $-1 $-1 $552 $4 $-1 $553 forward single T -1.1999999999999986 5.5439999999999987 -1.6000000000000023 -0.49999999999999917 7.1440000000000019 1.6000000000000003 F #
cone-surface $-1 -1 -1 $-1 -0.49999999999999917 1.3849643501403233e-15 7.1440000000000028 1 -0 -0 0 1.3844632064360818e-16 1.1304999999999994 1 I I -0 1 1.1304999999999994 forward I I I I #
straight-curve $-1 -1 -1 $-1 -0.49999999999999917 -1.0000000000000002 8.3929995996796833 1000 0 0 F -0.00069999999999999945 F 0 #
point $-1 -1 -1 $-1 -1.1999999999999986 -1.0000000000000002 8.3929995996796833 #
edge $-1 -1 -1 $-1 $316 0.67513153293703254 $428 5.6080537742425562 $313 $554 forward @7 unknown T -0.49999999999999917 -1.599999999999999 5.5440000000000023 -0.49999999999999917 1.6000000000000016 8.3929995996796851 #
coedge $-1 -1 -1 $-1 $314 $543 $555 $556 reversed $315 $-1 #
loop $-1 -1 -1 $-1 $557 $558 $368 T -0.49999999999999634 -6.0315708447967067 -6.0315708447966641 -0.49999999999999634 -4.0715708447967023 -4.0715708447966596 unknown #
point $-1 -1 -1 $-1 -0.49999999999999917 -1.0000000000000002 8.3929995996796833 #
coedge $-1 -1 -1 $-1 $555 $323 $318 $443 reversed $403 $-1 #
edge $-1 -1 -1 $-1 $444 -0.00025000000000000304 $325 0.00024999999999999751 $318 $559 forward @7 unknown T -0.50000000000000056 -1.0000000000000002 -9.4472218138455961 0 -1.0000000000000002 -9.4472218138455961 #
vertex $-1 -1 -1 $-1 $556 $560 #
ellipse-curve $-1 -1 -1 $-1 -0.49999999999999917 0 0 -1 6.1232339957367673e-17 1.6081226496766366e-16 5.8170722959499324e-16 9.5000000000000018 2.1094237467877978e-15 1 F 1.6762548521942147 F 4.6069304549853722 #
face $-1 -1 -1 $-1 $368 $347 $4 $-1 $470 forward single T -0.70000000000000218 -6.0765708447967004 4.026570844796697 -0.49999999999999917 -5.0515708447967 6.0765708447966977 F #
cone-surface $-1 -1 -1 $-1 -0.24999999999999886 0 0 1 -6.1232339957367673e-17 -1.6081226496766366e-16 5.8170722959499324e-16 9.5000000000000018 2.1094237467877978e-15 1 I I -0 1 9.5000000000000018 forward I I I I #
edge $-1 -1 -1 $-1 $419 -0.0010000000000000002 $449 0.0010000000000000002 $405 $561 forward @7 unknown T 0 -1.0000000000000002 -10.000000000000002 0 1.0000000000000002 -10.000000000000002 #
vertex $-1 -1 -1 $-1 $448 $562 #
straight-curve $-1 -1 -1 $-1 0 -1.0000000000000002 -8.5 0 0 -1000 F 0.00094722181384559491 F 0.0015000000000000013 #
point $-1 -1 -1 $-1 0 -1.0000000000000002 -9.4472218138455961 #
coedge $-1 -1 -1 $-1 $452 $452 $563 $564 forward $327 $-1 #
vertex $-1 -1 -1 $-1 $418 $565 #
ellipse-curve $-1 -1 -1 $-1 0 0 0 1 -6.1232339957367673e-17 -1.6081226496766366e-16 5.8170722959499324e-16 9.5000000000000018 2.1094237467877978e-15 1 F 4.8178475057840071 F 7.7485231085751645 #
coedge $-1 -1 -1 $-1 $421 $332 $334 $457 forward $315 $-1 #
straight-curve $-1 -1 -1 $-1 -0.49999999999999917 0.99999999999999811 0 0 1.2246467991473532e-13 1000 F 0.0083929995996796843 F 0.0094472218138455712 #
edge $-1 -1 -1 $-1 $335 4.817847505784008 $545 7.7485231085751654 $455 $566 forward @7 unknown T -0.50000000000000067 0.99999999999999911 -9.4472218138455961 -0.49999999999999761 9.5000000000000018 9.4472218138455943 #
point $-1 -1 -1 $-1 -0.49999999999999917 0.99999999999999911 9.4472218138455712 #
face $-1 -1 -1 $-1 $431 $567 $4 $-1 $568 forward single T -4 -5.0515708447967045 -5.8315708447966648 -0.70000000000000362 -4.2715708447967033 -4.2715708447966607 F #
loop $-1 -1 -1 $-1 $-1 $569 $338 T -0.70000000000000373 -6.0315708447967067 -6.0315708447966641 -0.49999999999999634 -5.0515708447967045 -4.0715708447966596 periphery $461 F #
cone-surface $-1 -1 -1 $-1 -0.49999999999999634 -5.0515708447967045 -5.0515708447966619 -1 0 0 0 0 -0.98000000000000187 1 I I -0.70710678118653525 0.70710678118655979 0.98000000000000187 forward I I I I #
edge $-1 -1 -1 $-1 $453 -0.00024999999999999751 $545 0.00025000000000000304 $341 $570 forward @7 unknown T -0.50000000000000056 1.0000000000000002 -9.4472218138455961 0 1.0000000000000002 -9.4472218138455961 #
coedge $-1 -1 -1 $-1 $571 $571 $342 $464 forward $572 $-1 #
edge $-1 -1 -1 $-1 $468 3.1415926535897931 $466 6.2831853071795862 $463 $573 forward @7 unknown T -0.49999999999999917 -5.0515708447967 4.026570844796697 -0.49999999999999917 -4.0265708447966997 6.0765708447966977 #
coedge $-1 -1 -1 $-1 $343 $345 $571 $574 reversed $347 $-1 #
vertex $-1 -1 -1 $-1 $344 $575 #
straight-curve $-1 -1 -1 $-1 -0.49999999999999917 -5.0515708447967 6.0765708447966968 707.10678118655073 8.6595605623548975e-14 707.10678118654459 F -0.00028284271247462156 F 0 #
vertex $-1 -1 -1 $-1 $346 $576 #
straight-curve $-1 -1 -1 $-1 -0.49999999999999917 -5.0515708447967 4.026570844796697 707.10678118655073 -1.7319121124709795e-13 -707.10678118654459 F -0.00028284271247462156 F 0 #
cone-surface $-1 -1 -1 $-1 -0.49999999999999917 -5.0515708447967 5.0515708447966974 -1 0 0 0 1.2552629691260371e-16 1.0250000000000001 1 I I -0.70710678118654446 0.70710678118655057 1.0250000000000001 forward I I I I #
face $-1 -1 -1 $-1 $577 $578 $4 $-1 $579 forward single T -0.70000000000000373 -5.0515708447967045 -6.0315708447966641 -0.49999999999999634 -4.0715708447967023 -4.0715708447966596 F #
loop $-1 -1 -1 $-1 $-1 $376 $349 T -4 -5.8315708447967047 -5.8315708447966621 -4 -4.2715708447967042 -4.2715708447966607 unknown #
plane-surface $-1 -1 -1 $-1 -4 -2.9409830056250508 -6.700000000000002 -1 0 0 0 0 1 forward_v I I I I #
coedge $-1 -1 -1 $-1 $379 $381 $580 $581 reversed $350 $-1 #
face $-1 -1 -1 $-1 $582 $403 $4 $-1 $583 forward single T -4 -1.0000000000000002 -10.000000000000002 0 -1 -7.6712857384758042 F #
cone-surface $-1 -1 -1 $-1 -0.49999999999999917 0 -7.1439999999999744 1 0 0 0 0 -1.1304999999999998 1 I I -0 1 1.1304999999999998 forward I I I I #
coedge $-1 -1 -1 $-1 $389 $354 $584 $585 reversed $247 $-1 #
coedge $-1 -1 -1 $-1 $397 $586 $354 $479 reversed $524 $-1 #
edge $-1 -1 -1 $-1 $276 -0.00028284271247462211 $587 0 $354 $588 forward @7 unknown T -0.69999999999999929 5.0515708447966965 4.0715708447966952 -0.49999999999999634 5.0515708447966965 4.2715708447966971 #
coedge $-1 -1 -1 $-1 $589 $590 $355 $481 forward $591 $-1 #
edge $-1 -1 -1 $-1 $486 0 $485 3.1415926535897931 $480 $592 forward @7 unknown T -4 5.0515708447966698 -5.8765708447966869 -4 5.8765708447966585 -4.226570844796707 #
coedge $-1 -1 -1 $-1 $593 $356 $590 $594 forward $484 $-1 #
coedge $-1 -1 -1 $-1 $356 $593 $589 $595 reversed $484 $-1 #
loop $-1 -1 -1 $-1 $-1 $482 $596 T -4 4.2265708447966812 -5.8765708447966869 -0.70000000000000628 5.0515708447966698 -4.226570844796707 unknown #
vertex $-1 -1 -1 $-1 $595 $597 #
vertex $-1 -1 -1 $-1 $594 $598 #
ellipse-curve $-1 -1 -1 $-1 -4 5.0515708447966698 -5.0515708447966974 1 0 0 0 0 -0.82499999999998819 1 F 3.1415926535897931 F 6.2831853071795862 #
coedge $-1 -1 -1 $-1 $358 $358 $361 $491 reversed $489 $-1 #
loop $-1 -1 -1 $-1 $-1 $488 $582 T -1.1999999999999986 -8.7440000000000033 -1.599999999999999 -1.1999999999999986 -5.5440000000000005 1.6000000000000039 unknown #
ellipse-curve $-1 -1 -1 $-1 -1.1999999999999986 -7.1440000000000019 2.7755575615628917e-15 1 0 -0 0 1.9594348786357662e-16 1.600000000000001 1 F 3.1415926535897927 F 6.2831853071795862 #
edge $-1 -1 -1 $-1 $364 1.2246467991473532e-16 $362 3.1415926535897927 $361 $599 forward @7 unknown T -1.1999999999999986 -8.7440000000000033 -1.599999999999999 -1.1999999999999986 -7.1440000000000019 1.6000000000000039 #
point $-1 -1 -1 $-1 -1.1999999999999986 -7.1440000000000028 -1.599999999999999 #
point $-1 -1 -1 $-1 -1.1999999999999986 -7.1440000000000019 1.6000000000000019 #
ellipse-curve $-1 -1 -1 $-1 -0.49999999999999917 -7.1440000000000028 0 -1 0 0 0 0 -1.5999999999999992 1 F 0 F 3.1415926535897936 #
coedge $-1 -1 -1 $-1 $495 $495 $600 $601 forward $367 $-1 #
plane-surface $-1 -1 -1 $-1 -0.49999999999999917 0 0 -1 6.123233995736766e-17 1.6081226496766366e-16 -6.1232339957367697e-17 -1 -2.2204460492503131e-16 forward_v I I I I #
cone-surface $-1 -1 -1 $-1 -0.49999999999999917 1.3849643501403233e-15 7.1440000000000028 1 -0 -0 0 1.959434878635766e-16 1.6000000000000003 1 I I -0 1 1.6000000000000003 forward I I I I #
coedge $-1 -1 -1 $-1 $375 $374 $569 $602 reversed $182 $-1 #
coedge $-1 -1 -1 $-1 $603 $604 $374 $500 reversed $567 $-1 #
edge $-1 -1 -1 $-1 $505 -0.0035000000000000009 $605 -0.00020000000000000443 $374 $606 forward @7 unknown T -4 -5.0515708447967045 -5.8315708447966648 -0.70000000000000362 -5.0515708447967045 -5.8315708447966621 #
coedge $-1 -1 -1 $-1 $604 $603 $375 $502 forward $567 $-1 #
edge $-1 -1 -1 $-1 $504 -0.0035000000000000009 $607 -0.00020000000000000443 $501 $608 forward @7 unknown T -4 -5.0515708447967045 -4.2715708447966607 -0.70000000000000362 -5.0515708447967045 -4.2715708447966607 #
coedge $-1 -1 -1 $-1 $376 $376 $603 $609 reversed $472 $-1 #
vertex $-1 -1 -1 $-1 $502 $610 #
vertex $-1 -1 -1 $-1 $500 $611 #
ellipse-curve $-1 -1 -1 $-1 -4 -5.0515708447967045 -5.0515708447966619 1 0 0 0 0 -0.78000000000000058 1 F 3.1415926535897931 F 6.2831853071795862 #
coedge $-1 -1 -1 $-1 $580 $580 $378 $508 forward $612 $-1 #
edge $-1 -1 -1 $-1 $512 3.1415926535897918 $510 6.2831853071795862 $507 $613 forward @7 unknown T -1.1999999999999986 6.0135000000000005 -1.1305000000000012 -1.1999999999999986 7.1440000000000019 1.1304999999999998 #
coedge $-1 -1 -1 $-1 $381 $379 $383 $514 reversed $350 $-1 #
vertex $-1 -1 -1 $-1 $380 $614 #
straight-curve $-1 -1 -1 $-1 -0.49999999999999917 7.1440000000000001 -1.1305000000000012 1000 0 0 F -0.0040000000000000018 F -0.00069999999999999945 #
vertex $-1 -1 -1 $-1 $382 $615 #
straight-curve $-1 -1 -1 $-1 -0.49999999999999917 7.1440000000000019 1.1304999999999998 1000 0 0 F -0.0040000000000000018 F -0.00069999999999999945 #
edge $-1 -1 -1 $-1 $385 0 $384 3.1415926535897944 $383 $616 forward @7 unknown T -4.5000000000000009 7.1440000000000001 -1.1305000000000012 -4.5000000000000009 8.2745000000000015 1.1304999999999998 #
point $-1 -1 -1 $-1 -4.5000000000000009 7.1440000000000001 -1.1305000000000012 #
point $-1 -1 -1 $-1 -4.5000000000000009 7.1440000000000019 1.1304999999999985 #
straight-curve $-1 -1 -1 $-1 -0.49999999999999917 5.0515708447966965 5.8315708447966976 1000 0 0 F -0.0035000000000000009 F -0.0002000000000000002 #
coedge $-1 -1 -1 $-1 $586 $397 $389 $519 forward $524 $-1 #
edge $-1 -1 -1 $-1 $390 -0.00028284271247462276 $617 0 $518 $618 forward @7 unknown T -0.6999999999999994 5.0515708447966965 5.8315708447966976 -0.49999999999999634 5.0515708447966965 6.0315708447966996 #
point $-1 -1 -1 $-1 -0.69999999999999929 5.0515708447966965 5.8315708447966976 #
face $-1 -1 -1 $-1 $619 $393 $4 $-1 $620 forward single T -4 4.2715708447966962 4.2715708447966971 -4 5.8315708447966967 5.8315708447966976 F #
point $-1 -1 -1 $-1 -4 5.0515708447966965 5.8315708447966976 #
ellipse-curve $-1 -1 -1 $-1 -4 5.0515708447966965 5.0515708447966974 1 0 -0 0 9.5522450333493597e-17 0.78000000000000058 1 F 3.1415926535897931 F 6.2831853071795862 #
loop $-1 -1 -1 $-1 $-1 $397 $621 T -0.6999999999999994 5.0515708447966965 4.0715708447966952 -0.49999999999999634 6.0315708447966987 6.0315708447966996 periphery $622 F #
ellipse-curve $-1 -1 -1 $-1 -0.69999999999999929 5.0515708447966965 5.0515708447966974 1 0 -0 0 9.5522450333493597e-17 0.78000000000000058 1 F 3.1415926535897931 F 6.2831853071795862 #
coedge $-1 -1 -1 $-1 $402 $623 $624 $625 forward $403 $-1 #
straight-curve $-1 -1 -1 $-1 -1.125 -1.0000000000000002 -10.000000000000002 -1000 0 0 F -0.0011249999999999999 F 0.002875 #
face $-1 -1 -1 $-1 $626 $627 $4 $-1 $628 forward single T -1.1999999999999986 -1.5999999999999941 -8.392999599679646 -0.49999999999999917 1.5999999999999941 -5.5439999999999801 F #
plane-surface $-1 -1 -1 $-1 -2.25 -0.55000000000000093 -10.000000000000002 0 0 1 1 0 0 forward_v I I I I #
coedge $-1 -1 -1 $-1 $624 $413 $409 $531 forward $537 $-1 #
edge $-1 -1 -1 $-1 $415 1.0855591535037881 $532 5.1976261536757979 $530 $629 forward @7 unknown T -1.1999999999999986 -1.1304999999999998 -7.6712857384758042 -1.1999999999999986 1.1304999999999998 -6.0134999999999748 #
vertex $-1 -1 -1 $-1 $531 $630 #
straight-curve $-1 -1 -1 $-1 -0.49999999999999917 -1.0000000000000002 -7.6712857384758042 -1000 0 0 F 0.00069999999999999945 F 0.0035000000000000009 #
coedge $-1 -1 -1 $-1 $631 $632 $412 $535 reversed $627 $-1 #
edge $-1 -1 -1 $-1 $538 -0.00069999999999999945 $544 0 $412 $633 forward @7 unknown T -1.1999999999999986 1 -8.3929995996796443 -0.49999999999999917 1.0000000000000002 -8.3929995996796443 #
coedge $-1 -1 -1 $-1 $413 $624 $631 $634 reversed $537 $-1 #
loop $-1 -1 -1 $-1 $-1 $530 $635 T -1.1999999999999986 -1.5999999999999941 -8.392999599679646 -1.1999999999999986 1.5999999999999941 -5.5439999999999801 unknown #
vertex $-1 -1 -1 $-1 $634 $636 #
straight-curve $-1 -1 -1 $-1 -1.1999999999999986 1.0000000000000002 -7.1439999999999744 0 0 -1000 F 0.0005272857384758297 F 0.0012489995996796703 #
point $-1 -1 -1 $-1 -1.1999999999999986 1.0000000000000002 -7.6712857384758042 #
straight-curve $-1 -1 -1 $-1 0 1.0000000000000002 -8.5 0 0 -1000 F 0.00094722181384559491 F 0.0015000000000000013 #
point $-1 -1 -1 $-1 0 1.0000000000000002 -10.000000000000002 #
coedge $-1 -1 -1 $-1 $439 $421 $632 $637 forward $315 $-1 #
vertex $-1 -1 -1 $-1 $535 $638 #
vertex $-1 -1 -1 $-1 $422 $639 #
straight-curve $-1 -1 -1 $-1 -0.49999999999999634 1.0000000000000002 -6.5824951016830653 0 0 -1000 F 0.001810504497996579 F 0.0028647267121625301 #
loop $-1 -1 -1 $-1 $-1 $640 $423 T -4.5000000000000009 -8.2745000000000033 -1.1304999999999998 -1.1999999999999986 -7.1440000000000019 1.1305000000000025 unknown #
cone-surface $-1 -1 -1 $-1 -0.49999999999999917 -7.1440000000000019 2.7755575615628917e-15 1 -0 -0 0 1.3844632064360825e-16 1.1304999999999998 1 I I -0 1 1.1304999999999998 forward I I I I #
point $-1 -1 -1 $-1 -0.49999999999999917 0.99999999999999911 8.3929995996796851 #
ellipse-curve $-1 -1 -1 $-1 -1.1999999999999986 1.3849643501403233e-15 7.1440000000000028 1 0 -0 0 1.959434878635766e-16 1.6000000000000003 1 F 0.67513153293703254 F 5.6080537742425562 #
plane-surface $-1 -1 -1 $-1 -1.1999999999999986 -1.1304999999999983 7.1440000000000028 -1 -0 0 0 -1.2246467991473532e-16 -1 forward_v I I I I #
loop $-1 -1 -1 $-1 $-1 $641 $434 T -1.1999999999999986 5.5439999999999987 -1.6000000000000023 -0.49999999999999917 7.1440000000000019 1.6000000000000003 unknown #
cone-surface $-1 -1 -1 $-1 -0.49999999999999917 7.1440000000000019 0 1 -0 -0 0 1.9594348786357642e-16 1.5999999999999992 1 I I -0 1 1.5999999999999992 forward I I I I #
ellipse-curve $-1 -1 -1 $-1 -0.49999999999999917 1.3849643501403233e-15 7.1440000000000028 1 0 -0 0 1.959434878635766e-16 1.6000000000000003 1 F 0.67513153293703254 F 5.6080537742425562 #
coedge $-1 -1 -1 $-1 $623 $442 $439 $556 forward $403 $-1 #
edge $-1 -1 -1 $-1 $444 -0.0094472218138456129 $642 -0.0083929995996796618 $555 $643 forward @7 unknown T -0.50000000000000056 -1.0000000000000002 -9.4472218138455961 -0.49999999999999917 -1.0000000000000002 -8.3929995996796443 #
loop $-1 -1 -1 $-1 $572 $644 $368 T -0.49999999999999772 4.0265708447966695 -6.0765708447966986 -0.49999999999999772 6.0765708447966702 -4.026570844796697 unknown #
coedge $-1 -1 -1 $-1 $645 $645 $646 $647 forward $440 $-1 #
straight-curve $-1 -1 -1 $-1 -0.2499999999999975 -1.0000000000000002 -9.4472218138455961 1000 -6.1232339957367662e-14 -1.6081226496766366e-13 F -0.00025000000000000304 F 0.00024999999999999751 #
point $-1 -1 -1 $-1 -0.50000000000000056 -1.0000000000000002 -9.4472218138455961 #
straight-curve $-1 -1 -1 $-1 0 0 -10.000000000000002 0 -1000 0 F -0.0010000000000000002 F 0.0010000000000000002 #
point $-1 -1 -1 $-1 0 -1.0000000000000002 -10.000000000000002 #
coedge $-1 -1 -1 $-1 $563 $563 $452 $564 reversed $648 $-1 #
edge $-1 -1 -1 $-1 $649 0 $649 6.2831853071795862 $452 $650 forward @7 unknown T 0 -4.6000000000000005 -4.6000000000000005 0 4.6000000000000005 4.6000000000000005 #
point $-1 -1 -1 $-1 0 1.0000000000000002 -9.4472218138455961 #
ellipse-curve $-1 -1 -1 $-1 -0.49999999999999917 0 0 -1 6.1232339957367673e-17 1.6081226496766366e-16 5.8170722959499324e-16 9.5000000000000018 2.1094237467877978e-15 1 F 4.817847505784008 F 7.7485231085751654 #
loop $-1 -1 -1 $-1 $-1 $501 $459 T -4 -5.0515708447967045 -5.8315708447966648 -0.70000000000000362 -4.2715708447967033 -4.2715708447966607 unknown #
cone-surface $-1 -1 -1 $-1 -0.49999999999999917 -5.0515708447967045 -5.0515708447966619 1 0 0 0 0 -0.78000000000000058 1 I I -0 1 0.78000000000000058 forward I I I I #
coedge $-1 -1 -1 $-1 $651 $652 $498 $602 forward $460 $-1 #
straight-curve $-1 -1 -1 $-1 -0.2499999999999975 1.0000000000000002 -9.4472218138455961 -1000 6.1232339957367662e-14 1.6081226496766366e-13 F -0.00024999999999999751 F 0.00025000000000000304 #
coedge $-1 -1 -1 $-1 $463 $463 $465 $574 forward $572 $-1 #
loop $-1 -1 -1 $-1 $653 $463 $368 T -0.49999999999999917 -6.0765708447967004 4.026570844796697 -0.49999999999999917 -4.0265708447966997 6.0765708447966977 unknown #
ellipse-curve $-1 -1 -1 $-1 -0.49999999999999917 -5.0515708447967 5.0515708447966974 1 0 -0 0 1.2552629691260371e-16 1.0250000000000001 1 F 3.1415926535897931 F 6.2831853071795862 #
edge $-1 -1 -1 $-1 $466 1.2246467991473532e-16 $468 3.1415926535897931 $571 $654 forward @7 unknown T -0.49999999999999917 -6.0765708447967004 4.026570844796697 -0.49999999999999917 -5.0515708447967 6.0765708447966977 #
point $-1 -1 -1 $-1 -0.49999999999999917 -5.0515708447967 6.0765708447966968 #
point $-1 -1 -1 $-1 -0.49999999999999917 -5.0515708447967 4.026570844796697 #
face $-1 -1 -1 $-1 $635 $648 $4 $-1 $655 reversed single T -0.49999999999999989 -4.6000000000000005 -4.6000000000000005 0 4.6000000000000005 4.6000000000000005 F #
loop $-1 -1 -1 $-1 $-1 $656 $471 T -0.70000000000000373 -5.0515708447967045 -6.0315708447966641 -0.49999999999999634 -4.0715708447967023 -4.0715708447966596 periphery $579 F #
cone-surface $-1 -1 -1 $-1 -0.49999999999999634 -5.0515708447967045 -5.0515708447966619 -1 0 0 0 0 -0.98000000000000187 1 I I -0.70710678118653525 0.70710678118655979 0.98000000000000187 forward I I I I #
coedge $-1 -1 -1 $-1 $507 $507 $474 $581 forward $612 $-1 #
edge $-1 -1 -1 $-1 $510 3.1415926535897918 $512 6.2831853071795862 $580 $657 forward @7 unknown T -1.1999999999999986 7.1440000000000001 -1.1305000000000012 -1.1999999999999986 8.2745000000000015 1.1304999999999998 #
face $-1 -1 -1 $-1 $658 $659 $4 $-1 $660 forward single T -1.1999999999999986 -8.7440000000000033 -1.599999999999999 -1.1999999999999986 -5.5440000000000005 1.6000000000000039 F #
plane-surface $-1 -1 -1 $-1 -1.3877787807814459e-15 -1.0000000000000002 -7.1499999999999995 0 -1 0 0 0 -1 forward_v I I I I #
coedge $-1 -1 -1 $-1 $661 $661 $477 $585 forward $662 $-1 #
edge $-1 -1 -1 $-1 $617 1.2246467991473535e-16 $587 3.1415926535897931 $584 $663 forward @7 unknown T -0.49999999999999634 4.0715708447966943 4.0715708447966952 -0.49999999999999634 5.0515708447966965 6.0315708447966996 #
coedge $-1 -1 -1 $-1 $478 $518 $661 $664 reversed $524 $-1 #
vertex $-1 -1 -1 $-1 $479 $665 #
straight-curve $-1 -1 -1 $-1 -0.49999999999999634 5.0515708447966965 4.0715708447966952 707.10678118654903 -1.7319121124709828e-13 -707.10678118654619 F -0.00028284271247462211 F 0 #
coedge $-1 -1 -1 $-1 $666 $480 $483 $595 forward $591 $-1 #
coedge $-1 -1 -1 $-1 $480 $666 $482 $594 reversed $591 $-1 #
loop $-1 -1 -1 $-1 $-1 $589 $667 T -4 5.0515708447966698 -5.8765708447966869 -0.70000000000000628 5.8765708447966585 -4.226570844796707 unknown #
ellipse-curve $-1 -1 -1 $-1 -4 5.0515708447966698 -5.0515708447966974 1 0 0 0 0 -0.82499999999998819 1 F 0 F 3.1415926535897931 #
coedge $-1 -1 -1 $-1 $483 $482 $668 $669 reversed $484 $-1 #
edge $-1 -1 -1 $-1 $486 -0.0035000000000000009 $670 -0.00020000000000000714 $482 $671 forward @7 unknown T -4 5.0515708447966698 -5.8765708447966869 -0.70000000000000628 5.0515708447966698 -5.8765708447966869 #
edge $-1 -1 -1 $-1 $485 -0.0035000000000000009 $672 -0.00020000000000000714 $589 $673 forward @7 unknown T -4 5.0515708447966698 -4.226570844796707 -0.70000000000000628 5.0515708447966698 -4.226570844796707 #
face $-1 -1 -1 $-1 $667 $484 $4 $-1 $674 forward single T -4 4.2265708447966812 -5.8765708447966869 -0.70000000000000628 5.0515708447966698 -4.226570844796707 F #
point $-1 -1 -1 $-1 -4 5.0515708447966698 -4.226570844796707 #
point $-1 -1 -1 $-1 -4 5.0515708447966698 -5.8765708447966869 #
ellipse-curve $-1 -1 -1 $-1 -1.1999999999999986 -7.1440000000000019 2.7755575615628917e-15 1 0 -0 0 1.9594348786357662e-16 1.600000000000001 1 F 1.2246467991473532e-16 F 3.1415926535897927 #
coedge $-1 -1 -1 $-1 $600 $600 $495 $601 reversed $675 $-1 #
edge $-1 -1 -1 $-1 $676 3.8133747367559721e-16 $676 6.2831853071795862 $495 $677 forward @7 unknown T -0.49999999999999989 -4.6000000000000005 -4.6000000000000005 -0.49999999999999845 4.6000000000000005 4.6000000000000005 #
edge $-1 -1 -1 $-1 $607 3.1415926535897931 $605 6.2831853071795862 $569 $678 forward @7 unknown T -0.70000000000000362 -5.8315708447967056 -5.8315708447966648 -0.70000000000000362 -5.0515708447967045 -4.2715708447966607 #
coedge $-1 -1 -1 $-1 $501 $499 $503 $609 forward $567 $-1 #
coedge $-1 -1 -1 $-1 $499 $501 $679 $680 reversed $567 $-1 #
vertex $-1 -1 -1 $-1 $680 $681 #
straight-curve $-1 -1 -1 $-1 -0.49999999999999917 -5.0515708447967045 -5.8315708447966621 1000 0 0 F -0.0035000000000000009 F -0.00020000000000000443 #
vertex $-1 -1 -1 $-1 $680 $682 #
straight-curve $-1 -1 -1 $-1 -0.49999999999999917 -5.0515708447967045 -4.2715708447966607 1000 0 0 F -0.0035000000000000009 F -0.00020000000000000443 #
edge $-1 -1 -1 $-1 $505 0 $504 3.1415926535897931 $603 $683 forward @7 unknown T -4 -5.0515708447967045 -5.8315708447966621 -4 -4.2715708447967042 -4.2715708447966607 #
point $-1 -1 -1 $-1 -4 -5.0515708447967045 -4.2715708447966607 #
point $-1 -1 -1 $-1 -4 -5.0515708447967045 -5.8315708447966621 #
loop $-1 -1 -1 $-1 $-1 $580 $619 T -1.1999999999999986 6.0135000000000005 -1.1305000000000012 -1.1999999999999986 8.2745000000000015 1.1304999999999998 unknown #
ellipse-curve $-1 -1 -1 $-1 -1.1999999999999986 7.1440000000000001 -1.3877787807814459e-15 1 0 0 0 0 -1.1304999999999998 1 F 3.1415926535897918 F 6.2831853071795862 #
point $-1 -1 -1 $-1 -1.1999999999999986 7.1440000000000001 -1.1305000000000012 #
point $-1 -1 -1 $-1 -1.1999999999999986 7.1440000000000019 1.1304999999999998 #
ellipse-curve $-1 -1 -1 $-1 -4.5000000000000009 7.1440000000000019 0 -1 0 0 0 1.3844632064360825e-16 1.1304999999999998 1 F 0 F 3.1415926535897944 #
vertex $-1 -1 -1 $-1 $519 $684 #
straight-curve $-1 -1 -1 $-1 -0.49999999999999634 5.0515708447966965 6.0315708447966996 707.10678118654903 8.6595605623549152e-14 707.10678118654619 F -0.00028284271247462276 F 0 #
face $-1 -1 -1 $-1 $50 $685 $4 $-1 $686 forward single T -1.1999999999999986 5.5439999999999987 -1.6000000000000023 -1.1999999999999986 8.7440000000000015 1.6000000000000003 F #
plane-surface $-1 -1 -1 $-1 -4 -2.9409830056250508 6.8500000000000023 -1 0 0 0 0 1 forward_v I I I I #
face $-1 -1 -1 $-1 $687 $524 $4 $-1 $622 forward single T -0.6999999999999994 5.0515708447966965 4.0715708447966952 -0.49999999999999634 6.0315708447966987 6.0315708447966996 F #
cone-surface $-1 -1 -1 $-1 -0.49999999999999634 5.0515708447966965 5.0515708447966974 -1 0 0 0 1.2001538631644087e-16 0.98000000000000187 1 I I -0.70710678118654602 0.70710678118654902 0.98000000000000187 forward I I I I #
coedge $-1 -1 -1 $-1 $526 $555 $688 $689 forward $403 $-1 #
coedge $-1 -1 -1 $-1 $536 $530 $526 $625 reversed $537 $-1 #
edge $-1 -1 -1 $-1 $690 -0.0012489995996796703 $532 -0.0005272857384758297 $526 $691 forward @7 unknown T -1.1999999999999986 -1.0000000000000002 -8.3929995996796443 -1.1999999999999986 -1 -7.6712857384758042 #
face $-1 -1 -1 $-1 $621 $692 $4 $-1 $693 forward single T -4.5000000000000009 -7.1440000000000028 -1.1304999999999998 -1.1999999999999986 -6.0135000000000023 1.1305000000000027 F #
loop $-1 -1 -1 $-1 $-1 $631 $528 T -1.1999999999999986 -1.5999999999999941 -8.392999599679646 -0.49999999999999917 1.5999999999999941 -5.5439999999999801 unknown #
cone-surface $-1 -1 -1 $-1 -0.49999999999999917 0 -7.1439999999999744 1 0 0 0 0 -1.5999999999999941 1 I I -0 1 1.5999999999999941 forward I I I I #
ellipse-curve $-1 -1 -1 $-1 -1.1999999999999986 0 -7.1439999999999744 1 0 0 0 0 -1.1304999999999998 1 F 1.0855591535037881 F 5.1976261536757979 #
point $-1 -1 -1 $-1 -1.1999999999999986 -1.0000000000000002 -7.6712857384758042 #
coedge $-1 -1 -1 $-1 $688 $534 $536 $634 forward $627 $-1 #
coedge $-1 -1 -1 $-1 $534 $688 $543 $637 reversed $627 $-1 #
straight-curve $-1 -1 -1 $-1 -0.49999999999999917 1.0000000000000002 -8.3929995996796443 1000 0 0 F -0.00069999999999999945 F 0 #
edge $-1 -1 -1 $-1 $538 0.67513153293703543 $690 5.6080537742425509 $631 $694 forward @7 unknown T -1.1999999999999986 -1.5999999999999941 -8.392999599679646 -1.1999999999999986 1.5999999999999941 -5.5439999999999801 #
face $-1 -1 -1 $-1 $695 $537 $4 $-1 $696 forward single T -1.1999999999999986 -1.5999999999999941 -8.392999599679646 -1.1999999999999986 1.5999999999999941 -5.5439999999999801 F #
point $-1 -1 -1 $-1 -1.1999999999999986 1.0000000000000002 -8.3929995996796443 #
edge $-1 -1 -1 $-1 $544 0.67513153293703532 $642 5.6080537742425509 $543 $697 forward @7 unknown T -0.49999999999999917 -1.5999999999999941 -8.392999599679646 -0.49999999999999917 1.5999999999999941 -5.5439999999999801 #
point $-1 -1 -1 $-1 -0.49999999999999917 1 -8.3929995996796443 #
point $-1 -1 -1 $-1 -0.50000000000000056 1.0000000000000002 -9.4472218138455961 #
coedge $-1 -1 -1 $-1 $698 $699 $700 $701 reversed $547 $-1 #
coedge $-1 -1 -1 $-1 $702 $703 $704 $705 forward $552 $-1 #
vertex $-1 -1 -1 $-1 $689 $706 #
straight-curve $-1 -1 -1 $-1 -0.49999999999999917 -1.0000000000000002 1.8041124150158797e-14 0 0 1000 F -0.0094472218138456129 F -0.0083929995996796618 #
coedge $-1 -1 -1 $-1 $707 $707 $708 $709 forward $557 $-1 #
coedge $-1 -1 -1 $-1 $558 $558 $710 $711 forward $440 $-1 #
coedge $-1 -1 -1 $-1 $652 $651 $558 $647 reversed $460 $-1 #
edge $-1 -1 -1 $-1 $712 3.1415926535897931 $713 6.2831853071795862 $558 $714 forward @7 unknown T -0.49999999999999634 -6.0315708447967067 -6.0315708447966641 -0.49999999999999634 -5.0515708447967045 -4.0715708447966596 #
loop $-1 -1 -1 $-1 $675 $563 $577 T 0 -4.6000000000000005 -4.6000000000000005 0 4.6000000000000005 4.6000000000000005 unknown #
vertex $-1 -1 -1 $-1 $564 $715 #
ellipse-curve $-1 -1 -1 $-1 0 -1.5308084989341872e-17 0 -1 0 0 0 4.6000000000000005 1.0214051826551441e-15 1 I I #
coedge $-1 -1 -1 $-1 $646 $569 $716 $717 forward $460 $-1 #
coedge $-1 -1 -1 $-1 $569 $646 $656 $718 reversed $460 $-1 #
loop $-1 -1 -1 $-1 $662 $719 $368 T -0.49999999999999917 5.5440000000000023 -1.6000000000000019 -0.49999999999999917 8.7440000000000015 1.6000000000000003 unknown #
ellipse-curve $-1 -1 -1 $-1 -0.49999999999999917 -5.0515708447967 5.0515708447966974 1 0 -0 0 1.2552629691260371e-16 1.0250000000000001 1 F 1.2246467991473532e-16 F 3.1415926535897931 #
cone-surface $-1 -1 -1 $-1 -0.24999999999999886 0 0 1 -6.1232339957367673e-17 -1.6081226496766368e-16 2.816687638038915e-16 4.6000000000000005 1.0214051826551441e-15 1 I I -0 1 4.6000000000000005 forward I I I I #
coedge $-1 -1 -1 $-1 $710 $679 $652 $718 forward $578 $-1 #
ellipse-curve $-1 -1 -1 $-1 -1.1999999999999986 7.1440000000000019 0 1 0 -0 0 1.3844632064360825e-16 1.1304999999999998 1 F 3.1415926535897918 F 6.2831853071795862 #
face $-1 -1 -1 $-1 $306 $720 $4 $-1 $721 forward single T -0.70000000000000628 5.0515708447966698 -6.0765708447966986 -0.49999999999999772 6.0765708447966702 -4.026570844796697 F #
loop $-1 -1 -1 $-1 $489 $722 $582 T -1.1999999999999986 -8.2745000000000033 -1.1304999999999998 -1.1999999999999986 -6.0135000000000023 1.1305000000000027 unknown #
plane-surface $-1 -1 -1 $-1 -1.1999999999999986 -8.2745000000000015 4.1633363423443378e-15 -1 -0 0 0 -1.2246467991473532e-16 -1 forward_v I I I I #
coedge $-1 -1 -1 $-1 $584 $584 $586 $664 forward $662 $-1 #
loop $-1 -1 -1 $-1 $256 $661 $368 T -0.49999999999999634 4.0715708447966943 4.0715708447966952 -0.49999999999999634 6.0315708447966987 6.0315708447966996 unknown #
ellipse-curve $-1 -1 -1 $-1 -0.49999999999999634 5.0515708447966965 5.0515708447966974 1 0 -0 0 1.2001538631644087e-16 0.98000000000000187 1 F 1.2246467991473535e-16 F 3.1415926535897931 #
edge $-1 -1 -1 $-1 $587 3.1415926535897931 $617 6.2831853071795862 $661 $723 forward @7 unknown T -0.49999999999999634 5.0515708447966965 4.0715708447966952 -0.49999999999999634 6.0315708447966987 6.0315708447966996 #
point $-1 -1 -1 $-1 -0.49999999999999634 5.0515708447966965 4.0715708447966952 #
coedge $-1 -1 -1 $-1 $590 $589 $724 $725 reversed $591 $-1 #
face $-1 -1 -1 $-1 $726 $591 $4 $-1 $727 forward single T -4 5.0515708447966698 -5.8765708447966869 -0.70000000000000628 5.8765708447966585 -4.226570844796707 F #
coedge $-1 -1 -1 $-1 $728 $729 $593 $669 forward $730 $-1 #
edge $-1 -1 -1 $-1 $672 3.1415926535897931 $670 6.2831853071795862 $668 $731 forward @7 unknown T -0.70000000000000628 4.2265708447966812 -5.8765708447966869 -0.70000000000000628 5.0515708447966698 -4.226570844796707 #
vertex $-1 -1 -1 $-1 $669 $732 #
straight-curve $-1 -1 -1 $-1 -0.49999999999999917 5.0515708447966698 -5.8765708447966869 1000 0 0 F -0.0035000000000000009 F -0.00020000000000000714 #
vertex $-1 -1 -1 $-1 $725 $733 #
straight-curve $-1 -1 -1 $-1 -0.49999999999999917 5.0515708447966698 -4.226570844796707 1000 0 0 F -0.0035000000000000009 F -0.00020000000000000714 #
cone-surface $-1 -1 -1 $-1 -0.49999999999999917 5.0515708447966698 -5.0515708447966974 1 0 0 0 0 -0.82499999999998819 1 I I -0 1 0.82499999999998819 forward I I I I #
loop $-1 -1 -1 $-1 $-1 $600 $577 T -0.49999999999999989 -4.6000000000000005 -4.6000000000000005 -0.49999999999999845 4.6000000000000005 4.6000000000000005 unknown #
vertex $-1 -1 -1 $-1 $601 $734 #
ellipse-curve $-1 -1 -1 $-1 -0.49999999999999917 1.5308084989341918e-17 0 1 -6.1232339957367673e-17 -1.6081226496766368e-16 2.816687638038915e-16 4.6000000000000005 1.0214051826551441e-15 1 I I #
ellipse-curve $-1 -1 -1 $-1 -0.70000000000000362 -5.0515708447967045 -5.0515708447966619 1 0 0 0 0 -0.78000000000000125 1 F 3.1415926535897931 F 6.2831853071795862 #
coedge $-1 -1 -1 $-1 $656 $716 $604 $680 forward $578 $-1 #
edge $-1 -1 -1 $-1 $605 0 $607 3.1415926535897931 $679 $735 forward @7 unknown T -0.70000000000000362 -5.0515708447967045 -5.8315708447966648 -0.70000000000000362 -4.2715708447967033 -4.2715708447966607 #
point $-1 -1 -1 $-1 -0.70000000000000362 -5.0515708447967045 -5.8315708447966648 #
point $-1 -1 -1 $-1 -0.70000000000000362 -5.0515708447967045 -4.2715708447966607 #
ellipse-curve $-1 -1 -1 $-1 -4 -5.0515708447967045 -5.0515708447966619 1 0 0 0 0 -0.78000000000000058 1 F 0 F 3.1415926535897931 #
point $-1 -1 -1 $-1 -0.49999999999999634 5.0515708447966965 6.0315708447966996 #
loop $-1 -1 -1 $-1 $612 $736 $619 T -1.1999999999999986 5.5439999999999987 -1.6000000000000023 -1.1999999999999986 8.7440000000000015 1.6000000000000003 unknown #
plane-surface $-1 -1 -1 $-1 -1.1999999999999986 6.0135000000000023 0 -1 -0 0 0 -1.2246467991473532e-16 -1 forward_v I I I I #
face $-1 -1 -1 $-1 $596 $737 $4 $-1 $738 forward single T -1.1999999999999986 7.1440000000000001 -1.6000000000000023 -0.49999999999999917 8.7440000000000015 1.6000000000000003 F #
coedge $-1 -1 -1 $-1 $632 $631 $623 $689 reversed $627 $-1 #
edge $-1 -1 -1 $-1 $642 0 $690 0.00069999999999999945 $623 $739 forward @7 unknown T -1.1999999999999986 -1.0000000000000002 -8.3929995996796443 -0.49999999999999917 -1 -8.3929995996796443 #
vertex $-1 -1 -1 $-1 $634 $740 #
straight-curve $-1 -1 -1 $-1 -1.1999999999999986 -1.0000000000000002 -7.1439999999999744 0 0 1000 F -0.0012489995996796703 F -0.0005272857384758297 #
loop $-1 -1 -1 $-1 $-1 $741 $626 T -4.5000000000000009 -7.1440000000000028 -1.1304999999999998 -1.1999999999999986 -6.0135000000000023 1.1305000000000027 unknown #
cone-surface $-1 -1 -1 $-1 -0.49999999999999917 -7.1440000000000019 2.7755575615628917e-15 1 -0 -0 0 1.3844632064360825e-16 1.1304999999999998 1 I I -0 1 1.1304999999999998 forward I I I I #
ellipse-curve $-1 -1 -1 $-1 -1.1999999999999986 0 -7.1439999999999744 1 0 0 0 0 -1.5999999999999941 1 F 0.67513153293703543 F 5.6080537742425509 #
face $-1 -1 -1 $-1 $407 $742 $4 $-1 $743 reversed single T -4.5000000000000009 -8.2745000000000033 -1.1304999999999998 -4.5000000000000009 -6.0135000000000023 1.1305000000000027 F #
plane-surface $-1 -1 -1 $-1 -1.1999999999999986 1.1304999999999998 -7.1439999999999744 -1 0 0 0 0 1 forward_v I I I I #
ellipse-curve $-1 -1 -1 $-1 -0.49999999999999917 0 -7.1439999999999744 1 0 0 0 0 -1.5999999999999941 1 F 0.67513153293703532 F 5.6080537742425509 #
coedge $-1 -1 -1 $-1 $744 $640 $745 $746 forward $547 $-1 #
coedge $-1 -1 -1 $-1 $640 $744 $747 $748 reversed $547 $-1 #
coedge $-1 -1 -1 $-1 $749 $749 $640 $701 forward $742 $-1 #
edge $-1 -1 -1 $-1 $750 0 $751 3.1415926535897936 $700 $752 forward @7 unknown T -4.5000000000000009 -8.2745000000000033 -1.1304999999999998 -4.5000000000000009 -7.1440000000000019 1.1305000000000025 #
coedge $-1 -1 -1 $-1 $753 $641 $754 $755 forward $552 $-1 #
coedge $-1 -1 -1 $-1 $641 $753 $756 $757 reversed $552 $-1 #
coedge $-1 -1 -1 $-1 $736 $736 $641 $705 reversed $685 $-1 #
edge $-1 -1 -1 $-1 $758 3.1415926535897922 $759 6.2831853071795862 $641 $760 forward @7 unknown T -1.1999999999999986 5.5439999999999987 -1.6000000000000023 -1.1999999999999986 7.1440000000000019 1.6000000000000003 #
point $-1 -1 -1 $-1 -0.49999999999999917 -1.0000000000000002 -8.3929995996796443 #
coedge $-1 -1 -1 $-1 $644 $644 $761 $762 forward $557 $-1 #
coedge $-1 -1 -1 $-1 $729 $728 $644 $709 reversed $730 $-1 #
edge $-1 -1 -1 $-1 $763 3.1415926535897931 $764 6.2831853071795862 $644 $765 forward @7 unknown T -0.49999999999999772 4.0265708447966695 -6.0765708447966986 -0.49999999999999772 5.0515708447966698 -4.026570844796697 #
coedge $-1 -1 -1 $-1 $716 $656 $645 $711 reversed $578 $-1 #
edge $-1 -1 -1 $-1 $713 0 $712 3.1415926535897931 $645 $766 forward @7 unknown T -0.49999999999999634 -5.0515708447967045 -6.0315708447966641 -0.49999999999999634 -4.0715708447967023 -4.0715708447966596 #
vertex $-1 -1 -1 $-1 $718 $767 #
vertex $-1 -1 -1 $-1 $717 $768 #
ellipse-curve $-1 -1 -1 $-1 -0.49999999999999634 -5.0515708447967045 -5.0515708447966619 1 0 0 0 0 -0.98000000000000187 1 F 3.1415926535897931 F 6.2831853071795862 #
point $-1 -1 -1 $-1 0 4.6000000000000005 2.7755575615628917e-15 #
coedge $-1 -1 -1 $-1 $679 $710 $651 $717 reversed $578 $-1 #
edge $-1 -1 -1 $-1 $605 -0.000282842712474622 $713 0 $651 $769 forward @7 unknown T -0.70000000000000362 -5.0515708447967045 -6.0315708447966614 -0.49999999999999634 -5.0515708447967045 -5.831570844796663 #
edge $-1 -1 -1 $-1 $607 -0.00028284271247462449 $712 0 $656 $770 forward @7 unknown T -0.70000000000000373 -5.0515708447967045 -4.2715708447966607 -0.49999999999999634 -5.0515708447967045 -4.0715708447966605 #
coedge $-1 -1 -1 $-1 $771 $771 $753 $772 forward $653 $-1 #
loop $-1 -1 -1 $-1 $-1 $773 $658 T -0.70000000000000628 5.0515708447966698 -6.0765708447966986 -0.49999999999999772 6.0765708447966702 -4.026570844796697 periphery $721 F #
cone-surface $-1 -1 -1 $-1 -0.49999999999999772 5.0515708447966698 -5.0515708447966974 -1 0 0 0 0 -1.0250000000000001 1 I I -0.70710678118655368 0.70710678118654147 1.0250000000000001 forward I I I I #
coedge $-1 -1 -1 $-1 $774 $774 $744 $775 forward $659 $-1 #
ellipse-curve $-1 -1 -1 $-1 -0.49999999999999634 5.0515708447966965 5.0515708447966974 1 0 -0 0 1.2001538631644087e-16 0.98000000000000187 1 F 3.1415926535897931 F 6.2831853071795862 #
coedge $-1 -1 -1 $-1 $773 $776 $666 $725 forward $720 $-1 #
edge $-1 -1 -1 $-1 $670 0 $672 3.1415926535897931 $724 $777 forward @7 unknown T -0.70000000000000628 5.0515708447966698 -5.8765708447966869 -0.70000000000000628 5.8765708447966585 -4.226570844796707 #
face $-1 -1 -1 $-1 $223 $730 $4 $-1 $778 forward single T -0.70000000000000628 4.0265708447966695 -6.0765708447966986 -0.49999999999999772 5.0515708447966698 -4.026570844796697 F #
cone-surface $-1 -1 -1 $-1 -0.49999999999999917 5.0515708447966698 -5.0515708447966974 1 0 0 0 0 -0.82499999999998819 1 I I -0 1 0.82499999999998819 forward I I I I #
coedge $-1 -1 -1 $-1 $708 $668 $776 $779 forward $730 $-1 #
coedge $-1 -1 -1 $-1 $668 $708 $773 $780 reversed $730 $-1 #
loop $-1 -1 -1 $-1 $-1 $668 $726 T -0.70000000000000628 4.0265708447966695 -6.0765708447966986 -0.49999999999999772 5.0515708447966698 -4.026570844796697 periphery $778 F #
ellipse-curve $-1 -1 -1 $-1 -0.70000000000000628 5.0515708447966698 -5.0515708447966974 1 0 0 0 0 -0.82499999999998908 1 F 3.1415926535897931 F 6.2831853071795862 #
point $-1 -1 -1 $-1 -0.70000000000000628 5.0515708447966698 -5.8765708447966869 #
point $-1 -1 -1 $-1 -0.70000000000000628 5.0515708447966698 -4.226570844796707 #
point $-1 -1 -1 $-1 -0.49999999999999917 4.6000000000000005 2.7755575615628917e-15 #
ellipse-curve $-1 -1 -1 $-1 -0.70000000000000362 -5.0515708447967045 -5.0515708447966619 1 0 0 0 0 -0.78000000000000125 1 F 0 F 3.1415926535897931 #
coedge $-1 -1 -1 $-1 $704 $704 $781 $782 reversed $685 $-1 #
loop $-1 -1 -1 $-1 $-1 $783 $687 T -1.1999999999999986 7.1440000000000001 -1.6000000000000023 -0.49999999999999917 8.7440000000000015 1.6000000000000003 unknown #
cone-surface $-1 -1 -1 $-1 -0.49999999999999917 7.1440000000000019 0 1 -0 -0 0 1.9594348786357642e-16 1.5999999999999992 1 I I -0 1 1.5999999999999992 forward I I I I #
straight-curve $-1 -1 -1 $-1 -0.49999999999999917 -1.0000000000000002 -8.3929995996796443 -1000 0 0 F 0 F 0.00069999999999999945 #
point $-1 -1 -1 $-1 -1.1999999999999986 -1 -8.3929995996796443 #
coedge $-1 -1 -1 $-1 $745 $747 $774 $784 reversed $692 $-1 #
loop $-1 -1 -1 $-1 $-1 $749 $695 T -4.5000000000000009 -8.2745000000000033 -1.1304999999999998 -4.5000000000000009 -6.0135000000000023 1.1305000000000027 unknown #
plane-surface $-1 -1 -1 $-1 -4.5000000000000009 -0.5500000000000026 5.0000000000000027 1 0 0 0 0 -1 forward_v I I I I #
coedge $-1 -1 -1 $-1 $699 $698 $722 $775 reversed $547 $-1 #
coedge $-1 -1 -1 $-1 $785 $741 $698 $746 reversed $692 $-1 #
edge $-1 -1 -1 $-1 $750 -0.0040000000000000018 $786 -0.00069999999999999945 $698 $787 forward @7 unknown T -4.5000000000000009 -7.1440000000000028 -1.1304999999999998 -1.1999999999999986 -7.1440000000000028 -1.1304999999999985 #
coedge $-1 -1 -1 $-1 $741 $785 $699 $748 forward $692 $-1 #
edge $-1 -1 -1 $-1 $751 -0.0040000000000000018 $788 -0.00069999999999999945 $747 $789 forward @7 unknown T -4.5000000000000009 -7.1440000000000019 1.1305000000000025 -1.1999999999999986 -7.1440000000000019 1.1305000000000025 #
coedge $-1 -1 -1 $-1 $700 $700 $785 $790 forward $742 $-1 #
vertex $-1 -1 -1 $-1 $746 $791 #
vertex $-1 -1 -1 $-1 $748 $792 #
ellipse-curve $-1 -1 -1 $-1 -4.5000000000000009 -7.1440000000000028 0 -1 -0 -0 0 0 -1.1304999999999998 1 F 0 F 3.1415926535897936 #
coedge $-1 -1 -1 $-1 $703 $702 $719 $772 reversed $552 $-1 #
coedge $-1 -1 -1 $-1 $781 $783 $702 $755 reversed $737 $-1 #
edge $-1 -1 -1 $-1 $759 -0.00069999999999999945 $793 0 $702 $794 forward @7 unknown T -1.1999999999999986 7.1440000000000001 -1.6000000000000019 -0.49999999999999917 7.1440000000000001 -1.6000000000000019 #
coedge $-1 -1 -1 $-1 $783 $781 $703 $757 forward $737 $-1 #
edge $-1 -1 -1 $-1 $758 -0.00069999999999999945 $795 0 $756 $796 forward @7 unknown T -1.1999999999999986 7.1440000000000019 1.6000000000000003 -0.49999999999999917 7.1440000000000019 1.6000000000000003 #
vertex $-1 -1 -1 $-1 $782 $797 #
vertex $-1 -1 -1 $-1 $782 $798 #
ellipse-curve $-1 -1 -1 $-1 -1.1999999999999986 7.1440000000000001 -1.3877787807814459e-15 1 0 0 0 0 -1.600000000000001 1 F 3.1415926535897922 F 6.2831853071795862 #
coedge $-1 -1 -1 $-1 $776 $773 $707 $762 reversed $720 $-1 #
edge $-1 -1 -1 $-1 $764 0 $763 3.1415926535897931 $707 $799 forward @7 unknown T -0.49999999999999772 5.0515708447966698 -6.0765708447966986 -0.49999999999999772 6.0765708447966702 -4.026570844796697 #
vertex $-1 -1 -1 $-1 $780 $800 #
vertex $-1 -1 -1 $-1 $779 $801 #
ellipse-curve $-1 -1 -1 $-1 -0.49999999999999772 5.0515708447966698 -5.0515708447966974 1 0 0 0 0 -1.0250000000000001 1 F 3.1415926535897931 F 6.2831853071795862 #
ellipse-curve $-1 -1 -1 $-1 -0.49999999999999634 -5.0515708447967045 -5.0515708447966619 1 0 0 0 0 -0.98000000000000187 1 F 0 F 3.1415926535897931 #
point $-1 -1 -1 $-1 -0.49999999999999634 -5.0515708447967045 -4.0715708447966605 #
point $-1 -1 -1 $-1 -0.49999999999999634 -5.0515708447967045 -6.0315708447966614 #
straight-curve $-1 -1 -1 $-1 -0.49999999999999634 -5.0515708447967045 -6.0315708447966614 707.10678118655983 0 -707.10678118653527 F -0.000282842712474622 F 0 #
straight-curve $-1 -1 -1 $-1 -0.49999999999999634 -5.0515708447967045 -4.0715708447966605 707.10678118655983 8.6595605623547827e-14 707.10678118653527 F -0.00028284271247462449 F 0 #
coedge $-1 -1 -1 $-1 $719 $719 $783 $802 forward $653 $-1 #
edge $-1 -1 -1 $-1 $795 1.2246467991473532e-16 $793 3.1415926535897922 $719 $803 forward @7 unknown T -0.49999999999999917 5.5440000000000023 -1.6000000000000019 -0.49999999999999917 7.1440000000000019 1.6000000000000003 #
coedge $-1 -1 -1 $-1 $761 $724 $729 $780 forward $720 $-1 #
coedge $-1 -1 -1 $-1 $722 $722 $741 $784 forward $659 $-1 #
edge $-1 -1 -1 $-1 $788 3.1415926535897927 $786 6.2831853071795862 $722 $804 forward @7 unknown T -1.1999999999999986 -8.2745000000000033 -1.1304999999999998 -1.1999999999999986 -7.1440000000000019 1.1305000000000025 #
coedge $-1 -1 -1 $-1 $724 $761 $728 $779 reversed $720 $-1 #
ellipse-curve $-1 -1 -1 $-1 -0.70000000000000628 5.0515708447966698 -5.0515708447966974 1 0 0 0 0 -0.82499999999998908 1 F 0 F 3.1415926535897931 #
cone-surface $-1 -1 -1 $-1 -0.49999999999999772 5.0515708447966698 -5.0515708447966974 -1 0 0 0 0 -1.0250000000000001 1 I I -0.70710678118655368 0.70710678118654147 1.0250000000000001 forward I I I I #
edge $-1 -1 -1 $-1 $670 -0.00028284271247463338 $764 0 $728 $805 forward @7 unknown T -0.70000000000000628 5.0515708447966698 -6.0765708447966986 -0.49999999999999772 5.0515708447966698 -5.8765708447966869 #
edge $-1 -1 -1 $-1 $672 -0.000282842712474631 $763 0 $773 $806 forward @7 unknown T -0.70000000000000628 5.0515708447966698 -4.2265708447967087 -0.49999999999999772 5.0515708447966698 -4.0265708447966988 #
coedge $-1 -1 -1 $-1 $756 $754 $736 $782 forward $737 $-1 #
edge $-1 -1 -1 $-1 $759 0 $758 3.1415926535897922 $781 $807 forward @7 unknown T -1.1999999999999986 7.1440000000000001 -1.6000000000000023 -1.1999999999999986 8.7440000000000015 1.6000000000000003 #
coedge $-1 -1 -1 $-1 $754 $756 $771 $802 reversed $737 $-1 #
edge $-1 -1 -1 $-1 $786 3.1415926535897927 $788 6.2831853071795862 $774 $808 forward @7 unknown T -1.1999999999999986 -7.1440000000000028 -1.1304999999999998 -1.1999999999999986 -6.0135000000000023 1.1305000000000027 #
coedge $-1 -1 -1 $-1 $747 $745 $749 $790 reversed $692 $-1 #
vertex $-1 -1 -1 $-1 $746 $809 #
straight-curve $-1 -1 -1 $-1 -0.49999999999999917 -7.1440000000000028 -1.1304999999999998 1000 0 0 F -0.0040000000000000018 F -0.00069999999999999945 #
vertex $-1 -1 -1 $-1 $748 $810 #
straight-curve $-1 -1 -1 $-1 -0.49999999999999917 -7.1440000000000019 1.1305000000000025 1000 0 0 F -0.0040000000000000018 F -0.00069999999999999945 #
edge $-1 -1 -1 $-1 $751 0 $750 3.1415926535897936 $749 $811 forward @7 unknown T -4.5000000000000009 -7.1440000000000028 -1.1304999999999985 -4.5000000000000009 -6.0135000000000023 1.1305000000000027 #
point $-1 -1 -1 $-1 -4.5000000000000009 -7.1440000000000028 -1.1304999999999985 #
point $-1 -1 -1 $-1 -4.5000000000000009 -7.1440000000000019 1.1305000000000025 #
vertex $-1 -1 -1 $-1 $755 $812 #
straight-curve $-1 -1 -1 $-1 -0.49999999999999917 7.1440000000000001 -1.6000000000000019 1000 0 0 F -0.00069999999999999945 F 0 #
vertex $-1 -1 -1 $-1 $757 $813 #
straight-curve $-1 -1 -1 $-1 -0.49999999999999917 7.1440000000000019 1.6000000000000003 1000 0 0 F -0.00069999999999999945 F 0 #
point $-1 -1 -1 $-1 -1.1999999999999986 7.1440000000000019 1.6000000000000003 #
point $-1 -1 -1 $-1 -1.1999999999999986 7.1440000000000001 -1.6000000000000019 #
ellipse-curve $-1 -1 -1 $-1 -0.49999999999999772 5.0515708447966698 -5.0515708447966974 1 0 0 0 0 -1.0250000000000001 1 F 0 F 3.1415926535897931 #
point $-1 -1 -1 $-1 -0.49999999999999772 5.0515708447966698 -4.0265708447966988 #
point $-1 -1 -1 $-1 -0.49999999999999772 5.0515708447966698 -6.0765708447966986 #
edge $-1 -1 -1 $-1 $793 3.1415926535897922 $795 6.2831853071795862 $771 $814 forward @7 unknown T -0.49999999999999917 7.1440000000000001 -1.6000000000000019 -0.49999999999999917 8.7440000000000015 1.6000000000000003 #
ellipse-curve $-1 -1 -1 $-1 -0.49999999999999917 7.1440000000000019 0 1 0 -0 0 1.9594348786357642e-16 1.5999999999999992 1 F 1.2246467991473532e-16 F 3.1415926535897922 #
ellipse-curve $-1 -1 -1 $-1 -1.1999999999999986 -7.1440000000000028 0 1 0 0 0 0 -1.1304999999999998 1 F 3.1415926535897927 F 6.2831853071795862 #
straight-curve $-1 -1 -1 $-1 -0.49999999999999772 5.0515708447966698 -6.0765708447966986 707.10678118654141 0 -707.10678118655369 F -0.00028284271247463338 F 0 #
straight-curve $-1 -1 -1 $-1 -0.49999999999999772 5.0515708447966698 -4.0265708447966988 707.10678118654141 8.6595605623550099e-14 707.10678118655369 F -0.000282842712474631 F 0 #
ellipse-curve $-1 -1 -1 $-1 -1.1999999999999986 7.1440000000000001 -1.3877787807814459e-15 1 0 0 0 0 -1.600000000000001 1 F 0 F 3.1415926535897922 #
ellipse-curve $-1 -1 -1 $-1 -1.1999999999999986 -7.1440000000000019 2.7755575615628917e-15 1 0 -0 0 1.3844632064360825e-16 1.1304999999999998 1 F 3.1415926535897927 F 6.2831853071795862 #
point $-1 -1 -1 $-1 -1.1999999999999986 -7.1440000000000028 -1.1304999999999998 #
point $-1 -1 -1 $-1 -1.1999999999999986 -7.1440000000000019 1.1305000000000025 #
ellipse-curve $-1 -1 -1 $-1 -4.5000000000000009 -7.1440000000000019 2.7755575615628917e-15 -1 0 0 0 1.3844632064360825e-16 1.1304999999999998 1 F 0 F 3.1415926535897936 #
point $-1 -1 -1 $-1 -0.49999999999999917 7.1440000000000001 -1.6000000000000019 #
point $-1 -1 -1 $-1 -0.49999999999999917 7.1440000000000019 1.6000000000000003 #
ellipse-curve $-1 -1 -1 $-1 -0.49999999999999917 7.1440000000000019 0 1 0 -0 0 1.9594348786357642e-16 1.5999999999999992 1 F 3.1415926535897922 F 6.2831853071795862 #
End-of-ACIS-data 