2000 0 2 0           
32 SPATIAL - INTEROP Version - 32.0 12 ACIS 32.0 NT 24 Wed Mar 11 20:15:22 2026 
1 9.9999999999999995e-07 1e-10 
body $2 -1 -1 $-1 $3 $-1 $-1 T -0.88500000000000012 -0.88500000000000012 -4.0000000000000009 0.88500000000000012 0.88500000000000012 0 #
body $4 -1 -1 $-1 $5 $-1 $-1 T -0.88000000000000023 -0.88000000000000023 0 0.88000000000000023 0.88000000000000023 4.0000000000000009 #
string_attrib-name_attrib-gen-attrib $-1 -1 $6 $-1 $0 2 1 1 1 1 1 1 1 1 1 1 1 1 1 0 1 1 1 @17 ATTRIB_XACIS_NAME @7 Box1318 #
lump $-1 -1 -1 $-1 $-1 $7 $0 T -0.88500000000000012 -0.88500000000000012 -4.0000000000000009 0.88500000000000012 0.88500000000000012 0 #
string_attrib-name_attrib-gen-attrib $-1 -1 $8 $-1 $1 2 1 1 1 1 1 1 1 1 1 1 1 1 1 0 1 1 1 @17 ATTRIB_XACIS_NAME @6 Box273 #
lump $-1 -1 -1 $-1 $-1 $9 $1 T -0.88000000000000023 -0.88000000000000023 0 0.88000000000000023 0.88000000000000023 4.0000000000000009 #
rgb_color-st-attrib $-1 -1 $-1 $2 $0 2 1 2 1 1 1 1 1 1 1 1 1 1 1 0 1 1 1 0.56078433990478516 0.68627452850341797 0.56078433990478516 #
shell $-1 -1 -1 $-1 $-1 $-1 $10 $-1 $3 T -0.88500000000000012 -0.88500000000000012 -4.0000000000000009 0.88500000000000012 0.88500000000000012 0 #
rgb_color-st-attrib $-1 -1 $-1 $4 $1 2 1 2 1 1 1 1 1 1 1 1 1 1 1 0 1 1 1 0.56078433990478516 0.68627452850341797 0.56078433990478516 #
shell $-1 -1 -1 $-1 $-1 $-1 $11 $-1 $5 T -0.88000000000000023 -0.88000000000000023 0 0.88000000000000023 0.88000000000000023 4.0000000000000009 #
face $-1 -1 -1 $-1 $12 $13 $7 $-1 $14 forward single T -0.78500000000000025 -0.78499999999999925 -4.0000000000000009 0.78500000000000025 9.6134773733067113e-17 -0.10000000000000002 F #
face $-1 -1 -1 $-1 $15 $16 $9 $-1 $17 forward single T -0.78000000000000025 -0.77999999999999914 4.0000000000000009 0.78000000000000025 0.77999999999999914 4.0000000000000009 F #
face $-1 -1 -1 $-1 $18 $19 $7 $-1 $20 forward single T -0.88500000000000012 -0.88500000000000012 -0.10000000000000002 0.88500000000000012 9.6134773733067113e-17 0 F #
loop $-1 -1 -1 $-1 $-1 $21 $10 T -0.78500000000000025 -0.78499999999999925 -4.0000000000000009 0.78500000000000025 9.6134773733067113e-17 -0.10000000000000002 unknown #
cone-surface $-1 -1 -1 $-1 0 0 0 0 -0 1 -0.78499999999999814 0 0 1 I I -0 1 0.78499999999999814 forward I I I I #
face $-1 -1 -1 $-1 $22 $23 $9 $-1 $24 forward single T -0.88000000000000023 -1.0776891832496709e-16 0 0.88000000000000023 0.88000000000000023 0.099999999999999409 F #
loop $-1 -1 -1 $-1 $-1 $25 $11 T -0.78000000000000025 -0.77999999999999914 4.0000000000000009 0.78000000000000025 0.77999999999999914 4.0000000000000009 unknown #
plane-surface $-1 -1 -1 $-1 0 0 4.0000000000000009 0 0 1 1 0 0 forward_v I I I I #
face $-1 -1 -1 $-1 $26 $27 $7 $-1 $28 forward single T -0.78500000000000025 0 -4.0000000000000009 0.78500000000000025 0.78499999999999925 -0.10000000000000002 F #
loop $-1 -1 -1 $-1 $-1 $29 $12 T -0.88500000000000012 -0.88500000000000012 -0.10000000000000002 0.88500000000000012 9.6134773733067113e-17 0 periphery $20 F #
cone-surface $-1 -1 -1 $-1 0 0 0 0 0 -1 -0.88500000000000012 0 0 1 I I -0.70710678118655101 0.70710678118654413 0.88500000000000012 forward I I I I #
coedge $-1 -1 -1 $-1 $30 $31 $32 $33 reversed $13 $-1 #
face $-1 -1 -1 $-1 $34 $35 $9 $-1 $36 reversed single T -0.88000000000000023 -0.88000000000000023 0 0.88000000000000023 0.88000000000000023 0 F #
loop $-1 -1 -1 $-1 $-1 $37 $15 T -0.88000000000000023 -1.0776891832496709e-16 0 0.88000000000000023 0.88000000000000023 0.099999999999999409 periphery $24 F #
cone-surface $-1 -1 -1 $-1 0 0 0 -0 0 1 0.88000000000000023 0 0 1 I I -0.70710678118655101 0.70710678118654413 0.88000000000000023 forward I I I I #
coedge $-1 -1 -1 $-1 $38 $38 $39 $40 forward $16 $-1 #
face $-1 -1 -1 $-1 $41 $42 $7 $-1 $43 reversed single T -0.78500000000000025 -0.78499999999999814 -4.0000000000000009 0.78500000000000025 0.78499999999999814 -4.0000000000000009 F #
loop $-1 -1 -1 $-1 $-1 $44 $18 T -0.78500000000000025 0 -4.0000000000000009 0.78500000000000025 0.78499999999999925 -0.10000000000000002 unknown #
cone-surface $-1 -1 -1 $-1 0 0 0 0 -0 1 -0.78499999999999814 0 0 1 I I -0 1 0.78499999999999814 forward I I I I #
coedge $-1 -1 -1 $-1 $45 $46 $47 $48 reversed $19 $-1 #
coedge $-1 -1 -1 $-1 $47 $21 $44 $49 forward $13 $-1 #
coedge $-1 -1 -1 $-1 $21 $47 $50 $51 reversed $13 $-1 #
coedge $-1 -1 -1 $-1 $52 $52 $21 $33 forward $42 $-1 #
edge $-1 -1 -1 $-1 $53 3.1415926535897931 $54 6.2831853071795862 $32 $55 forward @7 unknown T -0.78500000000000025 -0.78499999999999814 -4.0000000000000009 0.78500000000000025 9.6134773733066977e-17 -4.0000000000000009 #
face $-1 -1 -1 $-1 $56 $57 $9 $-1 $58 forward single T -0.78000000000000025 0 0.099999999999999409 0.78000000000000025 0.77999999999999914 4.0000000000000009 F #
loop $-1 -1 -1 $-1 $-1 $59 $22 T -0.88000000000000023 -0.88000000000000023 0 0.88000000000000023 0.88000000000000023 0 unknown #
plane-surface $-1 -1 -1 $-1 0 0 0 0 0 1 1 0 0 forward_v I I I I #
coedge $-1 -1 -1 $-1 $60 $61 $62 $63 reversed $23 $-1 #
coedge $-1 -1 -1 $-1 $25 $25 $64 $65 forward $16 $-1 #
coedge $-1 -1 -1 $-1 $66 $67 $25 $40 reversed $68 $-1 #
edge $-1 -1 -1 $-1 $69 3.1415926535897931 $70 6.2831853071795862 $25 $71 forward @7 unknown T -0.78000000000000025 -0.77999999999999914 4.0000000000000009 0.78000000000000025 9.5522450333493425e-17 4.0000000000000009 #
face $-1 -1 -1 $-1 $72 $73 $7 $-1 $74 forward single T -0.88500000000000012 -0.88500000000000012 0 0.88500000000000012 0.88500000000000012 0 F #
loop $-1 -1 -1 $-1 $-1 $32 $26 T -0.78500000000000025 -0.78499999999999814 -4.0000000000000009 0.78500000000000025 0.78499999999999814 -4.0000000000000009 unknown #
plane-surface $-1 -1 -1 $-1 0 0 -4.0000000000000009 0 0 1 1 0 0 forward_v I I I I #
coedge $-1 -1 -1 $-1 $75 $76 $30 $49 reversed $27 $-1 #
coedge $-1 -1 -1 $-1 $77 $29 $78 $79 forward $19 $-1 #
coedge $-1 -1 -1 $-1 $29 $77 $80 $81 reversed $19 $-1 #
coedge $-1 -1 -1 $-1 $31 $30 $29 $48 forward $13 $-1 #
edge $-1 -1 -1 $-1 $82 3.1415926535897931 $83 6.2831853071795862 $47 $84 forward @7 unknown T -0.78500000000000025 -0.78499999999999925 -0.10000000000000002 0.78500000000000025 9.6134773733067113e-17 -0.10000000000000002 #
edge $-1 -1 -1 $-1 $53 -0.004000000000000001 $82 -0.00010000000000000002 $30 $85 forward @7 unknown T 0.78500000000000025 0 -4.0000000000000009 0.78500000000000025 0 -0.10000000000000002 #
coedge $-1 -1 -1 $-1 $76 $75 $31 $51 forward $27 $-1 #
edge $-1 -1 -1 $-1 $54 -0.004000000000000001 $83 -0.00010000000000000002 $50 $86 forward @7 unknown T -0.78500000000000025 0 -4.0000000000000009 -0.78500000000000025 0 -0.10000000000000002 #
coedge $-1 -1 -1 $-1 $32 $32 $75 $87 forward $42 $-1 #
vertex $-1 -1 -1 $-1 $87 $88 #
vertex $-1 -1 -1 $-1 $87 $89 #
ellipse-curve $-1 -1 -1 $-1 0 0 -4.0000000000000009 0 0 -1 -0.78499999999999814 0 0 1 F 3.1415926535897931 F 6.2831853071795862 #
face $-1 -1 -1 $-1 $90 $91 $9 $-1 $92 forward single T -0.88000000000000023 -0.88000000000000023 0 0.88000000000000023 9.5522450333493425e-17 0.099999999999999409 F #
loop $-1 -1 -1 $-1 $-1 $93 $34 T -0.78000000000000025 0 0.099999999999999409 0.78000000000000025 0.77999999999999914 4.0000000000000009 unknown #
cone-surface $-1 -1 -1 $-1 0 0 0 -0 0 -1 0.77999999999999914 0 0 1 I I -0 1 0.77999999999999914 forward I I I I #
coedge $-1 -1 -1 $-1 $94 $94 $95 $96 forward $35 $-1 #
coedge $-1 -1 -1 $-1 $97 $37 $98 $99 reversed $23 $-1 #
coedge $-1 -1 -1 $-1 $37 $97 $94 $100 reversed $23 $-1 #
coedge $-1 -1 -1 $-1 $95 $101 $37 $63 forward $91 $-1 #
edge $-1 -1 -1 $-1 $102 -0.0001414213562373091 $103 0 $62 $104 forward @7 unknown T -0.88000000000000023 -1.224646799147355e-17 0 -0.78000000000000003 0 0.099999999999999409 #
coedge $-1 -1 -1 $-1 $105 $93 $38 $65 reversed $57 $-1 #
edge $-1 -1 -1 $-1 $70 0 $69 3.1415926535897931 $38 $106 forward @7 unknown T -0.78000000000000025 0 4.0000000000000009 0.78000000000000025 0.77999999999999914 4.0000000000000009 #
coedge $-1 -1 -1 $-1 $107 $39 $93 $108 forward $68 $-1 #
coedge $-1 -1 -1 $-1 $39 $107 $105 $109 reversed $68 $-1 #
loop $-1 -1 -1 $-1 $-1 $39 $90 T -0.78000000000000025 -0.77999999999999914 0.099999999999999409 0.78000000000000025 9.5522450333493425e-17 4.0000000000000009 unknown #
vertex $-1 -1 -1 $-1 $65 $110 #
vertex $-1 -1 -1 $-1 $65 $111 #
ellipse-curve $-1 -1 -1 $-1 0 0 4.0000000000000009 0 0 1 0.77999999999999914 0 0 1 F 3.1415926535897931 F 6.2831853071795862 #
face $-1 -1 -1 $-1 $-1 $112 $7 $-1 $113 forward single T -0.88500000000000012 -1.0838124172454075e-16 -0.10000000000000002 0.88500000000000012 0.88500000000000012 0 F #
loop $-1 -1 -1 $-1 $-1 $114 $41 T -0.88500000000000012 -0.88500000000000012 0 0.88500000000000012 0.88500000000000012 0 unknown #
plane-surface $-1 -1 -1 $-1 0 0 0 0 0 1 1 0 0 forward_v I I I I #
coedge $-1 -1 -1 $-1 $50 $44 $52 $87 reversed $27 $-1 #
coedge $-1 -1 -1 $-1 $44 $50 $115 $116 forward $27 $-1 #
coedge $-1 -1 -1 $-1 $46 $45 $117 $118 reversed $19 $-1 #
coedge $-1 -1 -1 $-1 $115 $119 $45 $79 reversed $112 $-1 #
edge $-1 -1 -1 $-1 $82 -0.00014142135623730948 $120 0 $45 $121 forward @7 unknown T 0.7849999999999997 -1.2246467991473584e-17 -0.10000000000000002 0.88500000000000012 0 0 #
coedge $-1 -1 -1 $-1 $119 $115 $46 $81 forward $112 $-1 #
edge $-1 -1 -1 $-1 $83 -0.00014142135623730948 $122 0 $80 $123 forward @7 unknown T -0.88500000000000012 0 -0.10000000000000002 -0.7849999999999997 0 0 #
vertex $-1 -1 -1 $-1 $116 $124 #
vertex $-1 -1 -1 $-1 $116 $125 #
ellipse-curve $-1 -1 -1 $-1 0 0 -0.10000000000000002 0 0 -1 -0.78499999999999925 0 0 1 F 3.1415926535897931 F 6.2831853071795862 #
straight-curve $-1 -1 -1 $-1 0.78500000000000025 0 0 0 0 1000 F -0.004000000000000001 F -0.00010000000000000002 #
straight-curve $-1 -1 -1 $-1 -0.78500000000000025 0 0 0 0 1000 F -0.004000000000000001 F -0.00010000000000000002 #
edge $-1 -1 -1 $-1 $54 0 $53 3.1415926535897931 $52 $126 forward @7 unknown T -0.78500000000000025 0 -4.0000000000000009 0.78500000000000025 0.78499999999999814 -4.0000000000000009 #
point $-1 -1 -1 $-1 0.78500000000000025 0 -4.0000000000000009 #
point $-1 -1 -1 $-1 -0.78500000000000025 0 -4.0000000000000009 #
face $-1 -1 -1 $-1 $-1 $68 $9 $-1 $127 forward single T -0.78000000000000025 -0.77999999999999914 0.099999999999999409 0.78000000000000025 9.5522450333493425e-17 4.0000000000000009 F #
loop $-1 -1 -1 $-1 $-1 $101 $56 T -0.88000000000000023 -0.88000000000000023 0 0.88000000000000023 9.5522450333493425e-17 0.099999999999999409 periphery $92 F #
cone-surface $-1 -1 -1 $-1 0 0 0 -0 0 1 0.88000000000000023 0 0 1 I I -0.70710678118655101 0.70710678118654413 0.88000000000000023 forward I I I I #
coedge $-1 -1 -1 $-1 $64 $98 $66 $108 reversed $57 $-1 #
coedge $-1 -1 -1 $-1 $59 $59 $61 $100 forward $35 $-1 #
coedge $-1 -1 -1 $-1 $128 $62 $59 $96 reversed $91 $-1 #
edge $-1 -1 -1 $-1 $129 0 $103 3.1415926535897931 $59 $130 forward @7 unknown T -0.88000000000000023 -0.88000000000000023 0 0.88000000000000023 0 0 #
coedge $-1 -1 -1 $-1 $61 $60 $128 $131 forward $23 $-1 #
coedge $-1 -1 -1 $-1 $93 $105 $60 $99 forward $57 $-1 #
edge $-1 -1 -1 $-1 $132 0 $102 3.1415926535897931 $98 $133 forward @7 unknown T -0.78000000000000025 0 0.099999999999999409 0.78000000000000025 0.77999999999999914 0.099999999999999409 #
edge $-1 -1 -1 $-1 $103 3.1415926535897931 $129 6.2831853071795862 $94 $134 forward @7 unknown T -0.88000000000000023 -1.0776891832496709e-16 0 0.88000000000000023 0.88000000000000023 0 #
coedge $-1 -1 -1 $-1 $62 $128 $107 $135 reversed $91 $-1 #
vertex $-1 -1 -1 $-1 $99 $136 #
vertex $-1 -1 -1 $-1 $100 $137 #
straight-curve $-1 -1 -1 $-1 -0.88000000000000023 0 0 -707.10678118655096 8.6595605623549695e-14 -707.10678118654403 F -0.0001414213562373091 F 0 #
coedge $-1 -1 -1 $-1 $98 $64 $67 $109 forward $57 $-1 #
ellipse-curve $-1 -1 -1 $-1 0 0 4.0000000000000009 0 0 1 0.77999999999999914 0 0 1 F 0 F 3.1415926535897931 #
coedge $-1 -1 -1 $-1 $67 $66 $101 $135 forward $68 $-1 #
edge $-1 -1 -1 $-1 $69 -0.004000000000000001 $102 -9.9999999999999408e-05 $66 $138 forward @7 unknown T -0.78000000000000025 0 0.099999999999999409 -0.78000000000000025 0 4.0000000000000009 #
edge $-1 -1 -1 $-1 $70 -0.004000000000000001 $132 -9.9999999999999408e-05 $105 $139 forward @7 unknown T 0.78000000000000025 0 0.099999999999999409 0.78000000000000025 0 4.0000000000000009 #
point $-1 -1 -1 $-1 -0.78000000000000025 0 4.0000000000000009 #
point $-1 -1 -1 $-1 0.78000000000000025 0 4.0000000000000009 #
loop $-1 -1 -1 $-1 $-1 $78 $72 T -0.88500000000000012 -1.0838124172454075e-16 -0.10000000000000002 0.88500000000000012 0.88500000000000012 0 periphery $113 F #
cone-surface $-1 -1 -1 $-1 0 0 0 0 0 -1 -0.88500000000000012 0 0 1 I I -0.70710678118655101 0.70710678118654413 0.88500000000000012 forward I I I I #
coedge $-1 -1 -1 $-1 $117 $117 $119 $140 forward $73 $-1 #
coedge $-1 -1 -1 $-1 $80 $78 $76 $116 reversed $112 $-1 #
edge $-1 -1 -1 $-1 $83 0 $82 3.1415926535897931 $76 $141 forward @7 unknown T -0.78500000000000025 0 -0.10000000000000002 0.78500000000000025 0.78499999999999925 -0.10000000000000002 #
coedge $-1 -1 -1 $-1 $114 $114 $77 $118 forward $73 $-1 #
edge $-1 -1 -1 $-1 $122 0 $120 3.1415926535897931 $117 $142 forward @7 unknown T -0.88500000000000012 -0.88500000000000012 0 0.88500000000000012 0 0 #
coedge $-1 -1 -1 $-1 $78 $80 $114 $140 reversed $112 $-1 #
vertex $-1 -1 -1 $-1 $140 $143 #
straight-curve $-1 -1 -1 $-1 0.88500000000000012 0 0 707.10678118655096 8.6595605623549695e-14 707.10678118654403 F -0.00014142135623730948 F 0 #
vertex $-1 -1 -1 $-1 $140 $144 #
straight-curve $-1 -1 -1 $-1 -0.88500000000000012 0 0 -707.10678118655096 0 707.10678118654403 F -0.00014142135623730948 F 0 #
point $-1 -1 -1 $-1 0.78500000000000025 0 -0.10000000000000002 #
point $-1 -1 -1 $-1 -0.78500000000000025 0 -0.10000000000000002 #
ellipse-curve $-1 -1 -1 $-1 0 0 -4.0000000000000009 0 0 -1 -0.78499999999999814 0 0 1 F 0 F 3.1415926535897931 #
cone-surface $-1 -1 -1 $-1 0 0 0 -0 0 -1 0.77999999999999914 0 0 1 I I -0 1 0.77999999999999914 forward I I I I #
coedge $-1 -1 -1 $-1 $101 $95 $97 $131 reversed $91 $-1 #
vertex $-1 -1 -1 $-1 $100 $145 #
ellipse-curve $-1 -1 -1 $-1 0 0 0 0 0 -1 0.88000000000000023 0 0 1 F 0 F 3.1415926535897931 #
edge $-1 -1 -1 $-1 $132 -0.0001414213562373091 $129 0 $97 $146 forward @7 unknown T 0.78000000000000003 0 0 0.88000000000000023 0 0.099999999999999409 #
vertex $-1 -1 -1 $-1 $99 $147 #
ellipse-curve $-1 -1 -1 $-1 0 0 0.099999999999999409 0 0 1 0.77999999999999914 0 0 1 F 0 F 3.1415926535897931 #
ellipse-curve $-1 -1 -1 $-1 0 0 0 0 0 -1 0.88000000000000023 0 0 1 F 3.1415926535897931 F 6.2831853071795862 #
edge $-1 -1 -1 $-1 $102 3.1415926535897931 $132 6.2831853071795862 $107 $148 forward @7 unknown T -0.78000000000000025 -0.77999999999999914 0.099999999999999409 0.78000000000000025 9.5522450333493425e-17 0.099999999999999409 #
point $-1 -1 -1 $-1 -0.78000000000000025 0 0.099999999999999409 #
point $-1 -1 -1 $-1 -0.88000000000000023 0 0 #
straight-curve $-1 -1 -1 $-1 -0.78000000000000025 0 0 0 0 -1000 F -0.004000000000000001 F -9.9999999999999408e-05 #
straight-curve $-1 -1 -1 $-1 0.78000000000000025 0 0 0 0 -1000 F -0.004000000000000001 F -9.9999999999999408e-05 #
edge $-1 -1 -1 $-1 $120 3.1415926535897931 $122 6.2831853071795862 $114 $149 forward @7 unknown T -0.88500000000000012 -1.0838124172454075e-16 0 0.88500000000000012 0.88500000000000012 0 #
ellipse-curve $-1 -1 -1 $-1 0 0 -0.10000000000000002 0 0 -1 -0.78499999999999925 0 0 1 F 0 F 3.1415926535897931 #
ellipse-curve $-1 -1 -1 $-1 0 0 0 0 0 1 -0.88500000000000012 0 0 1 F 0 F 3.1415926535897931 #
point $-1 -1 -1 $-1 0.88500000000000012 0 0 #
point $-1 -1 -1 $-1 -0.88500000000000012 0 0 #
point $-1 -1 -1 $-1 0.88000000000000023 0 0 #
straight-curve $-1 -1 -1 $-1 0.88000000000000023 0 0 707.10678118655096 0 -707.10678118654403 F -0.0001414213562373091 F 0 #
point $-1 -1 -1 $-1 0.78000000000000025 0 0.099999999999999409 #
ellipse-curve $-1 -1 -1 $-1 0 0 0.099999999999999409 0 0 1 0.77999999999999914 0 0 1 F 3.1415926535897931 F 6.2831853071795862 #
ellipse-curve $-1 -1 -1 $-1 0 0 0 0 0 1 -0.88500000000000012 0 0 1 F 3.1415926535897931 F 6.2831853071795862 #
End-of-ACIS-data 