1900 0 1 0           
20 CST MICROWAVE STUDIO 14 ACIS 34.0.1 NT 24 Tue Mar 31 21:19:17 2026 
1 9.9999999999999995e-07 1e-10 
body $1 -1 -1 $-1 $2 $-1 $-1 T -0.88500000000000012 -0.88500000000000012 -4.0000000000000009 0.88500000000000012 0.88500000000000012 4.0000000000000009 #
rgb_color-st-attrib $-1 -1 $3 $-1 $0 2 1 2 1 1 1 1 1 1 1 1 1 1 1 0 1 1 1 0.56078386306762695 0.68627506494522095 0.56078386306762695 #
lump $-1 -1 -1 $-1 $-1 $4 $0 T -0.88500000000000012 -0.88500000000000012 -4.0000000000000009 0.88500000000000012 0.88500000000000012 4.0000000000000009 #
name_attrib-gen-attrib $-1 -1 $5 $1 $0 2 1 1 1 1 1 1 1 1 1 1 1 1 1 0 1 1 1 @27 c0.560784 0.686275 0.560784 #
shell $-1 -1 -1 $-1 $-1 $-1 $6 $-1 $2 T -0.88500000000000012 -0.88500000000000012 -4.0000000000000009 0.88500000000000012 0.88500000000000012 4.0000000000000009 #
integer_attrib-name_attrib-gen-attrib $-1 -1 $7 $3 $0 2 1 1 1 1 1 1 1 1 1 1 1 1 1 0 1 1 1 @4 type 5 #
face $8 -1 -1 $-1 $9 $10 $4 $-1 $11 forward single T -0.77999999999999914 -0.77999999999999914 4.0000000000000009 0.78000000000000025 0.77999999999999914 4.0000000000000009 F #
name_attrib-gen-attrib $-1 -1 $12 $5 $0 2 1 1 1 1 1 1 1 1 1 1 1 1 1 0 1 1 1 @10 mdefault_1 #
integer_attrib-name_attrib-gen-attrib $-1 -1 $13 $-1 $6 2 0 0 1 1 1 1 1 1 1 1 1 1 1 0 1 1 1 @3 fif 0 #
face $14 -1 -1 $-1 $15 $16 $4 $-1 $17 forward single T -0.88000000000000023 -0.88000000000000023 0 0.88000000000000023 0.88000000000000023 0.099999999999999409 F #
loop $-1 -1 -1 $-1 $-1 $18 $6 T -0.77999999999999914 -0.77999999999999914 4.0000000000000009 0.78000000000000025 0.77999999999999914 4.0000000000000009 unknown #
plane-surface $-1 -1 -1 $-1 0 0 4.0000000000000009 0 0 1 1 0 0 forward_v I I I I #
name_attrib-gen-attrib $-1 -1 $19 $7 $0 2 1 1 1 1 1 1 1 1 1 1 1 1 1 0 1 1 1 @13 ndefault:Box2 #
integer_attrib-name_attrib-gen-attrib $-1 -1 $-1 $8 $6 2 1 1 1 1 1 1 1 1 1 1 1 1 1 0 1 1 1 @3 pid 1 #
integer_attrib-name_attrib-gen-attrib $-1 -1 $20 $-1 $9 2 0 0 1 1 1 1 1 1 1 1 1 1 1 0 1 1 1 @3 fif 0 #
face $21 -1 -1 $-1 $22 $23 $4 $-1 $24 forward single T -0.77999999999999914 -0.77999999999999914 0.099999999999999409 0.78000000000000025 0.77999999999999914 4.0000000000000009 F #
loop $-1 -1 -1 $-1 $25 $26 $9 T -0.88000000000000023 -0.88000000000000023 0 0.88000000000000023 0.88000000000000023 0 unknown #
cone-surface $-1 -1 -1 $-1 0 0 0 -0 0 1 0.88000000000000023 0 0 1 I I -0.70710678118655101 0.70710678118654413 0.88000000000000023 forward I I I I #
coedge $-1 -1 -1 $-1 $18 $18 $27 $28 forward $10 $-1 #
integer_attrib-name_attrib-gen-attrib $-1 -1 $29 $12 $0 2 1 1 1 1 1 1 1 1 1 1 1 1 1 0 1 1 1 @3 noe 6 #
integer_attrib-name_attrib-gen-attrib $-1 -1 $-1 $14 $9 2 1 1 1 1 1 1 1 1 1 1 1 1 1 0 1 1 1 @3 pid 3 #
integer_attrib-name_attrib-gen-attrib $-1 -1 $30 $-1 $15 2 0 0 1 1 1 1 1 1 1 1 1 1 1 0 1 1 1 @3 fif 0 #
face $31 -1 -1 $-1 $32 $33 $4 $-1 $34 forward single T -0.78500000000000025 -0.78499999999999925 -4.0000000000000009 0.78499999999999925 0.78499999999999925 -0.10000000000000002 F #
loop $-1 -1 -1 $-1 $35 $36 $15 T -0.77999999999999914 -0.77999999999999914 0.099999999999999409 0.78000000000000025 0.77999999999999914 0.099999999999999409 unknown #
cone-surface $-1 -1 -1 $-1 0 0 0 -0 0 -1 0.77999999999999914 0 0 1 I I -0 1 0.77999999999999914 forward I I I I #
loop $-1 -1 -1 $-1 $-1 $37 $9 T -0.77999999999999914 -0.77999999999999914 0.099999999999999409 0.78000000000000025 0.77999999999999914 0.099999999999999409 unknown #
coedge $-1 -1 -1 $-1 $26 $26 $38 $39 reversed $16 $-1 #
coedge $-1 -1 -1 $-1 $27 $27 $18 $28 reversed $35 $-1 #
edge $40 -1 -1 $-1 $41 0 $41 6.2831853071795862 $18 $42 forward @7 unknown T -0.77999999999999914 -0.77999999999999914 4.0000000000000009 0.78000000000000025 0.77999999999999914 4.0000000000000009 #
integer_attrib-name_attrib-gen-attrib $-1 -1 $43 $19 $0 2 1 1 1 1 1 1 1 1 1 1 1 1 1 0 1 1 1 @3 nof 7 #
integer_attrib-name_attrib-gen-attrib $-1 -1 $-1 $21 $15 2 1 1 1 1 1 1 1 1 1 1 1 1 1 0 1 1 1 @3 pid 4 #
integer_attrib-name_attrib-gen-attrib $-1 -1 $44 $-1 $22 2 0 0 1 1 1 1 1 1 1 1 1 1 1 0 1 1 1 @3 fif 0 #
face $45 -1 -1 $-1 $46 $47 $4 $-1 $48 forward single T -0.88500000000000012 -0.88500000000000012 -0.10000000000000002 0.88500000000000012 0.88500000000000012 0 F #
loop $-1 -1 -1 $-1 $49 $50 $22 T -0.78500000000000025 -0.78499999999999925 -0.10000000000000002 0.78499999999999925 0.78499999999999925 -0.10000000000000002 unknown #
cone-surface $-1 -1 -1 $-1 0 0 0 0 -0 1 -0.78499999999999814 0 0 1 I I -0 1 0.78499999999999814 forward I I I I #
loop $-1 -1 -1 $-1 $-1 $27 $15 T -0.77999999999999914 -0.77999999999999914 4.0000000000000009 0.78000000000000025 0.77999999999999914 4.0000000000000009 unknown #
coedge $-1 -1 -1 $-1 $36 $36 $37 $51 forward $23 $-1 #
coedge $-1 -1 -1 $-1 $37 $37 $36 $51 reversed $25 $-1 #
coedge $-1 -1 -1 $-1 $38 $38 $26 $39 forward $52 $-1 #
edge $53 -1 -1 $-1 $54 0 $54 6.2831853071795862 $38 $55 forward @7 unknown T -0.88000000000000023 -0.88000000000000023 0 0.88000000000000023 0.88000000000000023 0 #
name_attrib-gen-attrib $-1 -1 $56 $-1 $28 2 1 1 1 1 1 1 1 1 1 1 1 1 1 0 1 1 1 @3 eif #
vertex $57 -1 -1 $-1 $28 $58 #
ellipse-curve $-1 -1 -1 $-1 0 0 4.0000000000000009 0 0 1 0.77999999999999914 0 0 1 I I #
cstishape-cst-attrib $-1 -1 $59 $29 $0 1 1 1 1 1 1 1 1 1 1 1 1 0 1 0 1 1 1 513 3 #
integer_attrib-name_attrib-gen-attrib $-1 -1 $-1 $31 $22 2 1 1 1 1 1 1 1 1 1 1 1 1 1 0 1 1 1 @3 pid 5 #
integer_attrib-name_attrib-gen-attrib $-1 -1 $60 $-1 $32 2 0 0 1 1 1 1 1 1 1 1 1 1 1 0 1 1 1 @3 fif 0 #
face $61 -1 -1 $-1 $62 $63 $4 $-1 $64 reversed single T -0.78500000000000025 -0.78499999999999814 -4.0000000000000009 0.78499999999999814 0.78499999999999814 -4.0000000000000009 F #
loop $-1 -1 -1 $-1 $65 $66 $32 T -0.88500000000000012 -0.88500000000000012 0 0.88500000000000012 0.88500000000000012 0 u_sep $48 F #
cone-surface $-1 -1 -1 $-1 0 0 0 0 0 -1 -0.88500000000000012 0 0 1 I I -0.70710678118655101 0.70710678118654413 0.88500000000000012 forward I I I I #
loop $-1 -1 -1 $-1 $-1 $67 $22 T -0.78500000000000025 -0.78499999999999814 -4.0000000000000009 0.78499999999999814 0.78499999999999814 -4.0000000000000009 unknown #
coedge $-1 -1 -1 $-1 $50 $50 $68 $69 forward $33 $-1 #
edge $70 -1 -1 $-1 $71 0 $71 6.2831853071795862 $36 $72 forward @7 unknown T -0.77999999999999914 -0.77999999999999914 0.099999999999999409 0.78000000000000025 0.77999999999999914 0.099999999999999409 #
loop $-1 -1 -1 $-1 $73 $38 $62 T -0.88000000000000023 -0.88000000000000023 0 0.88000000000000023 0.88000000000000023 0 hole $74 F #
name_attrib-gen-attrib $-1 -1 $75 $-1 $39 2 1 1 1 1 1 1 1 1 1 1 1 1 1 0 1 1 1 @3 eif #
vertex $76 -1 -1 $-1 $39 $77 #
ellipse-curve $-1 -1 -1 $-1 0 0 0 -0 -0 -1 0.88000000000000023 0 0 1 I I #
integer_attrib-name_attrib-gen-attrib $-1 -1 $-1 $40 $28 2 1 1 1 1 1 1 1 1 1 1 1 1 1 0 1 1 1 @3 pid 1 #
integer_attrib-name_attrib-gen-attrib $-1 -1 $-1 $-1 $41 2 1 1 1 1 1 1 1 1 1 1 1 1 1 0 1 1 1 @3 pid 1 #
point $-1 -1 -1 $-1 0.78000000000000025 0 4.0000000000000009 #
string_attrib-name_attrib-gen-attrib $-1 -1 $-1 $43 $0 2 1 1 1 1 1 1 1 1 1 1 1 1 1 0 1 1 1 @17 ATTRIB_XACIS_NAME @7 Box1318 #
integer_attrib-name_attrib-gen-attrib $-1 -1 $-1 $45 $32 2 1 1 1 1 1 1 1 1 1 1 1 1 1 0 1 1 1 @3 pid 6 #
integer_attrib-name_attrib-gen-attrib $-1 -1 $78 $-1 $46 2 0 0 1 1 1 1 1 1 1 1 1 1 1 0 1 1 1 @3 fif 0 #
face $79 -1 -1 $-1 $-1 $52 $4 $-1 $74 forward single T -0.88500000000000012 -0.88500000000000012 0 0.88500000000000012 0.88500000000000012 0 F #
loop $-1 -1 -1 $-1 $-1 $80 $46 T -0.78500000000000025 -0.78499999999999814 -4.0000000000000009 0.78499999999999814 0.78499999999999814 -4.0000000000000009 unknown #
plane-surface $-1 -1 -1 $-1 0 0 -4.0000000000000009 0 0 1 1 0 0 forward_v I I I I #
loop $-1 -1 -1 $-1 $-1 $68 $32 T -0.78500000000000025 -0.78499999999999925 -0.10000000000000002 0.78499999999999925 0.78499999999999925 -0.10000000000000002 u_sep $48 F #
coedge $-1 -1 -1 $-1 $66 $66 $81 $82 reversed $47 $-1 #
coedge $-1 -1 -1 $-1 $67 $67 $80 $83 reversed $49 $-1 #
coedge $-1 -1 -1 $-1 $68 $68 $50 $69 reversed $65 $-1 #
edge $84 -1 -1 $-1 $85 0 $85 6.2831853071795862 $50 $86 forward @7 unknown T -0.78500000000000025 -0.78499999999999925 -0.10000000000000002 0.78499999999999925 0.78499999999999925 -0.10000000000000002 #
name_attrib-gen-attrib $-1 -1 $87 $-1 $51 2 1 1 1 1 1 1 1 1 1 1 1 1 1 0 1 1 1 @3 eif #
vertex $88 -1 -1 $-1 $51 $89 #
ellipse-curve $-1 -1 -1 $-1 0 0 0.099999999999999409 0 0 1 0.77999999999999914 0 0 1 I I #
loop $-1 -1 -1 $-1 $-1 $81 $62 T -0.88500000000000012 -0.88500000000000012 0 0.88500000000000012 0.88500000000000012 0 periphery $74 F #
plane-surface $-1 -1 -1 $-1 0 0 0 0 0 1 1 0 0 forward_v I I I I #
integer_attrib-name_attrib-gen-attrib $-1 -1 $-1 $53 $39 2 1 1 1 1 1 1 1 1 1 1 1 1 1 0 1 1 1 @3 pid 7 #
integer_attrib-name_attrib-gen-attrib $-1 -1 $-1 $-1 $54 2 1 1 1 1 1 1 1 1 1 1 1 1 1 0 1 1 1 @3 pid 7 #
point $-1 -1 -1 $-1 0.88000000000000023 0 0 #
integer_attrib-name_attrib-gen-attrib $-1 -1 $-1 $61 $46 2 1 1 1 1 1 1 1 1 1 1 1 1 1 0 1 1 1 @3 pid 7 #
integer_attrib-name_attrib-gen-attrib $-1 -1 $90 $-1 $62 2 0 0 1 1 1 1 1 1 1 1 1 1 1 0 1 1 1 @3 fif 0 #
coedge $-1 -1 -1 $-1 $80 $80 $67 $83 forward $63 $-1 #
coedge $-1 -1 -1 $-1 $81 $81 $66 $82 forward $73 $-1 #
edge $91 -1 -1 $-1 $92 0 $92 6.2831853071795862 $81 $93 forward @7 unknown T -0.88500000000000012 -0.88500000000000012 0 0.88500000000000012 0.88500000000000012 0 #
edge $94 -1 -1 $-1 $95 0 $95 6.2831853071795862 $80 $96 forward @7 unknown T -0.78500000000000025 -0.78499999999999814 -4.0000000000000009 0.78499999999999814 0.78499999999999814 -4.0000000000000009 #
name_attrib-gen-attrib $-1 -1 $97 $-1 $69 2 1 1 1 1 1 1 1 1 1 1 1 1 1 0 1 1 1 @3 eif #
vertex $98 -1 -1 $-1 $69 $99 #
ellipse-curve $-1 -1 -1 $-1 0 0 -0.10000000000000002 0 0 -1 -0.78499999999999925 0 0 1 I I #
integer_attrib-name_attrib-gen-attrib $-1 -1 $-1 $70 $51 2 1 1 1 1 1 1 1 1 1 1 1 1 1 0 1 1 1 @3 pid 3 #
integer_attrib-name_attrib-gen-attrib $-1 -1 $-1 $-1 $71 2 1 1 1 1 1 1 1 1 1 1 1 1 1 0 1 1 1 @3 pid 3 #
point $-1 -1 -1 $-1 0.78000000000000025 0 0.099999999999999409 #
integer_attrib-name_attrib-gen-attrib $-1 -1 $-1 $79 $62 2 1 1 1 1 1 1 1 1 1 1 1 1 1 0 1 1 1 @3 pid 8 #
name_attrib-gen-attrib $-1 -1 $100 $-1 $82 2 1 1 1 1 1 1 1 1 1 1 1 1 1 0 1 1 1 @3 eif #
vertex $101 -1 -1 $-1 $82 $102 #
ellipse-curve $-1 -1 -1 $-1 0 0 0 0 0 1 -0.88500000000000012 0 0 1 I I #
name_attrib-gen-attrib $-1 -1 $103 $-1 $83 2 1 1 1 1 1 1 1 1 1 1 1 1 1 0 1 1 1 @3 eif #
vertex $104 -1 -1 $-1 $83 $105 #
ellipse-curve $-1 -1 -1 $-1 0 0 -4.0000000000000009 0 0 -1 -0.78499999999999814 0 0 1 I I #
integer_attrib-name_attrib-gen-attrib $-1 -1 $-1 $84 $69 2 1 1 1 1 1 1 1 1 1 1 1 1 1 0 1 1 1 @3 pid 4 #
integer_attrib-name_attrib-gen-attrib $-1 -1 $-1 $-1 $85 2 1 1 1 1 1 1 1 1 1 1 1 1 1 0 1 1 1 @3 pid 4 #
point $-1 -1 -1 $-1 -0.78500000000000025 0 -0.10000000000000002 #
integer_attrib-name_attrib-gen-attrib $-1 -1 $-1 $91 $82 2 1 1 1 1 1 1 1 1 1 1 1 1 1 0 1 1 1 @3 pid 6 #
integer_attrib-name_attrib-gen-attrib $-1 -1 $-1 $-1 $92 2 1 1 1 1 1 1 1 1 1 1 1 1 1 0 1 1 1 @3 pid 6 #
point $-1 -1 -1 $-1 -0.88500000000000012 0 0 #
integer_attrib-name_attrib-gen-attrib $-1 -1 $-1 $94 $83 2 1 1 1 1 1 1 1 1 1 1 1 1 1 0 1 1 1 @3 pid 5 #
integer_attrib-name_attrib-gen-attrib $-1 -1 $-1 $-1 $95 2 1 1 1 1 1 1 1 1 1 1 1 1 1 0 1 1 1 @3 pid 5 #
point $-1 -1 -1 $-1 -0.78500000000000025 0 -4.0000000000000009 #
End-of-ACIS-data 