2000 0 1 0           
32 SPATIAL - INTEROP Version - 32.0 12 ACIS 32.0 NT 24 Wed Mar 11 20:15:59 2026 
1 9.9999999999999995e-07 1e-10 
body $1 -1 -1 $-1 $2 $-1 $-1 T -2.0999999996814762 -2.099999999913241 -3.3999999999831814 2.1000000003185244 2.1000000000867733 3.7000000000169999 #
string_attrib-name_attrib-gen-attrib $-1 -1 $3 $-1 $0 2 1 1 1 1 1 1 1 1 1 1 1 1 1 0 1 1 1 @17 ATTRIB_XACIS_NAME @4 Box1 #
lump $-1 -1 -1 $-1 $-1 $4 $0 T -2.0999999996814762 -2.099999999913241 -3.3999999999831814 2.1000000003185244 2.1000000000867733 3.7000000000169999 #
rgb_color-st-attrib $-1 -1 $-1 $1 $0 2 1 2 1 1 1 1 1 1 1 1 1 1 1 0 1 1 1 0.51372551918029785 0.73725491762161255 0.58823531866073608 #
shell $-1 -1 -1 $-1 $-1 $-1 $5 $-1 $2 T -2.0999999996814762 -2.099999999913241 -3.3999999999831814 2.1000000003185244 2.1000000000867733 3.7000000000169999 #
face $-1 -1 -1 $-1 $6 $7 $4 $-1 $8 reversed single T -1.1999999996814756 -1.1999999999132149 1.6825651982799176e-11 1.2000000003185247 1.200000000086785 1.6846968264871979e-11 F #
face $-1 -1 -1 $-1 $9 $10 $4 $-1 $11 forward single T -1.1499999996814818 -1.1499999999129646 -0.34999999998317777 1.1500000003185202 8.7035727905175886e-11 1.6825651982799176e-11 F #
loop $-1 -1 -1 $-1 $12 $13 $5 T -1.1499999996814818 -1.1499999999129646 1.6825651982799176e-11 1.1500000003185202 1.1500000000870356 1.6825651982799176e-11 unknown #
plane-surface $-1 -1 -1 $-1 5.4000000003185216 -2.9999999999129652 1.6825651982799176e-11 0 0 1 1 0 0 forward_v I I I I #
face $-1 -1 -1 $-1 $14 $15 $4 $-1 $16 forward single T -1.1499999996814818 8.7035544208156011e-11 -0.34999999998317777 1.1500000003185202 1.1500000000870356 1.6825651982799176e-11 F #
loop $-1 -1 -1 $-1 $-1 $17 $6 T -1.1499999996814818 -1.1499999999129646 -0.34999999998317777 1.1500000003185202 8.7035727905175886e-11 1.6825651982799176e-11 periphery $11 F #
cone-surface $-1 -1 -1 $-1 3.1851951631800551e-10 8.7035587070793977e-11 1.6825651982799176e-11 0 0 -1 1.1500000000000001 0 0 1 I I -0.70710678118655446 0.70710678118654058 1.1500000000000001 forward I I I I #
loop $-1 -1 -1 $-1 $-1 $18 $5 T -1.1999999996814756 -1.1999999999132149 1.6846968264871979e-11 1.2000000003185247 1.200000000086785 1.6846968264871979e-11 unknown #
coedge $-1 -1 -1 $-1 $19 $19 $20 $21 forward $7 $-1 #
face $-1 -1 -1 $-1 $22 $23 $4 $-1 $24 reversed single T -1.1499999996814818 -1.1499999999127817 -3.3999999999831814 1.1500000003185202 1.1500000000868527 -3.3999999999829957 F #
loop $-1 -1 -1 $-1 $-1 $25 $9 T -1.1499999996814818 8.7035544208156011e-11 -0.34999999998317777 1.1500000003185202 1.1500000000870356 1.6825651982799176e-11 periphery $16 F #
cone-surface $-1 -1 -1 $-1 3.1851951631800551e-10 8.7035587070793977e-11 1.6825651982799176e-11 0 0 -1 1.1500000000000001 0 0 1 I I -0.70710678118655446 0.70710678118654058 1.1500000000000001 forward I I I I #
coedge $-1 -1 -1 $-1 $26 $27 $28 $29 forward $10 $-1 #
coedge $-1 -1 -1 $-1 $30 $30 $31 $32 forward $12 $-1 #
coedge $-1 -1 -1 $-1 $13 $13 $33 $34 forward $7 $-1 #
coedge $-1 -1 -1 $-1 $35 $25 $13 $21 reversed $15 $-1 #
edge $-1 -1 -1 $-1 $36 0 $37 3.1415926535897931 $13 $38 forward @7 unknown T -1.1499999996814818 8.7035587070793977e-11 1.6825651982799176e-11 1.1500000003185202 1.1500000000870356 1.6825651982799176e-11 #
face $-1 -1 -1 $-1 $39 $40 $4 $-1 $41 forward single T -2.0999999996814762 -2.099999999913241 3.7000000000168436 2.1000000003185244 2.1000000000867591 3.7000000000169999 F #
loop $-1 -1 -1 $-1 $-1 $42 $14 T -1.1499999996814818 -1.1499999999127817 -3.3999999999831814 1.1500000003185202 1.1500000000868527 -3.3999999999829957 unknown #
plane-surface $-1 -1 -1 $-1 0.009261791159249912 -0.00659603545660019 -3.3999999999829957 0 0 1 1 0 0 forward_v I I I I #
coedge $-1 -1 -1 $-1 $20 $43 $27 $44 forward $15 $-1 #
coedge $-1 -1 -1 $-1 $33 $17 $35 $45 forward $10 $-1 #
coedge $-1 -1 -1 $-1 $17 $33 $25 $44 reversed $10 $-1 #
coedge $-1 -1 -1 $-1 $46 $47 $17 $29 reversed $48 $-1 #
edge $-1 -1 -1 $-1 $49 3.1415926535897931 $50 6.2831853071795862 $17 $51 forward @7 unknown T -0.79999999968146962 -0.79999999991295268 -0.34999999998317582 0.80000000031850782 8.7035685042537906e-11 -0.34999999998317582 #
coedge $-1 -1 -1 $-1 $18 $18 $52 $53 forward $12 $-1 #
coedge $-1 -1 -1 $-1 $54 $55 $18 $32 reversed $56 $-1 #
edge $-1 -1 -1 $-1 $57 3.1415926535897931 $58 6.2831853071795862 $18 $59 forward @7 unknown T -1.1999999996814756 8.6784946043247027e-11 1.6846968264871979e-11 1.2000000003185247 1.200000000086785 1.6846968264871979e-11 #
coedge $-1 -1 -1 $-1 $27 $26 $19 $34 reversed $10 $-1 #
edge $-1 -1 -1 $-1 $37 3.1415926535897931 $36 6.2831853071795862 $19 $60 forward @7 unknown T -1.1499999996814818 -1.1499999999129646 1.6825651982799176e-11 1.1500000003185202 8.7035727905175886e-11 1.6825651982799176e-11 #
coedge $-1 -1 -1 $-1 $43 $20 $26 $45 reversed $15 $-1 #
vertex $-1 -1 -1 $-1 $21 $61 #
vertex $-1 -1 -1 $-1 $21 $62 #
ellipse-curve $-1 -1 -1 $-1 3.1851951631800551e-10 8.7035587070793977e-11 1.6825651982799176e-11 0 0 1 1.1500000000000001 0 0 1 F 0 F 3.1415926535897931 #
face $-1 -1 -1 $-1 $63 $64 $4 $-1 $65 forward single T -1.09999999968149 -1.099999999913241 0.10000000001684074 1.1000000003185386 8.6784210814362942e-11 1.7000000000168436 F #
loop $-1 -1 -1 $-1 $-1 $66 $22 T -2.0999999996814762 -2.099999999913241 3.7000000000168436 2.1000000003185244 2.1000000000867591 3.7000000000169999 unknown #
plane-surface $-1 -1 -1 $-1 0.009261791159249912 -0.00659603545660019 3.7000000000169999 0 0 1 1 0 0 forward_v I I I I #
coedge $-1 -1 -1 $-1 $67 $67 $68 $69 forward $23 $-1 #
coedge $-1 -1 -1 $-1 $25 $35 $70 $71 forward $15 $-1 #
edge $-1 -1 -1 $-1 $49 -0.00049497474683059283 $37 0 $25 $72 forward @7 unknown T -1.1499999996814818 8.7035544208156011e-11 -0.3499999999831776 -0.79999999968146962 8.7035587070793977e-11 1.6825651982799176e-11 #
edge $-1 -1 -1 $-1 $50 -0.00049497474683059305 $36 0 $26 $73 forward @7 unknown T 0.80000000031850782 8.7035587070793977e-11 -0.34999999998317777 1.1500000003185202 8.7035587070793977e-11 1.6825651982799176e-11 #
coedge $-1 -1 -1 $-1 $74 $28 $75 $76 forward $48 $-1 #
coedge $-1 -1 -1 $-1 $28 $74 $77 $78 reversed $48 $-1 #
loop $-1 -1 -1 $-1 $-1 $46 $79 T -0.79999999968148205 -0.79999999991296489 -3.0499999999831795 0.80000000031852048 8.7035685042537906e-11 -0.34999999998317582 unknown #
vertex $-1 -1 -1 $-1 $44 $80 #
vertex $-1 -1 -1 $-1 $45 $81 #
ellipse-curve $-1 -1 -1 $-1 3.1851951631800551e-10 8.7035587070793977e-11 -0.34999999998317582 0 0 1 0.79999999999998828 0 0 1 F 3.1415926535897931 F 6.2831853071795862 #
coedge $-1 -1 -1 $-1 $82 $83 $30 $53 reversed $84 $-1 #
edge $-1 -1 -1 $-1 $58 0 $57 3.1415926535897931 $30 $85 forward @7 unknown T -1.1999999996814756 -1.1999999999132149 1.6846968264871979e-11 1.2000000003185247 8.6785093000862927e-11 1.6846968264871979e-11 #
coedge $-1 -1 -1 $-1 $86 $31 $83 $87 reversed $56 $-1 #
coedge $-1 -1 -1 $-1 $31 $86 $82 $88 forward $56 $-1 #
loop $-1 -1 -1 $-1 $-1 $86 $89 T -1.1999999996814756 8.6783917455629437e-11 1.6846968264871979e-11 1.2000000003185247 1.200000000086785 0.10000000001685609 periphery $90 F #
vertex $-1 -1 -1 $-1 $53 $91 #
vertex $-1 -1 -1 $-1 $53 $92 #
ellipse-curve $-1 -1 -1 $-1 3.185243735437383e-10 8.6785093000862927e-11 1.6846968264871979e-11 0 0 -1 1.2 0 0 1 F 3.1415926535897931 F 6.2831853071795862 #
ellipse-curve $-1 -1 -1 $-1 3.1851951631800551e-10 8.7035587070793977e-11 1.6825651982799176e-11 0 0 1 1.1500000000000001 0 0 1 F 3.1415926535897931 F 6.2831853071795862 #
point $-1 -1 -1 $-1 1.1500000003185202 8.7035587070793977e-11 1.6825651982799176e-11 #
point $-1 -1 -1 $-1 -1.1499999996814818 8.7035587070793977e-11 1.6825651982799176e-11 #
face $-1 -1 -1 $-1 $93 $94 $4 $-1 $95 forward single T -1.1499999996814829 -1.1499999999127817 -3.3999999999831814 1.1500000003185213 8.7035727905175886e-11 -3.0499999999831795 F #
loop $-1 -1 -1 $-1 $-1 $96 $39 T -1.09999999968149 -1.099999999913241 0.10000000001684074 1.1000000003185386 8.6784210814362942e-11 1.7000000000168436 unknown #
cone-surface $-1 -1 -1 $-1 3.185243735437383e-10 8.6759072148723274e-11 3.7000000000168436 -0 6.9829626776862667e-15 -1 -1.1000000000000143 0 0 1 I I -0 1 1.1000000000000143 forward I I I I #
coedge $-1 -1 -1 $-1 $97 $97 $98 $99 forward $40 $-1 #
coedge $-1 -1 -1 $-1 $42 $42 $100 $101 forward $23 $-1 #
coedge $-1 -1 -1 $-1 $102 $103 $42 $69 reversed $94 $-1 #
edge $-1 -1 -1 $-1 $104 3.1415926535897931 $105 6.2831853071795862 $42 $106 forward @7 unknown T -1.1499999996814818 -1.1499999999127817 -3.3999999999831814 1.1500000003185202 8.7035727905175886e-11 -3.3999999999829957 #
coedge $-1 -1 -1 $-1 $77 $75 $43 $71 reversed $107 $-1 #
edge $-1 -1 -1 $-1 $50 0 $49 3.1415926535897931 $43 $108 forward @7 unknown T -0.79999999968146962 8.7035587070793977e-11 -0.34999999998317582 0.80000000031850782 0.80000000008702388 -0.34999999998317582 #
straight-curve $-1 -1 -1 $-1 -1.1499999996814818 8.7035587070793977e-11 1.6825651982799176e-11 -707.1067811865546 8.6595605623550149e-14 707.1067811865405 F -0.00049497474683059283 F 0 #
straight-curve $-1 -1 -1 $-1 1.1500000003185202 8.7035587070793977e-11 1.6825651982799176e-11 707.1067811865546 0 707.1067811865405 F -0.00049497474683059305 F 0 #
coedge $-1 -1 -1 $-1 $47 $46 $109 $110 forward $48 $-1 #
coedge $-1 -1 -1 $-1 $70 $111 $46 $76 reversed $107 $-1 #
edge $-1 -1 -1 $-1 $49 0.00035000000000000146 $112 0.003050000000000005 $46 $113 forward @7 unknown T -0.79999999968148205 8.7035587070793977e-11 -3.0499999999831795 -0.79999999968146962 8.7035587070793977e-11 -0.34999999998317582 #
coedge $-1 -1 -1 $-1 $111 $70 $47 $78 forward $107 $-1 #
edge $-1 -1 -1 $-1 $50 0.00035000000000000146 $114 0.003050000000000005 $77 $115 forward @7 unknown T 0.80000000031850782 8.7035587070793977e-11 -3.0499999999831795 0.80000000031852048 8.7035587070793977e-11 -0.34999999998317582 #
face $-1 -1 -1 $-1 $116 $48 $4 $-1 $117 forward single T -0.79999999968148205 -0.79999999991296489 -3.0499999999831795 0.80000000031852048 8.7035685042537906e-11 -0.34999999998317582 F #
point $-1 -1 -1 $-1 -0.79999999968146962 8.7035587070793977e-11 -0.34999999998317582 #
point $-1 -1 -1 $-1 0.80000000031850782 8.7035587070793977e-11 -0.34999999998317582 #
coedge $-1 -1 -1 $-1 $118 $52 $55 $88 reversed $84 $-1 #
coedge $-1 -1 -1 $-1 $52 $118 $54 $87 forward $84 $-1 #
loop $-1 -1 -1 $-1 $-1 $83 $116 T -1.1999999996814756 -1.1999999999132149 1.6846968264871979e-11 1.2000000003185247 8.6785093000862927e-11 0.10000000001685359 periphery $119 F #
ellipse-curve $-1 -1 -1 $-1 3.185243735437383e-10 8.6785093000862927e-11 1.6846968264871979e-11 0 0 -1 1.2 0 0 1 F 0 F 3.1415926535897931 #
coedge $-1 -1 -1 $-1 $55 $54 $120 $121 forward $56 $-1 #
edge $-1 -1 -1 $-1 $122 -0.00014142135623730856 $57 0 $83 $123 forward @7 unknown T -1.1999999996814747 8.678405216677734e-11 1.6846968264871979e-11 -1.0999999996814775 8.6785093000862927e-11 0.1000000000168523 #
edge $-1 -1 -1 $-1 $124 -0.0001414213562373104 $58 0 $55 $125 forward @7 unknown T 1.1000000003185249 8.678405216677734e-11 1.6846968264871979e-11 1.2000000003185247 8.6785093000862927e-11 0.10000000001685359 #
face $-1 -1 -1 $-1 $126 $56 $4 $-1 $90 forward single T -1.1999999996814756 8.6783917455629437e-11 1.6846968264871979e-11 1.2000000003185247 1.200000000086785 0.10000000001685609 F #
cone-surface $-1 -1 -1 $-1 3.185243735437383e-10 8.6785093000862927e-11 1.6846968264871979e-11 0 -6.9829626776862667e-15 1 1.2 0 0 1 I I -0.70710678118650505 0.70710678118658998 1.2 forward I I I I #
point $-1 -1 -1 $-1 -1.1999999996814747 8.6785093000862927e-11 1.6846968264871979e-11 #
point $-1 -1 -1 $-1 1.2000000003185247 8.6785093000862927e-11 1.6846968264871979e-11 #
face $-1 -1 -1 $-1 $127 $128 $4 $-1 $129 forward single T -1.1499999996814829 8.7035587070793977e-11 -3.3999999999831814 1.1500000003185213 1.1500000000868527 -3.0499999999831795 F #
loop $-1 -1 -1 $-1 $-1 $109 $63 T -1.1499999996814829 -1.1499999999127817 -3.3999999999831814 1.1500000003185213 8.7035727905175886e-11 -3.0499999999831795 periphery $95 F #
cone-surface $-1 -1 -1 $-1 3.1851951631800551e-10 8.7035587070793977e-11 -3.0499999999831795 0 -0 1 -0.80000000000000049 0 0 1 I I -0.70710678118654757 0.70710678118654757 0.80000000000000049 forward I I I I #
coedge $-1 -1 -1 $-1 $130 $131 $132 $133 reversed $64 $-1 #
coedge $-1 -1 -1 $-1 $66 $66 $134 $135 forward $40 $-1 #
coedge $-1 -1 -1 $-1 $136 $137 $66 $99 reversed $138 $-1 #
edge $-1 -1 -1 $-1 $139 -0 $140 3.1415926535897931 $66 $141 forward @7 unknown T -2.0999999996814762 -2.099999999913241 3.7000000000168436 2.1000000003185244 8.6759766038113665e-11 3.7000000000169999 #
coedge $-1 -1 -1 $-1 $142 $143 $67 $101 reversed $128 $-1 #
edge $-1 -1 -1 $-1 $105 0 $104 3.1415926535897931 $67 $144 forward @7 unknown T -1.1499999996814818 8.7035587070793977e-11 -3.3999999999831814 1.1500000003185202 1.1500000000868527 -3.3999999999829957 #
coedge $-1 -1 -1 $-1 $109 $68 $143 $145 reversed $94 $-1 #
coedge $-1 -1 -1 $-1 $68 $109 $142 $146 forward $94 $-1 #
vertex $-1 -1 -1 $-1 $101 $147 #
vertex $-1 -1 -1 $-1 $101 $148 #
ellipse-curve $-1 -1 -1 $-1 3.1851951631800551e-10 8.7035587070793977e-11 -3.3999999999829957 0 0 -1 -1.1499999999998172 0 0 1 F 3.1415926535897931 F 6.2831853071795862 #
loop $-1 -1 -1 $-1 $-1 $70 $149 T -0.79999999968148205 8.7035587070793977e-11 -3.0499999999831795 0.80000000031852048 0.80000000008703609 -0.34999999998317582 unknown #
ellipse-curve $-1 -1 -1 $-1 3.1851951631800551e-10 8.7035587070793977e-11 -0.34999999998317582 0 0 1 0.79999999999998828 0 0 1 F 0 F 3.1415926535897931 #
coedge $-1 -1 -1 $-1 $103 $102 $74 $110 reversed $94 $-1 #
edge $-1 -1 -1 $-1 $112 3.1415926535897931 $114 6.2831853071795862 $74 $150 forward @7 unknown T -0.79999999968148205 -0.79999999991296489 -3.0499999999831795 0.80000000031852048 8.7035685042537906e-11 -3.0499999999831795 #
coedge $-1 -1 -1 $-1 $75 $77 $151 $152 forward $107 $-1 #
vertex $-1 -1 -1 $-1 $76 $153 #
straight-curve $-1 -1 -1 $-1 -0.79999999968148205 8.7035587070793977e-11 1.6825651982799176e-11 0 0 -1000 F 0.00035000000000000146 F 0.003050000000000005 #
vertex $-1 -1 -1 $-1 $152 $154 #
straight-curve $-1 -1 -1 $-1 0.80000000031852048 8.7035587070793977e-11 1.6825651982799176e-11 0 0 -1000 F 0.00035000000000000146 F 0.003050000000000005 #
face $-1 -1 -1 $-1 $155 $84 $4 $-1 $119 forward single T -1.1999999996814756 -1.1999999999132149 1.6846968264871979e-11 1.2000000003185247 8.6785093000862927e-11 0.10000000001685359 F #
cone-surface $-1 -1 -1 $-1 3.1851951631800551e-10 8.7035587070793977e-11 1.6825651982799176e-11 -0 0 -1 0.80000000000000049 0 0 1 I I -0 1 0.80000000000000049 forward I I I I #
coedge $-1 -1 -1 $-1 $83 $82 $156 $157 forward $84 $-1 #
cone-surface $-1 -1 -1 $-1 3.185243735437383e-10 8.6785093000862927e-11 1.6846968264871979e-11 0 -6.9829626776862667e-15 1 1.2 0 0 1 I I -0.70710678118650505 0.70710678118658998 1.2 forward I I I I #
coedge $-1 -1 -1 $-1 $158 $159 $86 $121 reversed $160 $-1 #
edge $-1 -1 -1 $-1 $122 3.1415926535897931 $124 6.2831853071795862 $86 $161 forward @7 unknown T -1.0999999996814775 8.6783917455629437e-11 0.10000000001684842 1.1000000003185249 1.1000000000867847 0.10000000001685609 #
vertex $-1 -1 -1 $-1 $87 $162 #
straight-curve $-1 -1 -1 $-1 -1.1999999996814747 8.6785093000862927e-11 1.6846968264871979e-11 -707.10678118650503 4.8511046565412829e-12 -707.10678118658996 F -0.00014142135623730856 F 0 #
vertex $-1 -1 -1 $-1 $88 $163 #
straight-curve $-1 -1 -1 $-1 1.2000000003185247 8.6785093000862927e-11 1.6846968264871979e-11 707.10678118650503 4.9377002621648283e-12 -707.10678118658996 F -0.0001414213562373104 F 0 #
face $-1 -1 -1 $-1 $-1 $138 $4 $-1 $164 forward single T -2.0999999996814762 -2.099999999913241 1.7000000000168285 2.1000000003185244 8.6773990770616662e-11 3.7000000000169999 F #
face $-1 -1 -1 $-1 $79 $165 $4 $-1 $166 forward single T -2.0999999996814762 -2.0999999999132268 1.7000000000168285 2.1000000003185244 2.1000000000867733 1.7000000000168578 F #
loop $-1 -1 -1 $-1 $-1 $143 $93 T -1.1499999996814829 8.7035587070793977e-11 -3.3999999999831814 1.1500000003185213 1.1500000000868527 -3.0499999999831795 periphery $129 F #
cone-surface $-1 -1 -1 $-1 3.1851951631800551e-10 8.7035587070793977e-11 -3.0499999999831795 0 -0 1 -0.80000000000000049 0 0 1 I I -0.70710678118654757 0.70710678118654757 0.80000000000000049 forward I I I I #
coedge $-1 -1 -1 $-1 $156 $96 $158 $167 forward $64 $-1 #
coedge $-1 -1 -1 $-1 $96 $156 $159 $168 reversed $64 $-1 #
coedge $-1 -1 -1 $-1 $169 $169 $96 $133 forward $170 $-1 #
edge $-1 -1 -1 $-1 $171 0 $172 3.1415926535897931 $132 $173 forward @7 unknown T -1.09999999968149 -1.099999999913241 1.7000000000168354 1.1000000003185386 8.6773296881226271e-11 1.7000000000168431 #
coedge $-1 -1 -1 $-1 $174 $175 $97 $135 reversed $176 $-1 #
edge $-1 -1 -1 $-1 $140 3.1415926535897931 $139 6.2831853071795862 $97 $177 forward @7 unknown T -2.0999999996814762 8.675881497289545e-11 3.7000000000168436 2.1000000003185244 2.1000000000867591 3.7000000000169999 #
coedge $-1 -1 -1 $-1 $178 $98 $175 $179 forward $138 $-1 #
coedge $-1 -1 -1 $-1 $98 $178 $174 $180 reversed $138 $-1 #
loop $-1 -1 -1 $-1 $-1 $98 $126 T -2.0999999996814762 -2.099999999913241 1.7000000000168285 2.1000000003185244 8.6773990770616662e-11 3.7000000000169999 unknown #
vertex $-1 -1 -1 $-1 $135 $181 #
vertex $-1 -1 -1 $-1 $135 $182 #
ellipse-curve $-1 -1 -1 $-1 3.185243735437383e-10 8.6759072148723274e-11 3.7000000000169999 0 0 1 -2.1000000000000001 0 0 1 F -0 F 3.1415926535897931 #
coedge $-1 -1 -1 $-1 $151 $100 $103 $146 reversed $128 $-1 #
coedge $-1 -1 -1 $-1 $100 $151 $102 $145 forward $128 $-1 #
ellipse-curve $-1 -1 -1 $-1 3.1851951631800551e-10 8.7035587070793977e-11 -3.3999999999829957 0 0 -1 -1.1499999999998172 0 0 1 F 0 F 3.1415926535897931 #
edge $-1 -1 -1 $-1 $114 0 $104 0.00049497474683058438 $143 $183 forward @7 unknown T 0.80000000031852048 8.7035587070793977e-11 -3.3999999999831814 1.1500000003185213 8.7035629933431944e-11 -3.0499999999831795 #
edge $-1 -1 -1 $-1 $112 0 $105 0.00049497474683058438 $103 $184 forward @7 unknown T -1.1499999996814829 8.7035587070793977e-11 -3.3999999999831814 -0.79999999968148205 8.7035587070793977e-11 -3.0499999999831795 #
point $-1 -1 -1 $-1 1.1500000003185202 8.7035587070793977e-11 -3.3999999999831814 #
point $-1 -1 -1 $-1 -1.1499999996814818 8.7035587070793977e-11 -3.3999999999831814 #
face $-1 -1 -1 $-1 $89 $107 $4 $-1 $185 forward single T -0.79999999968148205 8.7035587070793977e-11 -3.0499999999831795 0.80000000031852048 0.80000000008703609 -0.34999999998317582 F #
ellipse-curve $-1 -1 -1 $-1 3.1851951631800551e-10 8.7035587070793977e-11 -3.0499999999831795 0 0 1 0.80000000000000049 0 0 1 F 3.1415926535897931 F 6.2831853071795862 #
coedge $-1 -1 -1 $-1 $143 $142 $111 $152 reversed $128 $-1 #
edge $-1 -1 -1 $-1 $114 0 $112 3.1415926535897931 $111 $186 forward @7 unknown T -0.79999999968148205 8.7035587070793977e-11 -3.0499999999831795 0.80000000031852048 0.80000000008703609 -3.0499999999831795 #
point $-1 -1 -1 $-1 -0.79999999968148205 8.7035587070793977e-11 -3.0499999999831795 #
point $-1 -1 -1 $-1 0.80000000031852048 8.7035587070793977e-11 -3.0499999999831795 #
face $-1 -1 -1 $-1 $187 $176 $4 $-1 $188 forward single T -2.0999999996814762 8.675881497289545e-11 1.7000000000168431 2.1000000003185244 2.1000000000867733 3.7000000000169999 F #
coedge $-1 -1 -1 $-1 $131 $130 $118 $157 reversed $64 $-1 #
edge $-1 -1 -1 $-1 $124 0 $122 3.1415926535897931 $118 $189 forward @7 unknown T -1.0999999996814775 -1.0999999999132164 0.10000000001684074 1.1000000003185249 8.678405216677734e-11 0.10000000001684842 #
coedge $-1 -1 -1 $-1 $190 $120 $130 $167 reversed $160 $-1 #
coedge $-1 -1 -1 $-1 $120 $190 $131 $168 forward $160 $-1 #
loop $-1 -1 -1 $-1 $-1 $159 $187 T -1.09999999968149 8.6773038074078648e-11 0.10000000001684839 1.1000000003185386 1.1000000000867876 1.7000000000168509 unknown #
ellipse-curve $-1 -1 -1 $-1 3.185243735437383e-10 8.678405216677734e-11 0.10000000001684842 0 6.9829626776862659e-15 -1 1.1000000000000005 0 0 1 F 3.1415926535897931 F 6.2831853071795862 #
point $-1 -1 -1 $-1 -1.0999999996814775 8.678405216677734e-11 0.10000000001684842 #
point $-1 -1 -1 $-1 1.1000000003185249 8.678405216677734e-11 0.10000000001684842 #
cone-surface $-1 -1 -1 $-1 3.185243735437383e-10 8.6759072148723274e-11 3.7000000000168436 -0 6.9829626776862675e-15 -1 -2.1000000000000001 0 0 1 I I -0 1 2.1000000000000001 forward I I I I #
loop $-1 -1 -1 $-1 $170 $191 $127 T -2.0999999996814762 -2.0999999999132268 1.7000000000168285 2.1000000003185244 2.1000000000867733 1.7000000000168578 unknown #
plane-surface $-1 -1 -1 $-1 1.1000000003185249 8.6773296881226271e-11 1.7000000000168431 0 6.9829626776862659e-15 -1 1 0 0 forward_v I I I I #
edge $-1 -1 -1 $-1 $171 0.002 $122 0.0035999999999999951 $130 $192 forward @7 unknown T -1.0999999996814893 8.6773038074078648e-11 0.10000000001684839 -1.0999999996814775 8.6784210814362942e-11 1.7000000000168436 #
edge $-1 -1 -1 $-1 $172 0.002 $124 0.0035999999999999951 $159 $193 forward @7 unknown T 1.1000000003185249 8.6773038074078648e-11 0.10000000001684839 1.100000000318538 8.6784210814362942e-11 1.7000000000168436 #
coedge $-1 -1 -1 $-1 $132 $132 $190 $194 forward $170 $-1 #
loop $-1 -1 -1 $-1 $-1 $132 $127 T -1.09999999968149 -1.099999999913241 1.7000000000168354 1.1000000003185386 1.1000000000867876 1.7000000000168509 unknown #
vertex $-1 -1 -1 $-1 $194 $195 #
vertex $-1 -1 -1 $-1 $194 $196 #
ellipse-curve $-1 -1 -1 $-1 3.185243735437383e-10 8.6773296881226271e-11 1.7000000000168431 0 -6.9829626776862667e-15 1 -1.1000000000000143 0 0 1 F 0 F 3.1415926535897931 #
coedge $-1 -1 -1 $-1 $197 $134 $137 $180 forward $176 $-1 #
coedge $-1 -1 -1 $-1 $134 $197 $136 $179 reversed $176 $-1 #
loop $-1 -1 -1 $-1 $-1 $174 $155 T -2.0999999996814762 8.675881497289545e-11 1.7000000000168431 2.1000000003185244 2.1000000000867733 3.7000000000169999 unknown #
ellipse-curve $-1 -1 -1 $-1 3.185243735437383e-10 8.6759072148723274e-11 3.7000000000169999 0 0 1 -2.1000000000000001 0 0 1 F 3.1415926535897931 F 6.2831853071795862 #
coedge $-1 -1 -1 $-1 $137 $136 $191 $198 forward $138 $-1 #
edge $-1 -1 -1 $-1 $139 0 $199 0.002 $136 $200 forward @7 unknown T -2.0999999996814762 8.6759072148723274e-11 1.7000000000168431 -2.0999999996814762 8.6773296881226271e-11 3.7000000000168436 #
edge $-1 -1 -1 $-1 $140 0 $201 0.002 $174 $202 forward @7 unknown T 2.1000000003185244 8.6759766038113665e-11 1.7000000000168431 2.1000000003185244 8.6773990770616662e-11 3.7000000000168436 #
point $-1 -1 -1 $-1 -2.0999999996814762 8.6759072148723274e-11 3.7000000000168436 #
point $-1 -1 -1 $-1 2.1000000003185244 8.6759766038113665e-11 3.7000000000168436 #
straight-curve $-1 -1 -1 $-1 0.80000000031852048 8.7035587070793977e-11 -3.0499999999831795 707.10678118654755 8.6595605623549329e-14 -707.10678118654755 F 0 F 0.00049497474683058438 #
straight-curve $-1 -1 -1 $-1 -0.79999999968148205 8.7035587070793977e-11 -3.0499999999831795 -707.10678118654755 0 -707.10678118654755 F 0 F 0.00049497474683058438 #
cone-surface $-1 -1 -1 $-1 3.1851951631800551e-10 8.7035587070793977e-11 1.6825651982799176e-11 -0 0 -1 0.80000000000000049 0 0 1 I I -0 1 0.80000000000000049 forward I I I I #
ellipse-curve $-1 -1 -1 $-1 3.1851951631800551e-10 8.7035587070793977e-11 -3.0499999999831795 0 0 1 0.80000000000000049 0 0 1 F 0 F 3.1415926535897931 #
face $-1 -1 -1 $-1 $149 $160 $4 $-1 $203 forward single T -1.09999999968149 8.6773038074078648e-11 0.10000000001684839 1.1000000003185386 1.1000000000867876 1.7000000000168509 F #
cone-surface $-1 -1 -1 $-1 3.185243735437383e-10 8.6759072148723274e-11 3.7000000000168436 -0 6.9829626776862675e-15 -1 -2.1000000000000001 0 0 1 I I -0 1 2.1000000000000001 forward I I I I #
ellipse-curve $-1 -1 -1 $-1 3.185243735437383e-10 8.678405216677734e-11 0.10000000001684842 0 6.9829626776862659e-15 -1 1.1000000000000005 0 0 1 F 0 F 3.1415926535897931 #
coedge $-1 -1 -1 $-1 $159 $158 $169 $194 reversed $160 $-1 #
coedge $-1 -1 -1 $-1 $204 $204 $178 $198 reversed $165 $-1 #
straight-curve $-1 -1 -1 $-1 -1.0999999996814893 8.6759072148723274e-11 3.7000000000168436 0 6.9829626776862665e-12 -1000 F 0.002 F 0.0035999999999999951 #
straight-curve $-1 -1 -1 $-1 1.100000000318538 8.6759072148723274e-11 3.7000000000168436 0 6.9829626776862665e-12 -1000 F 0.002 F 0.0035999999999999951 #
edge $-1 -1 -1 $-1 $172 3.1415926535897931 $171 6.2831853071795862 $169 $205 forward @7 unknown T -1.09999999968149 8.6773162170078368e-11 1.7000000000168431 1.1000000003185386 1.1000000000867876 1.7000000000168509 #
point $-1 -1 -1 $-1 -1.0999999996814893 8.6773296881226271e-11 1.7000000000168431 #
point $-1 -1 -1 $-1 1.100000000318538 8.6773296881226271e-11 1.7000000000168431 #
coedge $-1 -1 -1 $-1 $175 $174 $204 $206 forward $176 $-1 #
edge $-1 -1 -1 $-1 $199 0 $201 3.1415926535897931 $178 $207 forward @7 unknown T -2.0999999996814762 -2.0999999999132268 1.7000000000168285 2.1000000003185244 8.6773990770616662e-11 1.7000000000168431 #
vertex $-1 -1 -1 $-1 $206 $208 #
straight-curve $-1 -1 -1 $-1 -2.0999999996814762 8.6759072148723274e-11 3.7000000000168436 0 6.9829626776862665e-12 -1000 F 0 F 0.002 #
vertex $-1 -1 -1 $-1 $206 $209 #
straight-curve $-1 -1 -1 $-1 2.1000000003185244 8.6759766038113665e-11 3.7000000000168436 0 6.9829626776862665e-12 -1000 F 0 F 0.002 #
cone-surface $-1 -1 -1 $-1 3.185243735437383e-10 8.6759072148723274e-11 3.7000000000168436 -0 6.9829626776862667e-15 -1 -1.1000000000000143 0 0 1 I I -0 1 1.1000000000000143 forward I I I I #
coedge $-1 -1 -1 $-1 $191 $191 $197 $206 reversed $165 $-1 #
ellipse-curve $-1 -1 -1 $-1 3.185243735437383e-10 8.6773296881226271e-11 1.7000000000168431 0 -6.9829626776862667e-15 1 -1.1000000000000143 0 0 1 F 3.1415926535897931 F 6.2831853071795862 #
edge $-1 -1 -1 $-1 $201 3.1415926535897931 $199 6.2831853071795862 $197 $210 forward @7 unknown T -2.0999999996814762 8.6773039705398447e-11 1.7000000000168431 2.1000000003185244 2.1000000000867733 1.7000000000168578 #
ellipse-curve $-1 -1 -1 $-1 3.185243735437383e-10 8.6773296881226271e-11 1.7000000000168431 0 -6.9829626776862675e-15 1 -2.1000000000000001 0 0 1 F 0 F 3.1415926535897931 #
point $-1 -1 -1 $-1 -2.0999999996814762 8.6773296881226271e-11 1.7000000000168431 #
point $-1 -1 -1 $-1 2.1000000003185244 8.6773990770616662e-11 1.7000000000168431 #
ellipse-curve $-1 -1 -1 $-1 3.185243735437383e-10 8.6773296881226271e-11 1.7000000000168431 0 -6.9829626776862675e-15 1 -2.1000000000000001 0 0 1 F 3.1415926535897931 F 6.2831853071795862 #
End-of-ACIS-data 