2000 0 1 0           
32 SPATIAL - INTEROP Version - 32.0 12 ACIS 32.0 NT 24 Wed Mar 11 20:16:19 2026 
1 9.9999999999999995e-07 1e-10 
body $1 -1 -1 $-1 $2 $-1 $-1 T -2.7500000000000009 -7.3000000000000007 -6.3500000000000014 2.7500000000000009 1.7763568394002509e-15 6.6500000000000012 #
string_attrib-name_attrib-gen-attrib $-1 -1 $3 $-1 $0 2 1 1 1 1 1 1 1 1 1 1 1 1 1 0 1 1 1 @17 ATTRIB_XACIS_NAME @7 Box1711 #
lump $-1 -1 -1 $-1 $-1 $4 $0 T -2.7500000000000009 -7.3000000000000007 -6.3500000000000014 2.7500000000000009 1.7763568394002509e-15 6.6500000000000012 #
integer_attrib-name_attrib-gen-attrib $-1 -1 $5 $1 $0 2 1 1 1 1 1 1 1 1 1 1 1 1 1 0 1 1 1 @18 ATTRIB_XACIS_LAYER 0 #
shell $-1 -1 -1 $-1 $-1 $-1 $6 $-1 $2 T -2.7500000000000009 -7.3000000000000007 -6.3500000000000014 2.7500000000000009 1.7763568394002509e-15 6.6500000000000012 #
rgb_color-st-attrib $-1 -1 $-1 $3 $0 2 1 2 1 1 1 1 1 1 1 1 1 1 1 0 1 1 1 0.56078433990478516 0.68627452850341797 0.56078433990478516 #
face $7 -1 -1 $-1 $8 $9 $4 $-1 $10 forward single T -0.79999999999999916 -7.3000000000000007 -5.1000000000000005 0.79999999999999927 -2.4999999999999987 -3.5000000000000009 F #
rgb_color-st-attrib $-1 -1 $-1 $-1 $6 2 1 2 1 1 1 1 1 1 1 1 1 1 1 0 1 1 1 0.50196081399917603 0.50196081399917603 0.75294119119644165 #
face $11 -1 -1 $-1 $12 $13 $4 $-1 $14 forward single T -1.7500000000000004 -1.9999999999999987 6.6500000000000012 1.7500000000000004 1.7763568394002509e-15 6.6500000000000012 F #
loop $-1 -1 -1 $-1 $15 $16 $6 T -0.79999999999999916 -6 -5.1000000000000005 0.79999999999999916 -2.4999999999999987 -3.5000000000000009 unknown #
cone-surface $-1 -1 -1 $-1 0 -1.9999999999999987 -4.3000000000000007 -0 1 0 0 0 -0.79999999999999916 1 I I -0 1 0.79999999999999916 forward I I I I #
rgb_color-st-attrib $-1 -1 $-1 $-1 $8 2 1 2 1 1 1 1 1 1 1 1 1 1 1 0 1 1 1 0.50196081399917603 0.50196081399917603 0.75294119119644165 #
face $17 -1 -1 $-1 $18 $19 $4 $-1 $20 forward single T -1.0999999999999903 -2.4999999999999987 -5.3999999999999915 1.0999999999999903 -1.9999999999999987 -3.2000000000000104 F #
loop $-1 -1 -1 $-1 $-1 $21 $8 T -1.7500000000000004 -1.9999999999999987 6.6500000000000012 1.7500000000000004 1.7763568394002509e-15 6.6500000000000012 unknown #
plane-surface $-1 -1 -1 $-1 0 -2.9999999999999987 6.6500000000000012 0 0 1 1 0 0 forward_v I I I I #
loop $-1 -1 -1 $-1 $-1 $22 $6 T -0.79999999999999905 -7.3000000000000007 -5.0999999999999996 0.79999999999999927 -7.3000000000000007 -3.5000000000000018 unknown #
coedge $-1 -1 -1 $-1 $23 $24 $23 $25 reversed $9 $-1 #
string_attrib-name_attrib-gen-attrib $-1 -1 $26 $-1 $12 2 1 1 1 1 1 1 1 1 1 1 1 1 1 0 1 1 1 @17 ATTRIB_XACIS_NAME @4 NONE #
face $27 -1 -1 $-1 $28 $29 $4 $-1 $30 reversed single T -2.7500000000000009 1.7763568394002509e-15 -6.3500000000000014 2.7500000000000009 1.7763568394002509e-15 6.6500000000000012 F #
loop $-1 -1 -1 $-1 $-1 $31 $12 T -1.0999999999999903 -2.4999999999999987 -5.3999999999999915 1.0999999999999903 -1.9999999999999987 -3.2000000000000104 unknown #
cone-surface $-1 -1 -1 $-1 0 -1.9999999999999987 -4.3000000000000007 -0 1 0 0 0 -1.0999999999999903 1 I I -0 1 1.0999999999999903 forward I I I I #
coedge $-1 -1 -1 $-1 $32 $33 $34 $35 reversed $13 $-1 #
coedge $-1 -1 -1 $-1 $22 $22 $36 $37 reversed $15 $-1 #
coedge $-1 -1 -1 $-1 $38 $16 $16 $25 forward $9 $-1 #
coedge $-1 -1 -1 $-1 $16 $39 $40 $41 forward $9 $-1 #
edge $42 -1 -1 $-1 $43 -0.00115 $44 0.0023500000000000005 $23 $45 forward @7 unknown T 9.7971743931788114e-17 -6 -3.5000000000000009 9.7971743931788114e-17 -2.4999999999999987 -3.5000000000000009 #
rgb_color-st-attrib $-1 -1 $-1 $17 $12 2 1 2 1 1 1 1 1 1 1 1 1 1 1 0 1 1 1 0.50196081399917603 0.50196081399917603 0.75294119119644165 #
rgb_color-st-attrib $-1 -1 $-1 $-1 $18 2 1 2 1 1 1 1 1 1 1 1 1 1 1 0 1 1 1 0.50196081399917603 0.50196081399917603 0.75294119119644165 #
face $46 -1 -1 $-1 $47 $48 $4 $-1 $49 reversed single T -2.7500000000000009 -1.9999999999999987 -5.3500000000000014 -2.7500000000000009 1.7763568394002509e-15 5.6500000000000021 F #
loop $-1 -1 -1 $-1 $-1 $50 $18 T -2.7500000000000009 1.7763568394002509e-15 -6.3500000000000014 2.7500000000000009 1.7763568394002509e-15 6.6500000000000012 unknown #
plane-surface $-1 -1 -1 $-1 0 1.7763568394002509e-15 -3.1750000000000007 0 -1 0 0 0 -1 forward_v I I I I #
coedge $-1 -1 -1 $-1 $51 $52 $53 $54 reversed $19 $-1 #
coedge $-1 -1 -1 $-1 $55 $21 $56 $57 reversed $13 $-1 #
coedge $-1 -1 -1 $-1 $21 $55 $58 $59 forward $13 $-1 #
coedge $-1 -1 -1 $-1 $60 $61 $21 $35 forward $62 $-1 #
edge $63 -1 -1 $-1 $64 -0.0010000000000000002 $65 0.0010000000000000002 $34 $66 forward @7 unknown T 1.7500000000000004 -1.9999999999999987 6.6500000000000012 1.7500000000000004 1.7763568394002509e-15 6.6500000000000012 #
coedge $-1 -1 -1 $-1 $36 $36 $22 $37 forward $67 $-1 #
edge $68 -1 -1 $-1 $69 0 $69 6.2831853071795862 $36 $70 forward @7 unknown T -0.79999999999999905 -7.3000000000000007 -5.0999999999999996 0.79999999999999927 -7.3000000000000007 -3.5000000000000018 #
coedge $-1 -1 -1 $-1 $71 $23 $72 $73 forward $9 $-1 #
coedge $-1 -1 -1 $-1 $24 $71 $71 $74 forward $9 $-1 #
coedge $-1 -1 -1 $-1 $72 $72 $24 $41 reversed $75 $-1 #
edge $76 -1 -1 $-1 $77 0 $44 3.1415926535897931 $24 $78 forward @7 unknown T 0 -2.4999999999999987 -5.1000000000000005 0.79999999999999916 -2.4999999999999987 -3.5000000000000009 #
rgb_color-st-attrib $-1 -1 $-1 $-1 $25 2 1 2 1 1 1 1 1 1 1 1 1 1 1 0 1 1 1 0.56078433990478516 0.68627452850341797 0.56078433990478516 #
vertex $-1 -1 -1 $-1 $25 $79 #
vertex $80 -1 -1 $-1 $41 $81 #
straight-curve $-1 -1 -1 $-1 9.7971743931788114e-17 -4.8499999999999996 -3.5000000000000009 0 1000 0 F -0.00115 F 0.0023500000000000005 #
rgb_color-st-attrib $-1 -1 $-1 $-1 $28 2 1 2 1 1 1 1 1 1 1 1 1 1 1 0 1 1 1 0.50196081399917603 0.50196081399917603 0.75294119119644165 #
face $82 -1 -1 $-1 $83 $84 $4 $-1 $85 forward single T -2.0500000000000003 -3.3999999999999981 -1.9000000000000004 2.0500000000000003 -1.9999999999999971 2.2000000000000006 F #
loop $-1 -1 -1 $-1 $-1 $86 $28 T -2.7500000000000009 -1.9999999999999987 -5.3500000000000014 -2.7500000000000009 1.7763568394002509e-15 5.6500000000000021 unknown #
plane-surface $-1 -1 -1 $-1 -2.7500000000000009 -0.99999999999999856 -3.1750000000000007 1 0 0 0 0 -1 forward_v I I I I #
coedge $-1 -1 -1 $-1 $87 $88 $89 $90 forward $29 $-1 #
coedge $-1 -1 -1 $-1 $91 $31 $52 $92 forward $19 $-1 #
coedge $-1 -1 -1 $-1 $31 $91 $51 $92 reversed $19 $-1 #
coedge $-1 -1 -1 $-1 $53 $53 $31 $54 forward $93 $-1 #
edge $94 -1 -1 $-1 $95 0 $95 6.2831853071795862 $53 $96 forward @7 unknown T -1.0999999999999903 -2.4999999999999987 -5.3999999999999915 1.0999999999999903 -2.4999999999999987 -3.2000000000000104 #
coedge $-1 -1 -1 $-1 $33 $32 $97 $98 forward $13 $-1 #
coedge $-1 -1 -1 $-1 $99 $100 $32 $57 forward $29 $-1 #
edge $101 -1 -1 $-1 $102 -0.0017500000000000005 $64 0.0017500000000000005 $56 $103 forward @7 unknown T -1.7500000000000004 1.7763568394002509e-15 6.6500000000000012 1.7500000000000004 1.7763568394002509e-15 6.6500000000000012 #
coedge $-1 -1 -1 $-1 $104 $105 $33 $59 reversed $106 $-1 #
edge $107 -1 -1 $-1 $108 -0.0017500000000000005 $65 0.0017500000000000005 $33 $109 forward @7 unknown T -1.7500000000000004 -1.9999999999999987 6.6500000000000012 1.7500000000000004 -1.9999999999999987 6.6500000000000012 #
coedge $-1 -1 -1 $-1 $110 $34 $105 $111 reversed $62 $-1 #
coedge $-1 -1 -1 $-1 $34 $110 $99 $112 reversed $62 $-1 #
loop $-1 -1 -1 $-1 $-1 $60 $113 T 1.7500000000000002 -1.9999999999999987 5.6500000000000012 2.7500000000000009 1.7763568394002509e-15 6.6500000000000012 unknown #
rgb_color-st-attrib $-1 -1 $-1 $-1 $35 2 1 2 1 1 1 1 1 1 1 1 1 1 1 0 1 1 1 0.56078433990478516 0.68627452850341797 0.56078433990478516 #
vertex $-1 -1 -1 $-1 $57 $114 #
vertex $-1 -1 -1 $-1 $59 $115 #
straight-curve $-1 -1 -1 $-1 1.7500000000000004 -0.99999999999999856 6.6500000000000012 0 -1000 0 F -0.0010000000000000002 F 0.0010000000000000002 #
loop $-1 -1 -1 $-1 $-1 $36 $116 T -0.79999999999999905 -7.3000000000000007 -5.0999999999999996 0.79999999999999927 -7.3000000000000007 -3.5000000000000018 unknown #
rgb_color-st-attrib $-1 -1 $-1 $-1 $37 2 1 2 1 1 1 1 1 1 1 1 1 1 1 0 1 1 1 0.56078433990478516 0.68627452850341797 0.56078433990478516 #
vertex $-1 -1 -1 $-1 $37 $117 #
ellipse-curve $-1 -1 -1 $-1 6.4726951256692425e-17 -7.3000000000000007 -4.3000000000000007 9.9579925010296049e-17 -1 1.6081226496766366e-16 1.4695761589768226e-16 1.2864981197413081e-16 0.79999999999999916 1 I I #
coedge $-1 -1 -1 $-1 $39 $38 $39 $74 reversed $9 $-1 #
coedge $-1 -1 -1 $-1 $40 $40 $38 $73 reversed $75 $-1 #
edge $118 -1 -1 $-1 $44 3.1415926535897931 $77 6.2831853071795862 $38 $119 forward @7 unknown T -0.79999999999999916 -2.4999999999999987 -5.1000000000000005 9.7971743931788138e-17 -2.4999999999999987 -3.5000000000000009 #
edge $120 -1 -1 $-1 $121 -0.0040000000000000001 $77 -0.00050000000000000001 $39 $122 forward @7 unknown T 0 -5.9999999999999991 -5.1000000000000005 0 -2.4999999999999987 -5.1000000000000005 #
loop $-1 -1 -1 $-1 $93 $40 $123 T -0.79999999999999916 -2.4999999999999987 -5.1000000000000005 0.79999999999999916 -2.4999999999999987 -3.5000000000000009 unknown #
string_attrib-name_attrib-gen-attrib $-1 -1 $124 $-1 $41 2 1 1 1 1 1 1 1 1 1 1 1 1 1 0 1 1 1 @17 ATTRIB_XACIS_NAME @4 NONE #
vertex $125 -1 -1 $-1 $41 $126 #
ellipse-curve $-1 -1 -1 $-1 0 -2.4999999999999987 -4.3000000000000007 0 -1 0 0 0 -0.79999999999999916 1 F 0 F 3.1415926535897931 #
point $-1 -1 -1 $-1 9.7971743931788114e-17 -5.9999999999999991 -3.5000000000000009 #
string_attrib-name_attrib-gen-attrib $-1 -1 $-1 $-1 $44 2 1 1 1 1 1 1 1 1 1 1 1 1 1 0 1 1 1 @17 ATTRIB_XACIS_NAME @4 NONE #
point $-1 -1 -1 $-1 9.7971743931788114e-17 -2.4999999999999987 -3.5000000000000009 #
rgb_color-st-attrib $-1 -1 $-1 $-1 $47 2 1 2 1 1 1 1 1 1 1 1 1 1 1 0 1 1 1 0.50196081399917603 0.50196081399917603 0.75294119119644165 #
face $127 -1 -1 $-1 $128 $129 $4 $-1 $130 forward single T -0.79999999999999905 -7.3000000000000007 3.8000000000000016 0.79999999999999927 -7.3000000000000007 5.3999999999999995 F #
loop $-1 -1 -1 $-1 $131 $132 $47 T -2.0500000000000003 -1.9999999999999987 -1.9000000000000004 2.0500000000000003 -1.9999999999999971 2.2000000000000002 unknown #
cone-surface $-1 -1 -1 $-1 0 -2.699999999999998 0.15000000000000005 -9.9579925010296012e-17 1 -1.6081226496766361e-16 3.765788907378111e-16 3.2966514318371056e-16 2.0500000000000003 1 I I -0 1 2.0500000000000003 forward I I I I #
coedge $-1 -1 -1 $-1 $133 $134 $135 $136 forward $48 $-1 #
coedge $-1 -1 -1 $-1 $100 $50 $137 $138 reversed $29 $-1 #
coedge $-1 -1 -1 $-1 $50 $139 $140 $141 reversed $29 $-1 #
coedge $-1 -1 -1 $-1 $142 $143 $50 $90 reversed $144 $-1 #
edge $145 -1 -1 $-1 $146 3.1415926535897931 $147 4.7123889803846897 $50 $148 forward @7 unknown T -2.7500000000000009 1.7763568394002509e-15 -6.3500000000000014 -1.7500000000000002 1.7763568394002509e-15 -5.3500000000000005 #
coedge $-1 -1 -1 $-1 $52 $51 $149 $150 forward $19 $-1 #
edge $151 -1 -1 $-1 $95 -0.00050000000000000001 $152 0 $51 $153 forward @7 unknown T 0 -2.4999999999999987 -5.3999999999999906 0 -1.9999999999999987 -5.3999999999999906 #
loop $-1 -1 -1 $-1 $-1 $53 $123 T -1.0999999999999903 -2.4999999999999987 -5.3999999999999915 1.0999999999999903 -2.4999999999999987 -3.2000000000000104 unknown #
string_attrib-name_attrib-gen-attrib $-1 -1 $154 $-1 $54 2 1 1 1 1 1 1 1 1 1 1 1 1 1 0 1 1 1 @17 ATTRIB_XACIS_NAME @4 NONE #
vertex $155 -1 -1 $-1 $92 $156 #
ellipse-curve $-1 -1 -1 $-1 0 -2.4999999999999987 -4.3000000000000007 0 -1 0 0 0 -1.0999999999999903 1 I I #
coedge $-1 -1 -1 $-1 $157 $158 $55 $98 reversed $159 $-1 #
edge $160 -1 -1 $-1 $102 -0.0010000000000000002 $108 0.0010000000000000002 $55 $161 forward @7 unknown T -1.7500000000000004 -1.9999999999999987 6.6500000000000012 -1.7500000000000004 1.7763568394002509e-15 6.6500000000000012 #
coedge $-1 -1 -1 $-1 $162 $56 $61 $112 forward $29 $-1 #
coedge $-1 -1 -1 $-1 $56 $87 $157 $163 forward $29 $-1 #
rgb_color-st-attrib $-1 -1 $-1 $-1 $57 2 1 2 1 1 1 1 1 1 1 1 1 1 1 0 1 1 1 0.56078433990478516 0.68627452850341797 0.56078433990478516 #
vertex $-1 -1 -1 $-1 $57 $164 #
straight-curve $-1 -1 -1 $-1 0 1.7763568394002509e-15 6.6500000000000012 1000 0 0 F -0.0017500000000000005 F 0.0017500000000000005 #
coedge $-1 -1 -1 $-1 $135 $58 $158 $165 forward $106 $-1 #
coedge $-1 -1 -1 $-1 $58 $166 $60 $111 forward $106 $-1 #
loop $-1 -1 -1 $-1 $167 $166 $168 T -2.7500000000000009 -1.9999999999999987 -6.3500000000000014 2.7500000000000009 -1.9999999999999987 6.6500000000000012 unknown #
rgb_color-st-attrib $-1 -1 $-1 $-1 $59 2 1 2 1 1 1 1 1 1 1 1 1 1 1 0 1 1 1 0.56078433990478516 0.68627452850341797 0.56078433990478516 #
vertex $-1 -1 -1 $-1 $59 $169 #
straight-curve $-1 -1 -1 $-1 0 -1.9999999999999987 6.6500000000000012 1000 0 0 F -0.0017500000000000005 F 0.0017500000000000005 #
coedge $-1 -1 -1 $-1 $61 $60 $170 $171 forward $62 $-1 #
edge $172 -1 -1 $-1 $173 4.7123889803846897 $65 6.2831853071795862 $105 $174 forward @7 unknown T 1.7500000000000004 -1.9999999999999987 5.6500000000000012 2.7500000000000009 -1.9999999999999987 6.6500000000000012 #
edge $175 -1 -1 $-1 $64 3.1415926535897931 $176 4.7123889803846897 $99 $177 forward @7 unknown T 1.7500000000000002 1.7763568394002509e-15 5.6500000000000012 2.7500000000000009 1.7763568394002509e-15 6.6500000000000012 #
face $178 -1 -1 $-1 $179 $62 $4 $-1 $180 forward single T 1.7500000000000002 -1.9999999999999987 5.6500000000000012 2.7500000000000009 1.7763568394002509e-15 6.6500000000000012 F #
point $-1 -1 -1 $-1 1.7500000000000004 1.7763568394002509e-15 6.6500000000000012 #
point $-1 -1 -1 $-1 1.7500000000000004 -1.9999999999999987 6.6500000000000012 #
face $181 -1 -1 $-1 $168 $67 $4 $-1 $182 forward single T -0.79999999999999905 -7.3000000000000007 -5.0999999999999996 0.79999999999999927 -7.3000000000000007 -3.5000000000000018 F #
point $-1 -1 -1 $-1 2.1168456715437468e-16 -7.3000000000000007 -3.5000000000000018 #
string_attrib-name_attrib-gen-attrib $-1 -1 $183 $-1 $73 2 1 1 1 1 1 1 1 1 1 1 1 1 1 0 1 1 1 @17 ATTRIB_XACIS_NAME @4 NONE #
ellipse-curve $-1 -1 -1 $-1 0 -2.4999999999999987 -4.3000000000000007 0 -1 0 0 0 -0.79999999999999916 1 F 3.1415926535897931 F 6.2831853071795862 #
string_attrib-name_attrib-gen-attrib $-1 -1 $184 $-1 $74 2 1 1 1 1 1 1 1 1 1 1 1 1 1 0 1 1 1 @17 ATTRIB_XACIS_NAME @4 NONE #
vertex $-1 -1 -1 $-1 $74 $185 #
straight-curve $-1 -1 -1 $-1 0 -1.9999999999999987 -5.1000000000000005 0 1000 0 F -0.0040000000000000001 F -0.00050000000000000001 #
face $186 -1 -1 $-1 $187 $75 $4 $-1 $188 reversed single T -1.0999999999999903 -2.4999999999999987 -5.3999999999999915 1.0999999999999903 -2.4999999999999987 -3.2000000000000104 F #
rgb_color-st-attrib $-1 -1 $-1 $76 $41 2 1 2 1 1 1 1 1 1 1 1 1 1 1 0 1 1 1 0.56078433990478516 0.68627452850341797 0.56078433990478516 #
string_attrib-name_attrib-gen-attrib $-1 -1 $-1 $-1 $77 2 1 1 1 1 1 1 1 1 1 1 1 1 1 0 1 1 1 @17 ATTRIB_XACIS_NAME @4 NONE #
point $-1 -1 -1 $-1 0 -2.4999999999999987 -5.1000000000000005 #
rgb_color-st-attrib $-1 -1 $-1 $-1 $83 2 1 2 1 1 1 1 1 1 1 1 1 1 1 0 1 1 1 0.50196081399917603 0.50196081399917603 0.75294119119644165 #
face $189 -1 -1 $-1 $190 $191 $4 $-1 $192 forward single T -2.0500000000000003 -3.3999999999999995 -1.9000000000000001 2.0500000000000003 -3.3999999999999972 2.2000000000000006 F #
loop $-1 -1 -1 $-1 $-1 $193 $83 T -0.79999999999999905 -7.3000000000000007 3.8000000000000016 0.79999999999999927 -7.3000000000000007 5.3999999999999995 unknown #
plane-surface $-1 -1 -1 $-1 6.4726951256692425e-17 -7.3000000000000007 4.6000000000000005 9.9579925010295987e-17 -1 1.6081226496766366e-16 -1.8369701987210294e-16 -1.6081226496766368e-16 -1 forward_v I I I I #
loop $-1 -1 -1 $-1 $-1 $194 $47 T -2.0500000000000003 -3.3999999999999981 -1.9000000000000001 2.0500000000000003 -3.3999999999999972 2.2000000000000006 unknown #
coedge $-1 -1 -1 $-1 $132 $132 $195 $196 reversed $84 $-1 #
coedge $-1 -1 -1 $-1 $137 $86 $197 $198 forward $48 $-1 #
coedge $-1 -1 -1 $-1 $86 $137 $143 $199 reversed $48 $-1 #
coedge $-1 -1 -1 $-1 $200 $104 $86 $136 reversed $106 $-1 #
edge $201 -1 -1 $-1 $202 -0.0037475000000000008 $203 0.0072525000000000011 $86 $204 forward @7 unknown T -2.7500000000000009 -1.9999999999999987 -5.3500000000000014 -2.7500000000000009 -1.9999999999999987 5.6500000000000012 #
coedge $-1 -1 -1 $-1 $134 $133 $87 $138 forward $48 $-1 #
edge $205 -1 -1 $-1 $206 -0.008825000000000003 $147 0.0021749999999999999 $137 $207 forward @7 unknown T -2.7500000000000009 1.7763568394002509e-15 -5.3500000000000005 -2.7500000000000009 1.7763568394002509e-15 5.6500000000000021 #
coedge $-1 -1 -1 $-1 $88 $162 $208 $209 forward $29 $-1 #
coedge $-1 -1 -1 $-1 $210 $211 $88 $141 forward $212 $-1 #
edge $213 -1 -1 $-1 $146 -0.0017500000000000005 $214 0.0017500000000000005 $140 $215 forward @7 unknown T -1.7500000000000004 1.7763568394002509e-15 -6.3500000000000014 1.7500000000000004 1.7763568394002509e-15 -6.3500000000000014 #
coedge $-1 -1 -1 $-1 $216 $89 $211 $217 reversed $144 $-1 #
coedge $-1 -1 -1 $-1 $89 $216 $134 $199 forward $144 $-1 #
loop $-1 -1 -1 $-1 $-1 $216 $187 T -2.7500000000000009 -1.9999999999999987 -6.3500000000000014 -1.7500000000000002 1.7763568394002509e-15 -5.3500000000000005 unknown #
rgb_color-st-attrib $-1 -1 $-1 $-1 $90 2 1 2 1 1 1 1 1 1 1 1 1 1 1 0 1 1 1 0.56078433990478516 0.68627452850341797 0.56078433990478516 #
vertex $-1 -1 -1 $-1 $141 $218 #
vertex $-1 -1 -1 $-1 $138 $219 #
ellipse-curve $-1 -1 -1 $-1 -1.7500000000000004 1.7763568394002509e-15 -5.3500000000000005 0 1 0 0 0 1.0000000000000002 1 F 3.1415926535897931 F 4.7123889803846897 #
coedge $-1 -1 -1 $-1 $149 $149 $91 $150 reversed $167 $-1 #
edge $220 -1 -1 $-1 $152 0 $152 6.2831853071795862 $91 $221 forward @7 unknown T -1.0999999999999903 -1.9999999999999987 -5.3999999999999915 1.0999999999999903 -1.9999999999999987 -3.2000000000000104 #
string_attrib-name_attrib-gen-attrib $-1 -1 $222 $-1 $92 2 1 1 1 1 1 1 1 1 1 1 1 1 1 0 1 1 1 @17 ATTRIB_XACIS_NAME @4 NONE #
vertex $223 -1 -1 $-1 $150 $224 #
straight-curve $-1 -1 -1 $-1 0 -1.9999999999999987 -5.3999999999999906 0 1000 0 F -0.00050000000000000001 F 0 #
rgb_color-st-attrib $-1 -1 $-1 $94 $54 2 1 2 1 1 1 1 1 1 1 1 1 1 1 0 1 1 1 0.56078433990478516 0.68627452850341797 0.56078433990478516 #
string_attrib-name_attrib-gen-attrib $-1 -1 $-1 $-1 $95 2 1 1 1 1 1 1 1 1 1 1 1 1 1 0 1 1 1 @17 ATTRIB_XACIS_NAME @4 NONE #
point $-1 -1 -1 $-1 0 -2.4999999999999987 -5.3999999999999906 #
coedge $-1 -1 -1 $-1 $197 $97 $100 $163 reversed $159 $-1 #
coedge $-1 -1 -1 $-1 $97 $197 $104 $165 reversed $159 $-1 #
loop $-1 -1 -1 $-1 $-1 $158 $179 T -2.7500000000000009 -1.9999999999999987 5.6500000000000012 -1.7500000000000004 1.7763568394002509e-15 6.6500000000000012 unknown #
rgb_color-st-attrib $-1 -1 $-1 $-1 $98 2 1 2 1 1 1 1 1 1 1 1 1 1 1 0 1 1 1 0.56078433990478516 0.68627452850341797 0.56078433990478516 #
straight-curve $-1 -1 -1 $-1 -1.7500000000000004 -0.99999999999999856 6.6500000000000012 0 -1000 0 F -0.0010000000000000002 F 0.0010000000000000002 #
coedge $-1 -1 -1 $-1 $139 $99 $225 $226 forward $29 $-1 #
edge $227 -1 -1 $-1 $206 1.5707963267948966 $102 3.1415926535897931 $100 $228 forward @7 unknown T -2.7500000000000009 1.7763568394002509e-15 5.6500000000000012 -1.7500000000000004 1.7763568394002509e-15 6.6500000000000012 #
point $-1 -1 -1 $-1 -1.7500000000000004 1.7763568394002509e-15 6.6500000000000012 #
edge $229 -1 -1 $-1 $108 0 $203 1.5707963267948966 $104 $230 forward @7 unknown T -2.7500000000000009 -1.9999999999999987 5.6500000000000012 -1.7500000000000004 -1.9999999999999987 6.6500000000000012 #
coedge $-1 -1 -1 $-1 $105 $231 $232 $233 reversed $106 $-1 #
loop $-1 -1 -1 $-1 $234 $149 $168 T -1.0999999999999903 -1.9999999999999987 -5.3999999999999915 1.0999999999999903 -1.9999999999999987 -3.2000000000000104 unknown #
face $235 -1 -1 $-1 $236 $106 $4 $-1 $237 reversed single T -2.7500000000000009 -1.9999999999999987 -6.3500000000000014 2.7500000000000009 -1.9999999999999971 6.6500000000000012 F #
point $-1 -1 -1 $-1 -1.7500000000000004 -1.9999999999999987 6.6500000000000012 #
coedge $-1 -1 -1 $-1 $232 $225 $110 $171 reversed $238 $-1 #
edge $239 -1 -1 $-1 $173 -0.0010000000000000002 $176 0.0010000000000000002 $110 $240 forward @7 unknown T 2.7500000000000009 -1.9999999999999987 5.6500000000000012 2.7500000000000009 1.7763568394002509e-15 5.6500000000000012 #
string_attrib-name_attrib-gen-attrib $-1 -1 $241 $-1 $111 2 1 1 1 1 1 1 1 1 1 1 1 1 1 0 1 1 1 @17 ATTRIB_XACIS_NAME @4 NONE #
vertex $-1 -1 -1 $-1 $233 $242 #
ellipse-curve $-1 -1 -1 $-1 1.7500000000000004 -1.9999999999999987 5.6500000000000012 0 -1 0 0 0 1.0000000000000002 1 F 4.7123889803846897 F 6.2831853071795862 #
rgb_color-st-attrib $-1 -1 $-1 $-1 $112 2 1 2 1 1 1 1 1 1 1 1 1 1 1 0 1 1 1 0.56078433990478516 0.68627452850341797 0.56078433990478516 #
vertex $-1 -1 -1 $-1 $226 $243 #
ellipse-curve $-1 -1 -1 $-1 1.7500000000000004 1.7763568394002509e-15 5.6500000000000012 0 1 0 0 0 -1.0000000000000002 1 F 3.1415926535897931 F 4.7123889803846897 #
string_attrib-name_attrib-gen-attrib $-1 -1 $244 $-1 $113 2 1 1 1 1 1 1 1 1 1 1 1 1 1 0 1 1 1 @17 ATTRIB_XACIS_NAME @4 NONE #
face $245 -1 -1 $-1 $246 $159 $4 $-1 $247 forward single T -2.7500000000000009 -1.9999999999999987 5.6500000000000012 -1.7500000000000004 1.7763568394002509e-15 6.6500000000000012 F #
cone-surface $-1 -1 -1 $-1 1.7500000000000004 -1.9999999999999987 5.6500000000000012 -0 -1 -0 0 0 -1.0000000000000002 1 I I -0 1 1.0000000000000002 forward I I I I #
rgb_color-st-attrib $-1 -1 $-1 $-1 $116 2 1 2 1 1 1 1 1 1 1 1 1 1 1 0 1 1 1 0.50196081399917603 0.50196081399917603 0.75294119119644165 #
plane-surface $-1 -1 -1 $-1 6.4726951256692425e-17 -7.3000000000000007 -4.3000000000000007 9.9579925010295987e-17 -1 1.6081226496766366e-16 -1.8369701987210294e-16 -1.6081226496766368e-16 -1 forward_v I I I I #
rgb_color-st-attrib $-1 -1 $-1 $118 $73 2 1 2 1 1 1 1 1 1 1 1 1 1 1 0 1 1 1 0.56078433990478516 0.68627452850341797 0.56078433990478516 #
rgb_color-st-attrib $-1 -1 $-1 $120 $74 2 1 2 1 1 1 1 1 1 1 1 1 1 1 0 1 1 1 0.56078433990478516 0.68627452850341797 0.56078433990478516 #
point $-1 -1 -1 $-1 0 -5.9999999999999991 -5.1000000000000005 #
string_attrib-name_attrib-gen-attrib $-1 -1 $248 $-1 $123 2 1 1 1 1 1 1 1 1 1 1 1 1 1 0 1 1 1 @17 ATTRIB_XACIS_NAME @4 NONE #
face $249 -1 -1 $-1 $250 $144 $4 $-1 $251 forward single T -2.7500000000000009 -1.9999999999999987 -6.3500000000000014 -1.7500000000000002 1.7763568394002509e-15 -5.3500000000000005 F #
plane-surface $-1 -1 -1 $-1 0.79999999999999916 -2.4999999999999987 -4.3000000000000007 -0 1 0 1 0 0 forward_v I I I I #
rgb_color-st-attrib $-1 -1 $-1 $-1 $128 2 1 2 1 1 1 1 1 1 1 1 1 1 1 0 1 1 1 0.50196081399917603 0.50196081399917603 0.75294119119644165 #
face $252 -1 -1 $-1 $123 $253 $4 $-1 $254 reversed single T -1.0999999999999903 -2.4999999999999987 3.5000000000000102 1.0999999999999903 -2.4999999999999987 5.6999999999999913 F #
loop $-1 -1 -1 $-1 $255 $256 $128 T -2.0500000000000003 -3.3999999999999981 -1.9000000000000001 2.0500000000000003 -3.3999999999999972 2.2000000000000006 unknown #
plane-surface $-1 -1 -1 $-1 6.9705947507207211e-17 -3.3999999999999977 0.15000000000000016 9.9579925010295987e-17 -1 1.6081226496766366e-16 -1.8369701987210294e-16 -1.6081226496766368e-16 -1 forward_v I I I I #
coedge $-1 -1 -1 $-1 $193 $193 $257 $258 forward $129 $-1 #
coedge $-1 -1 -1 $-1 $194 $194 $256 $259 reversed $131 $-1 #
coedge $-1 -1 -1 $-1 $195 $195 $132 $196 forward $260 $-1 #
edge $261 -1 -1 $-1 $262 2.3486950541307752e-32 $262 6.2831853071795862 $195 $263 forward @7 unknown T -2.0500000000000003 -1.9999999999999987 -1.9000000000000004 2.0500000000000003 -1.9999999999999971 2.2000000000000002 #
coedge $-1 -1 -1 $-1 $158 $157 $133 $198 reversed $159 $-1 #
edge $264 -1 -1 $-1 $203 -0.0010000000000000002 $206 0.0010000000000000002 $133 $265 forward @7 unknown T -2.7500000000000009 -1.9999999999999987 5.6500000000000012 -2.7500000000000009 1.7763568394002509e-15 5.6500000000000012 #
edge $266 -1 -1 $-1 $202 -0.0010000000000000002 $147 0.0010000000000000002 $143 $267 forward @7 unknown T -2.7500000000000009 -1.9999999999999987 -5.3500000000000005 -2.7500000000000009 1.7763568394002509e-15 -5.3500000000000005 #
coedge $-1 -1 -1 $-1 $268 $135 $216 $269 forward $106 $-1 #
rgb_color-st-attrib $-1 -1 $-1 $-1 $136 2 1 2 1 1 1 1 1 1 1 1 1 1 1 0 1 1 1 0.56078433990478516 0.68627452850341797 0.56078433990478516 #
vertex $-1 -1 -1 $-1 $136 $270 #
vertex $-1 -1 -1 $-1 $136 $271 #
straight-curve $-1 -1 -1 $-1 -2.7500000000000009 -1.9999999999999987 -1.6025 0 0 1000 F -0.0037475000000000008 F 0.0072525000000000011 #
rgb_color-st-attrib $-1 -1 $-1 $-1 $138 2 1 2 1 1 1 1 1 1 1 1 1 1 1 0 1 1 1 0.56078433990478516 0.68627452850341797 0.56078433990478516 #
vertex $-1 -1 -1 $-1 $138 $272 #
straight-curve $-1 -1 -1 $-1 -2.7500000000000009 1.7763568394002509e-15 -3.1750000000000007 0 0 -1000 F -0.008825000000000003 F 0.0021749999999999999 #
coedge $-1 -1 -1 $-1 $273 $274 $139 $209 reversed $275 $-1 #
edge $276 -1 -1 $-1 $277 1.5707963267948966 $214 3.1415926535897931 $139 $278 forward @7 unknown T 1.7500000000000004 1.7763568394002509e-15 -6.3500000000000014 2.7500000000000009 1.7763568394002509e-15 -5.3500000000000005 #
coedge $-1 -1 -1 $-1 $279 $140 $274 $280 reversed $212 $-1 #
coedge $-1 -1 -1 $-1 $140 $279 $142 $217 forward $212 $-1 #
loop $-1 -1 -1 $-1 $-1 $211 $281 T -1.7500000000000004 -1.9999999999999987 -6.3500000000000014 1.7500000000000004 1.7763568394002509e-15 -6.3500000000000014 unknown #
rgb_color-st-attrib $-1 -1 $-1 $-1 $141 2 1 2 1 1 1 1 1 1 1 1 1 1 1 0 1 1 1 0.56078433990478516 0.68627452850341797 0.56078433990478516 #
vertex $-1 -1 -1 $-1 $141 $282 #
straight-curve $-1 -1 -1 $-1 0 1.7763568394002509e-15 -6.3500000000000014 1000 0 0 F -0.0017500000000000005 F 0.0017500000000000005 #
coedge $-1 -1 -1 $-1 $143 $142 $200 $269 reversed $144 $-1 #
edge $283 -1 -1 $-1 $284 -0.0010000000000000002 $146 0.0010000000000000002 $211 $285 forward @7 unknown T -1.7500000000000004 -1.9999999999999987 -6.3500000000000014 -1.7500000000000004 1.7763568394002509e-15 -6.3500000000000014 #
point $-1 -1 -1 $-1 -1.7500000000000004 1.7763568394002509e-15 -6.3500000000000014 #
point $-1 -1 -1 $-1 -2.7500000000000009 1.7763568394002509e-15 -5.3500000000000005 #
string_attrib-name_attrib-gen-attrib $-1 -1 $286 $-1 $150 2 1 1 1 1 1 1 1 1 1 1 1 1 1 0 1 1 1 @17 ATTRIB_XACIS_NAME @4 NONE #
ellipse-curve $-1 -1 -1 $-1 0 -1.9999999999999987 -4.3000000000000007 0 -1 0 0 0 -1.0999999999999903 1 I I #
rgb_color-st-attrib $-1 -1 $-1 $151 $92 2 1 2 1 1 1 1 1 1 1 1 1 1 1 0 1 1 1 0.56078433990478516 0.68627452850341797 0.56078433990478516 #
string_attrib-name_attrib-gen-attrib $-1 -1 $-1 $-1 $152 2 1 1 1 1 1 1 1 1 1 1 1 1 1 0 1 1 1 @17 ATTRIB_XACIS_NAME @4 NONE #
point $-1 -1 -1 $-1 0 -1.9999999999999987 -5.3999999999999906 #
coedge $-1 -1 -1 $-1 $170 $287 $162 $226 reversed $238 $-1 #
edge $288 -1 -1 $-1 $176 -0.008825000000000003 $277 0.0021749999999999999 $162 $289 forward @7 unknown T 2.7500000000000009 1.7763568394002509e-15 -5.3500000000000005 2.7500000000000009 1.7763568394002509e-15 5.6500000000000021 #
rgb_color-st-attrib $-1 -1 $-1 $-1 $163 2 1 2 1 1 1 1 1 1 1 1 1 1 1 0 1 1 1 0.56078433990478516 0.68627452850341797 0.56078433990478516 #
ellipse-curve $-1 -1 -1 $-1 -1.7500000000000004 1.7763568394002509e-15 5.6500000000000012 0 1 0 0 0 -1.0000000000000002 1 F 1.5707963267948966 F 3.1415926535897931 #
string_attrib-name_attrib-gen-attrib $-1 -1 $290 $-1 $165 2 1 1 1 1 1 1 1 1 1 1 1 1 1 0 1 1 1 @17 ATTRIB_XACIS_NAME @4 NONE #
ellipse-curve $-1 -1 -1 $-1 -1.7500000000000004 -1.9999999999999987 5.6500000000000012 0 -1 0 0 0 1.0000000000000002 1 F 0 F 1.5707963267948966 #
coedge $-1 -1 -1 $-1 $166 $268 $291 $292 forward $106 $-1 #
coedge $-1 -1 -1 $-1 $287 $170 $166 $233 forward $238 $-1 #
edge $293 -1 -1 $-1 $173 -0.0023000000000000004 $294 0.0087000000000000011 $232 $295 forward @7 unknown T 2.7500000000000009 -1.9999999999999987 -5.3500000000000005 2.7500000000000009 -1.9999999999999987 5.6500000000000012 #
loop $-1 -1 -1 $-1 $260 $296 $168 T -1.0999999999999903 -1.9999999999999987 3.5000000000000102 1.0999999999999903 -1.9999999999999987 5.6999999999999913 unknown #
rgb_color-st-attrib $-1 -1 $-1 $-1 $168 2 1 2 1 1 1 1 1 1 1 1 1 1 1 0 1 1 1 0.50196081399917603 0.50196081399917603 0.75294119119644165 #
face $297 -1 -1 $-1 $281 $238 $4 $-1 $298 reversed single T 2.7500000000000009 -1.9999999999999987 -5.3500000000000005 2.7500000000000009 1.7763568394002509e-15 5.6500000000000021 F #
plane-surface $-1 -1 -1 $-1 0 -1.9999999999999987 -3.1750000000000007 0 1 0 0 0 1 forward_v I I I I #
loop $-1 -1 -1 $-1 $-1 $287 $236 T 2.7500000000000009 -1.9999999999999987 -5.3500000000000005 2.7500000000000009 1.7763568394002509e-15 5.6500000000000021 unknown #
rgb_color-st-attrib $-1 -1 $-1 $-1 $171 2 1 2 1 1 1 1 1 1 1 1 1 1 1 0 1 1 1 0.56078433990478516 0.68627452850341797 0.56078433990478516 #
straight-curve $-1 -1 -1 $-1 2.7500000000000009 -0.99999999999999856 5.6500000000000012 0 1000 0 F -0.0010000000000000002 F 0.0010000000000000002 #
rgb_color-st-attrib $-1 -1 $-1 $172 $111 2 1 2 1 1 1 1 1 1 1 1 1 1 1 0 1 1 1 0.56078433990478516 0.68627452850341797 0.56078433990478516 #
point $-1 -1 -1 $-1 2.7500000000000009 -1.9999999999999987 5.6500000000000012 #
point $-1 -1 -1 $-1 2.7500000000000009 1.7763568394002509e-15 5.6500000000000012 #
rgb_color-st-attrib $-1 -1 $-1 $178 $113 2 1 2 1 1 1 1 1 1 1 1 1 1 1 0 1 1 1 0.50196081399917603 0.50196081399917603 0.75294119119644165 #
string_attrib-name_attrib-gen-attrib $-1 -1 $299 $-1 $179 2 1 1 1 1 1 1 1 1 1 1 1 1 1 0 1 1 1 @17 ATTRIB_XACIS_NAME @4 NONE #
face $300 -1 -1 $-1 $301 $302 $4 $-1 $303 forward single T -1.0999999999999903 -2.4999999999999987 3.5000000000000102 1.0999999999999903 -1.9999999999999987 5.6999999999999913 F #
cone-surface $-1 -1 -1 $-1 -1.7500000000000004 -1.9999999999999987 5.6500000000000012 -0 -1 -0 0 0 -1.0000000000000002 1 I I -0 1 1.0000000000000002 forward I I I I #
rgb_color-st-attrib $-1 -1 $-1 $186 $123 2 1 2 1 1 1 1 1 1 1 1 1 1 1 0 1 1 1 0.50196081399917603 0.50196081399917603 0.75294119119644165 #
string_attrib-name_attrib-gen-attrib $-1 -1 $304 $-1 $187 2 1 1 1 1 1 1 1 1 1 1 1 1 1 0 1 1 1 @17 ATTRIB_XACIS_NAME @4 NONE #
face $305 -1 -1 $-1 $113 $275 $4 $-1 $306 forward single T 1.7500000000000004 -1.9999999999999987 -6.3500000000000014 2.7500000000000009 1.7763568394002509e-15 -5.3500000000000005 F #
cone-surface $-1 -1 -1 $-1 -1.7500000000000004 -1.9999999999999987 -5.3500000000000005 0 -1 -0 0 0 1.0000000000000002 1 I I -0 1 1.0000000000000002 forward I I I I #
string_attrib-name_attrib-gen-attrib $-1 -1 $307 $-1 $190 2 1 1 1 1 1 1 1 1 1 1 1 1 1 0 1 1 1 @17 ATTRIB_XACIS_NAME @4 NONE #
loop $-1 -1 -1 $-1 $308 $309 $190 T -0.79999999999999916 -2.4999999999999987 3.8000000000000007 0.79999999999999916 -2.4999999999999987 5.4000000000000021 unknown #
plane-surface $-1 -1 -1 $-1 -0.79999999999999916 -2.4999999999999987 4.6000000000000005 -0 1 0 1 0 0 forward_v I I I I #
loop $-1 -1 -1 $-1 $-1 $310 $128 T -0.15000000000000013 -3.3999999999999995 -1.1102230246251565e-16 0.14999999999999997 -3.3999999999999977 0.29999999999999999 unknown #
coedge $-1 -1 -1 $-1 $256 $256 $194 $259 forward $191 $-1 #
coedge $-1 -1 -1 $-1 $257 $257 $193 $258 reversed $311 $-1 #
edge $312 -1 -1 $-1 $313 0 $313 6.2831853071795862 $193 $314 forward @7 unknown T -0.79999999999999905 -7.3000000000000007 3.8000000000000016 0.79999999999999927 -7.3000000000000007 5.3999999999999995 #
edge $315 -1 -1 $-1 $316 0 $316 6.2831853071795862 $256 $317 forward @7 unknown T -2.0500000000000003 -3.3999999999999981 -1.9000000000000001 2.0500000000000003 -3.3999999999999972 2.2000000000000006 #
loop $-1 -1 -1 $-1 $-1 $195 $168 T -2.0500000000000003 -1.9999999999999987 -1.9000000000000004 2.0500000000000003 -1.9999999999999971 2.2000000000000002 unknown #
rgb_color-st-attrib $-1 -1 $-1 $-1 $196 2 1 2 1 1 1 1 1 1 1 1 1 1 1 0 1 1 1 0.56078433990478516 0.68627452850341797 0.56078433990478516 #
vertex $-1 -1 -1 $-1 $196 $318 #
ellipse-curve $-1 -1 -1 $-1 -6.9705947507207211e-17 -1.9999999999999987 0.14999999999999994 -0 1 0 3.765788907378111e-16 0 2.0500000000000003 1 I I #
rgb_color-st-attrib $-1 -1 $-1 $-1 $198 2 1 2 1 1 1 1 1 1 1 1 1 1 1 0 1 1 1 0.56078433990478516 0.68627452850341797 0.56078433990478516 #
straight-curve $-1 -1 -1 $-1 -2.7500000000000009 -0.99999999999999856 5.6500000000000012 0 1000 0 F -0.0010000000000000002 F 0.0010000000000000002 #
rgb_color-st-attrib $-1 -1 $-1 $-1 $199 2 1 2 1 1 1 1 1 1 1 1 1 1 1 0 1 1 1 0.56078433990478516 0.68627452850341797 0.56078433990478516 #
straight-curve $-1 -1 -1 $-1 -2.7500000000000009 -0.99999999999999856 -5.3500000000000005 0 1000 0 F -0.0010000000000000002 F 0.0010000000000000002 #
coedge $-1 -1 -1 $-1 $231 $200 $279 $319 reversed $106 $-1 #
edge $320 -1 -1 $-1 $202 4.7123889803846897 $284 6.2831853071795862 $200 $321 forward @7 unknown T -2.7500000000000009 -1.9999999999999987 -6.3500000000000014 -1.7500000000000004 -1.9999999999999987 -5.3500000000000005 #
point $-1 -1 -1 $-1 -2.7500000000000009 -1.9999999999999987 -5.3500000000000005 #
point $-1 -1 -1 $-1 -2.7500000000000009 -1.9999999999999987 5.6500000000000012 #
point $-1 -1 -1 $-1 -2.7500000000000009 1.7763568394002509e-15 5.6500000000000012 #
coedge $-1 -1 -1 $-1 $291 $208 $287 $322 reversed $275 $-1 #
coedge $-1 -1 -1 $-1 $208 $291 $210 $280 forward $275 $-1 #
loop $-1 -1 -1 $-1 $-1 $291 $250 T 1.7500000000000004 -1.9999999999999987 -6.3500000000000014 2.7500000000000009 1.7763568394002509e-15 -5.3500000000000005 unknown #
rgb_color-st-attrib $-1 -1 $-1 $-1 $209 2 1 2 1 1 1 1 1 1 1 1 1 1 1 0 1 1 1 0.56078433990478516 0.68627452850341797 0.56078433990478516 #
vertex $-1 -1 -1 $-1 $226 $323 #
ellipse-curve $-1 -1 -1 $-1 1.7500000000000004 1.7763568394002509e-15 -5.3500000000000005 0 1 0 0 0 1.0000000000000002 1 F 1.5707963267948966 F 3.1415926535897931 #
coedge $-1 -1 -1 $-1 $211 $210 $268 $319 forward $212 $-1 #
edge $324 -1 -1 $-1 $325 -0.0010000000000000002 $214 0.0010000000000000002 $274 $326 forward @7 unknown T 1.7500000000000004 -1.9999999999999987 -6.3500000000000014 1.7500000000000004 1.7763568394002509e-15 -6.3500000000000014 #
face $327 -1 -1 $-1 $-1 $212 $4 $-1 $328 reversed single T -1.7500000000000004 -1.9999999999999987 -6.3500000000000014 1.7500000000000004 1.7763568394002509e-15 -6.3500000000000014 F #
point $-1 -1 -1 $-1 1.7500000000000004 1.7763568394002509e-15 -6.3500000000000014 #
rgb_color-st-attrib $-1 -1 $-1 $-1 $217 2 1 2 1 1 1 1 1 1 1 1 1 1 1 0 1 1 1 0.56078433990478516 0.68627452850341797 0.56078433990478516 #
vertex $-1 -1 -1 $-1 $319 $329 #
straight-curve $-1 -1 -1 $-1 -1.7500000000000004 -0.99999999999999856 -6.3500000000000014 0 1000 0 F -0.0010000000000000002 F 0.0010000000000000002 #
rgb_color-st-attrib $-1 -1 $-1 $220 $150 2 1 2 1 1 1 1 1 1 1 1 1 1 1 0 1 1 1 0.56078433990478516 0.68627452850341797 0.56078433990478516 #
coedge $-1 -1 -1 $-1 $225 $232 $273 $322 forward $238 $-1 #
rgb_color-st-attrib $-1 -1 $-1 $-1 $226 2 1 2 1 1 1 1 1 1 1 1 1 1 1 0 1 1 1 0.56078433990478516 0.68627452850341797 0.56078433990478516 #
straight-curve $-1 -1 -1 $-1 2.7500000000000009 1.7763568394002509e-15 -3.1750000000000007 0 0 -1000 F -0.008825000000000003 F 0.0021749999999999999 #
rgb_color-st-attrib $-1 -1 $-1 $229 $165 2 1 2 1 1 1 1 1 1 1 1 1 1 1 0 1 1 1 0.56078433990478516 0.68627452850341797 0.56078433990478516 #
coedge $-1 -1 -1 $-1 $274 $273 $231 $292 reversed $275 $-1 #
edge $330 -1 -1 $-1 $325 0 $294 1.5707963267948966 $231 $331 forward @7 unknown T 1.7500000000000004 -1.9999999999999987 -6.3500000000000014 2.7500000000000009 -1.9999999999999987 -5.3500000000000005 #
rgb_color-st-attrib $-1 -1 $-1 $-1 $233 2 1 2 1 1 1 1 1 1 1 1 1 1 1 0 1 1 1 0.56078433990478516 0.68627452850341797 0.56078433990478516 #
vertex $-1 -1 -1 $-1 $233 $332 #
straight-curve $-1 -1 -1 $-1 2.7500000000000009 -1.9999999999999987 3.350000000000001 0 0 -1000 F -0.0023000000000000004 F 0.0087000000000000011 #
coedge $-1 -1 -1 $-1 $296 $296 $333 $334 reversed $234 $-1 #
rgb_color-st-attrib $-1 -1 $-1 $-1 $236 2 1 2 1 1 1 1 1 1 1 1 1 1 1 0 1 1 1 0.50196081399917603 0.50196081399917603 0.75294119119644165 #
plane-surface $-1 -1 -1 $-1 2.7500000000000009 -0.99999999999999856 -3.1750000000000007 -1 0 0 0 0 1 forward_v I I I I #
rgb_color-st-attrib $-1 -1 $-1 $245 $179 2 1 2 1 1 1 1 1 1 1 1 1 1 1 0 1 1 1 0.50196081399917603 0.50196081399917603 0.75294119119644165 #
string_attrib-name_attrib-gen-attrib $-1 -1 $335 $-1 $246 2 1 1 1 1 1 1 1 1 1 1 1 1 1 0 1 1 1 @17 ATTRIB_XACIS_NAME @4 NONE #
face $336 -1 -1 $-1 $337 $338 $4 $-1 $339 forward single T -0.79999999999999916 -7.3000000000000007 3.8000000000000007 0.79999999999999927 -2.4999999999999987 5.4000000000000021 F #
loop $-1 -1 -1 $-1 $-1 $340 $246 T -1.0999999999999903 -2.4999999999999987 3.5000000000000102 1.0999999999999903 -1.9999999999999987 5.6999999999999913 unknown #
cone-surface $-1 -1 -1 $-1 0 -1.9999999999999987 4.6000000000000005 -0 1 -0 0 0 1.0999999999999903 1 I I -0 1 1.0999999999999903 forward I I I I #
rgb_color-st-attrib $-1 -1 $-1 $249 $187 2 1 2 1 1 1 1 1 1 1 1 1 1 1 0 1 1 1 0.50196081399917603 0.50196081399917603 0.75294119119644165 #
string_attrib-name_attrib-gen-attrib $-1 -1 $341 $-1 $250 2 1 1 1 1 1 1 1 1 1 1 1 1 1 0 1 1 1 @17 ATTRIB_XACIS_NAME @4 NONE #
cone-surface $-1 -1 -1 $-1 1.7500000000000004 -1.9999999999999987 -5.3500000000000005 0 -1 -0 0 0 1.0000000000000002 1 I I -0 1 1.0000000000000002 forward I I I I #
rgb_color-st-attrib $-1 -1 $-1 $252 $190 2 1 2 1 1 1 1 1 1 1 1 1 1 1 0 1 1 1 0.50196081399917603 0.50196081399917603 0.75294119119644165 #
loop $-1 -1 -1 $-1 $-1 $342 $190 T -1.0999999999999903 -2.4999999999999987 3.5000000000000102 1.0999999999999903 -2.4999999999999987 5.6999999999999913 unknown #
coedge $-1 -1 -1 $-1 $343 $343 $344 $345 reversed $253 $-1 #
coedge $-1 -1 -1 $-1 $310 $310 $346 $347 forward $255 $-1 #
loop $-1 -1 -1 $-1 $-1 $257 $301 T -0.79999999999999905 -7.3000000000000007 3.8000000000000016 0.79999999999999927 -7.3000000000000007 5.3999999999999995 unknown #
rgb_color-st-attrib $-1 -1 $-1 $-1 $258 2 1 2 1 1 1 1 1 1 1 1 1 1 1 0 1 1 1 0.56078433990478516 0.68627452850341797 0.56078433990478516 #
vertex $-1 -1 -1 $-1 $258 $348 #
ellipse-curve $-1 -1 -1 $-1 6.4726951256692425e-17 -7.3000000000000007 4.6000000000000005 9.9579925010296049e-17 -1 1.6081226496766366e-16 1.4695761589768226e-16 1.2864981197413081e-16 0.79999999999999916 1 I I #
rgb_color-st-attrib $-1 -1 $-1 $-1 $259 2 1 2 1 1 1 1 1 1 1 1 1 1 1 0 1 1 1 0.56078433990478516 0.68627452850341797 0.56078433990478516 #
vertex $-1 -1 -1 $-1 $259 $349 #
ellipse-curve $-1 -1 -1 $-1 6.9705947507207211e-17 -3.3999999999999977 0.15000000000000016 9.9579925010296012e-17 -1 1.6081226496766361e-16 3.765788907378111e-16 3.2966514318371056e-16 2.0500000000000003 1 I I #
point $-1 -1 -1 $-1 3.0687294323060393e-16 -1.9999999999999971 2.2000000000000002 #
edge $350 -1 -1 $-1 $325 -0.0017500000000000005 $284 0.0017500000000000005 $279 $351 forward @7 unknown T -1.7500000000000004 -1.9999999999999987 -6.3500000000000014 1.7500000000000004 -1.9999999999999987 -6.3500000000000014 #
string_attrib-name_attrib-gen-attrib $-1 -1 $352 $-1 $269 2 1 1 1 1 1 1 1 1 1 1 1 1 1 0 1 1 1 @17 ATTRIB_XACIS_NAME @4 NONE #
ellipse-curve $-1 -1 -1 $-1 -1.7500000000000004 -1.9999999999999987 -5.3500000000000005 0 -1 0 0 0 -1.0000000000000002 1 F 4.7123889803846897 F 6.2831853071795862 #
edge $353 -1 -1 $-1 $294 -0.0010000000000000002 $277 0.0010000000000000002 $287 $354 forward @7 unknown T 2.7500000000000009 -1.9999999999999987 -5.3500000000000005 2.7500000000000009 1.7763568394002509e-15 -5.3500000000000005 #
point $-1 -1 -1 $-1 2.7500000000000009 1.7763568394002509e-15 -5.3500000000000005 #
rgb_color-st-attrib $-1 -1 $-1 $-1 $280 2 1 2 1 1 1 1 1 1 1 1 1 1 1 0 1 1 1 0.56078433990478516 0.68627452850341797 0.56078433990478516 #
vertex $-1 -1 -1 $-1 $319 $355 #
straight-curve $-1 -1 -1 $-1 1.7500000000000004 -0.99999999999999856 -6.3500000000000014 0 1000 0 F -0.0010000000000000002 F 0.0010000000000000002 #
rgb_color-st-attrib $-1 -1 $-1 $-1 $281 2 1 2 1 1 1 1 1 1 1 1 1 1 1 0 1 1 1 0.50196081399917603 0.50196081399917603 0.75294119119644165 #
plane-surface $-1 -1 -1 $-1 0 -0.99999999999999856 -6.3500000000000014 0 0 1 1 0 0 forward_v I I I I #
point $-1 -1 -1 $-1 -1.7500000000000004 -1.9999999999999987 -6.3500000000000014 #
string_attrib-name_attrib-gen-attrib $-1 -1 $356 $-1 $292 2 1 1 1 1 1 1 1 1 1 1 1 1 1 0 1 1 1 @17 ATTRIB_XACIS_NAME @4 NONE #
ellipse-curve $-1 -1 -1 $-1 1.7500000000000004 -1.9999999999999987 -5.3500000000000005 0 -1 0 0 0 -1.0000000000000002 1 F 0 F 1.5707963267948966 #
point $-1 -1 -1 $-1 2.7500000000000009 -1.9999999999999987 -5.3500000000000005 #
coedge $-1 -1 -1 $-1 $357 $358 $296 $334 forward $302 $-1 #
edge $359 -1 -1 $-1 $360 0 $360 6.2831853071795862 $333 $361 forward @7 unknown T -1.0999999999999903 -1.9999999999999987 3.5000000000000102 1.0999999999999903 -1.9999999999999987 5.6999999999999913 #
rgb_color-st-attrib $-1 -1 $-1 $300 $246 2 1 2 1 1 1 1 1 1 1 1 1 1 1 0 1 1 1 0.50196081399917603 0.50196081399917603 0.75294119119644165 #
string_attrib-name_attrib-gen-attrib $-1 -1 $362 $-1 $301 2 1 1 1 1 1 1 1 1 1 1 1 1 1 0 1 1 1 @17 ATTRIB_XACIS_NAME @4 NONE #
face $363 -1 -1 $-1 $364 $365 $4 $-1 $366 forward single T -0.15000000000000013 -4.8999999999999995 -1.1102230246251565e-16 0.15000000000000013 -3.3999999999999977 0.30000000000000021 F #
loop $-1 -1 -1 $-1 $311 $367 $301 T -0.79999999999999916 -6 3.8000000000000007 0.79999999999999916 -2.4999999999999987 5.4000000000000021 unknown #
cone-surface $-1 -1 -1 $-1 0 -1.9999999999999987 4.6000000000000005 -0 1 -0 0 0 0.79999999999999916 1 I I -0 1 0.79999999999999916 forward I I I I #
coedge $-1 -1 -1 $-1 $358 $357 $342 $368 reversed $302 $-1 #
rgb_color-st-attrib $-1 -1 $-1 $305 $250 2 1 2 1 1 1 1 1 1 1 1 1 1 1 0 1 1 1 0.50196081399917603 0.50196081399917603 0.75294119119644165 #
coedge $-1 -1 -1 $-1 $342 $342 $340 $368 forward $308 $-1 #
coedge $-1 -1 -1 $-1 $309 $309 $369 $370 reversed $253 $-1 #
coedge $-1 -1 -1 $-1 $371 $372 $309 $345 forward $338 $-1 #
edge $373 -1 -1 $-1 $374 0 $375 3.1415926535897931 $344 $376 forward @7 unknown T -0.79999999999999916 -2.4999999999999987 3.8000000000000007 0 -2.4999999999999987 5.4000000000000021 #
coedge $-1 -1 -1 $-1 $346 $346 $310 $347 reversed $365 $-1 #
edge $377 -1 -1 $-1 $378 4.0123540508067415e-32 $378 6.2831853071795862 $310 $379 forward @7 unknown T -0.15000000000000013 -3.3999999999999995 -1.1102230246251565e-16 0.14999999999999997 -3.3999999999999977 0.29999999999999999 #
point $-1 -1 -1 $-1 2.1168456715437468e-16 -7.3000000000000007 5.3999999999999995 #
point $-1 -1 -1 $-1 4.4628483824501833e-16 -3.3999999999999977 2.2000000000000002 #
rgb_color-st-attrib $-1 -1 $-1 $-1 $319 2 1 2 1 1 1 1 1 1 1 1 1 1 1 0 1 1 1 0.56078433990478516 0.68627452850341797 0.56078433990478516 #
straight-curve $-1 -1 -1 $-1 0 -1.9999999999999987 -6.3500000000000014 -1000 0 0 F -0.0017500000000000005 F 0.0017500000000000005 #
rgb_color-st-attrib $-1 -1 $-1 $320 $269 2 1 2 1 1 1 1 1 1 1 1 1 1 1 0 1 1 1 0.56078433990478516 0.68627452850341797 0.56078433990478516 #
rgb_color-st-attrib $-1 -1 $-1 $-1 $322 2 1 2 1 1 1 1 1 1 1 1 1 1 1 0 1 1 1 0.56078433990478516 0.68627452850341797 0.56078433990478516 #
straight-curve $-1 -1 -1 $-1 2.7500000000000009 -0.99999999999999856 -5.3500000000000005 0 1000 0 F -0.0010000000000000002 F 0.0010000000000000002 #
point $-1 -1 -1 $-1 1.7500000000000004 -1.9999999999999987 -6.3500000000000014 #
rgb_color-st-attrib $-1 -1 $-1 $330 $292 2 1 2 1 1 1 1 1 1 1 1 1 1 1 0 1 1 1 0.56078433990478516 0.68627452850341797 0.56078433990478516 #
coedge $-1 -1 -1 $-1 $340 $333 $358 $380 reversed $302 $-1 #
coedge $-1 -1 -1 $-1 $333 $340 $357 $380 forward $302 $-1 #
string_attrib-name_attrib-gen-attrib $-1 -1 $381 $-1 $334 2 1 1 1 1 1 1 1 1 1 1 1 1 1 0 1 1 1 @17 ATTRIB_XACIS_NAME @4 NONE #
vertex $382 -1 -1 $-1 $334 $383 #
ellipse-curve $-1 -1 -1 $-1 0 -1.9999999999999987 4.6000000000000005 0 -1 0 0 0 1.0999999999999903 1 I I #
rgb_color-st-attrib $-1 -1 $-1 $336 $301 2 1 2 1 1 1 1 1 1 1 1 1 1 1 0 1 1 1 0.50196081399917603 0.50196081399917603 0.75294119119644165 #
rgb_color-st-attrib $-1 -1 $-1 $-1 $337 2 1 2 1 1 1 1 1 1 1 1 1 1 1 0 1 1 1 0.50196081399917603 0.50196081399917603 0.75294119119644165 #
face $384 -1 -1 $-1 $116 $385 $4 $-1 $386 forward single T -0.14999999999999997 -4.8999999999999995 1.1102230246251565e-16 0.15000000000000013 -4.8999999999999995 0.30000000000000021 F #
loop $-1 -1 -1 $-1 $387 $346 $337 T -0.15000000000000013 -3.3999999999999995 -1.1102230246251565e-16 0.14999999999999997 -3.3999999999999977 0.29999999999999999 unknown #
cone-surface $-1 -1 -1 $-1 0 -4.1500000000000004 0.15000000000000005 -9.9579925010296012e-17 1 -1.6081226496766361e-16 2.7554552980815451e-17 2.412183974514956e-17 0.15000000000000005 1 I I -0 1 0.15000000000000005 forward I I I I #
coedge $-1 -1 -1 $-1 $372 $369 $372 $388 reversed $338 $-1 #
edge $389 -1 -1 $-1 $390 0 $390 6.2831853071795862 $342 $391 forward @7 unknown T -1.0999999999999903 -2.4999999999999987 3.5000000000000102 1.0999999999999903 -2.4999999999999987 5.6999999999999913 #
coedge $-1 -1 -1 $-1 $367 $392 $343 $370 forward $338 $-1 #
edge $393 -1 -1 $-1 $375 3.1415926535897931 $374 6.2831853071795862 $369 $394 forward @7 unknown T -9.7971743931788138e-17 -2.4999999999999987 3.8000000000000007 0.79999999999999916 -2.4999999999999987 5.4000000000000021 #
coedge $-1 -1 -1 $-1 $392 $344 $392 $395 reversed $338 $-1 #
coedge $-1 -1 -1 $-1 $344 $367 $367 $388 forward $338 $-1 #
string_attrib-name_attrib-gen-attrib $-1 -1 $396 $-1 $345 2 1 1 1 1 1 1 1 1 1 1 1 1 1 0 1 1 1 @17 ATTRIB_XACIS_NAME @4 NONE #
vertex $397 -1 -1 $-1 $370 $398 #
vertex $399 -1 -1 $-1 $370 $400 #
ellipse-curve $-1 -1 -1 $-1 0 -2.4999999999999987 4.6000000000000005 0 -1 0 0 0 0.79999999999999916 1 F 0 F 3.1415926535897931 #
rgb_color-st-attrib $-1 -1 $-1 $-1 $347 2 1 2 1 1 1 1 1 1 1 1 1 1 1 0 1 1 1 0.56078433990478516 0.68627452850341797 0.56078433990478516 #
vertex $-1 -1 -1 $-1 $347 $401 #
ellipse-curve $-1 -1 -1 $-1 -7.4684943757722194e-17 -3.3999999999999977 0.14999999999999994 -9.9579925010296012e-17 1 -1.6081226496766361e-16 2.7554552980815451e-17 2.412183974514956e-17 0.15000000000000005 1 I I #
edge $402 -1 -1 $-1 $390 -0.00050000000000000001 $360 0 $358 $403 forward @7 unknown T 0 -2.4999999999999987 5.6999999999999913 0 -1.9999999999999987 5.6999999999999913 #
rgb_color-st-attrib $-1 -1 $-1 $359 $334 2 1 2 1 1 1 1 1 1 1 1 1 1 1 0 1 1 1 0.56078433990478516 0.68627452850341797 0.56078433990478516 #
string_attrib-name_attrib-gen-attrib $-1 -1 $-1 $-1 $360 2 1 1 1 1 1 1 1 1 1 1 1 1 1 0 1 1 1 @17 ATTRIB_XACIS_NAME @4 NONE #
point $-1 -1 -1 $-1 0 -1.9999999999999987 5.6999999999999913 #
rgb_color-st-attrib $-1 -1 $-1 $-1 $364 2 1 2 1 1 1 1 1 1 1 1 1 1 1 0 1 1 1 0.50196081399917603 0.50196081399917603 0.75294119119644165 #
loop $-1 -1 -1 $-1 $-1 $404 $364 T -0.14999999999999997 -4.8999999999999995 1.1102230246251565e-16 0.15000000000000013 -4.8999999999999995 0.30000000000000021 unknown #
plane-surface $-1 -1 -1 $-1 7.4684943757722034e-17 -4.8999999999999995 0.15000000000000016 9.9579925010295987e-17 -1 1.6081226496766366e-16 -1.8369701987210294e-16 -1.6081226496766368e-16 -1 forward_v I I I I #
loop $-1 -1 -1 $-1 $-1 $405 $337 T -0.14999999999999997 -4.8999999999999995 1.1102230246251565e-16 0.15000000000000013 -4.8999999999999995 0.30000000000000021 unknown #
edge $406 -1 -1 $-1 $407 -0.0040000000000000001 $374 -0.00050000000000000001 $372 $408 forward @7 unknown T 0 -5.9999999999999991 5.4000000000000021 0 -2.4999999999999987 5.4000000000000021 #
string_attrib-name_attrib-gen-attrib $-1 -1 $409 $-1 $368 2 1 1 1 1 1 1 1 1 1 1 1 1 1 0 1 1 1 @17 ATTRIB_XACIS_NAME @4 NONE #
vertex $410 -1 -1 $-1 $380 $411 #
ellipse-curve $-1 -1 -1 $-1 0 -2.4999999999999987 4.6000000000000005 0 -1 0 0 0 1.0999999999999903 1 I I #
coedge $-1 -1 -1 $-1 $369 $371 $371 $395 forward $338 $-1 #
string_attrib-name_attrib-gen-attrib $-1 -1 $412 $-1 $370 2 1 1 1 1 1 1 1 1 1 1 1 1 1 0 1 1 1 @17 ATTRIB_XACIS_NAME @4 NONE #
ellipse-curve $-1 -1 -1 $-1 0 -2.4999999999999987 4.6000000000000005 0 -1 0 0 0 0.79999999999999916 1 F 3.1415926535897931 F 6.2831853071795862 #
edge $413 -1 -1 $-1 $414 -0.00115 $375 0.0023500000000000005 $392 $415 forward @7 unknown T -9.7971743931788114e-17 -6 3.8000000000000007 -9.7971743931788114e-17 -2.4999999999999987 3.8000000000000007 #
rgb_color-st-attrib $-1 -1 $-1 $373 $345 2 1 2 1 1 1 1 1 1 1 1 1 1 1 0 1 1 1 0.56078433990478516 0.68627452850341797 0.56078433990478516 #
string_attrib-name_attrib-gen-attrib $-1 -1 $-1 $-1 $374 2 1 1 1 1 1 1 1 1 1 1 1 1 1 0 1 1 1 @17 ATTRIB_XACIS_NAME @4 NONE #
point $-1 -1 -1 $-1 0 -2.4999999999999987 5.4000000000000021 #
string_attrib-name_attrib-gen-attrib $-1 -1 $-1 $-1 $375 2 1 1 1 1 1 1 1 1 1 1 1 1 1 0 1 1 1 @17 ATTRIB_XACIS_NAME @4 NONE #
point $-1 -1 -1 $-1 -9.7971743931788114e-17 -2.4999999999999987 3.8000000000000007 #
point $-1 -1 -1 $-1 -4.7130390776906574e-17 -3.3999999999999995 0.29999999999999993 #
string_attrib-name_attrib-gen-attrib $-1 -1 $416 $-1 $380 2 1 1 1 1 1 1 1 1 1 1 1 1 1 0 1 1 1 @17 ATTRIB_XACIS_NAME @4 NONE #
straight-curve $-1 -1 -1 $-1 0 -1.9999999999999987 5.6999999999999913 0 1000 0 F -0.00050000000000000001 F 0 #
coedge $-1 -1 -1 $-1 $404 $404 $405 $417 forward $385 $-1 #
coedge $-1 -1 -1 $-1 $405 $405 $404 $417 reversed $387 $-1 #
string_attrib-name_attrib-gen-attrib $-1 -1 $418 $-1 $388 2 1 1 1 1 1 1 1 1 1 1 1 1 1 0 1 1 1 @17 ATTRIB_XACIS_NAME @4 NONE #
vertex $-1 -1 -1 $-1 $388 $419 #
straight-curve $-1 -1 -1 $-1 0 -1.9999999999999987 5.4000000000000021 0 1000 0 F -0.0040000000000000001 F -0.00050000000000000001 #
rgb_color-st-attrib $-1 -1 $-1 $389 $368 2 1 2 1 1 1 1 1 1 1 1 1 1 1 0 1 1 1 0.56078433990478516 0.68627452850341797 0.56078433990478516 #
string_attrib-name_attrib-gen-attrib $-1 -1 $-1 $-1 $390 2 1 1 1 1 1 1 1 1 1 1 1 1 1 0 1 1 1 @17 ATTRIB_XACIS_NAME @4 NONE #
point $-1 -1 -1 $-1 0 -2.4999999999999987 5.6999999999999913 #
rgb_color-st-attrib $-1 -1 $-1 $393 $370 2 1 2 1 1 1 1 1 1 1 1 1 1 1 0 1 1 1 0.56078433990478516 0.68627452850341797 0.56078433990478516 #
rgb_color-st-attrib $-1 -1 $-1 $-1 $395 2 1 2 1 1 1 1 1 1 1 1 1 1 1 0 1 1 1 0.56078433990478516 0.68627452850341797 0.56078433990478516 #
vertex $-1 -1 -1 $-1 $395 $420 #
straight-curve $-1 -1 -1 $-1 -9.7971743931788114e-17 -4.8499999999999996 3.8000000000000007 0 1000 0 F -0.00115 F 0.0023500000000000005 #
rgb_color-st-attrib $-1 -1 $-1 $402 $380 2 1 2 1 1 1 1 1 1 1 1 1 1 1 0 1 1 1 0.56078433990478516 0.68627452850341797 0.56078433990478516 #
edge $421 -1 -1 $-1 $422 0 $422 6.2831853071795862 $404 $423 forward @7 unknown T -0.14999999999999997 -4.8999999999999995 1.1102230246251565e-16 0.15000000000000013 -4.8999999999999995 0.30000000000000021 #
rgb_color-st-attrib $-1 -1 $-1 $406 $388 2 1 2 1 1 1 1 1 1 1 1 1 1 1 0 1 1 1 0.56078433990478516 0.68627452850341797 0.56078433990478516 #
point $-1 -1 -1 $-1 0 -5.9999999999999991 5.4000000000000021 #
point $-1 -1 -1 $-1 -9.7971743931788114e-17 -5.9999999999999991 3.8000000000000007 #
rgb_color-st-attrib $-1 -1 $-1 $-1 $417 2 1 2 1 1 1 1 1 1 1 1 1 1 1 0 1 1 1 0.56078433990478516 0.68627452850341797 0.56078433990478516 #
vertex $-1 -1 -1 $-1 $417 $424 #
ellipse-curve $-1 -1 -1 $-1 7.4684943757722034e-17 -4.8999999999999995 0.15000000000000016 9.9579925010296012e-17 -1 1.6081226496766361e-16 2.7554552980815451e-17 2.412183974514956e-17 0.15000000000000005 1 I I #
point $-1 -1 -1 $-1 1.0223949673853747e-16 -4.8999999999999995 0.30000000000000016 #
End-of-ACIS-data 